{
  "title" : "",
  "description" : "",
  "author" : "",
  "targetLoudness" : -18.0,
  "shouldApplyLoudnessNormalization" : false,
  "videoFormatFrameRate" : 30,
  "audioFormatSampleRate" : 44100,
  "width" : 1280.0,
  "height" : 720.0,
  "version" : "3.0",
  "editRate" : 30,
  "authoringClientName" :  {
    "name" : "Camtasia",
    "platform" : "Windows",
    "version" : "19.0"
  },
  "sourceBin" : [
    {
      "id" : 1,
      "src" : "D:\\Data Files\\Udemy\\Instructor\\Codestars\\Java\\Course-Prep-Splash\\Camtasia9TemplateWindows\\codestars_logo.png",
      "rect" : [0, 0, 1061, 168],
      "lastMod" : "20200203T061715",
      "sourceTracks" : [
        {
          "range" : [0, 1],
          "type" : 1,
          "editRate" : 10000000,
          "trackRect" : [0, 0, 1061, 168],
          "sampleRate" : 0,
          "bitDepth" : 32,
          "numChannels" : 0,
          "integratedLUFS" : 100.0,
          "peakLevel" : -1.0,
          "metaData" : ""
        }
      ],
      "metadata" : {
        "timeAdded" : "20200413T010652.786275"
      }
    },
    {
      "id" : 2,
      "src" : "D:\\Data Files\\Udemy\\Instructor\\Codestars\\Java\\Course-Prep-Splash\\Camtasia9TemplateWindows\\star.png",
      "rect" : [0, 0, 199, 206],
      "lastMod" : "20200203T061715",
      "sourceTracks" : [
        {
          "range" : [0, 1],
          "type" : 1,
          "editRate" : 10000000,
          "trackRect" : [0, 0, 199, 206],
          "sampleRate" : 0,
          "bitDepth" : 32,
          "numChannels" : 0,
          "integratedLUFS" : 100.0,
          "peakLevel" : -1.0,
          "metaData" : ""
        }
      ],
      "metadata" : {
        "timeAdded" : "20200413T010652.797951"
      }
    },
    {
      "id" : 3,
      "src" : "D:\\Data Files\\Udemy\\Instructor\\Codestars\\Java\\Course-Prep-Splash\\Splash_Java-1.png",
      "rect" : [0, 0, 1920, 1080],
      "lastMod" : "20200806T044114",
      "sourceTracks" : [
        {
          "range" : [0, 1],
          "type" : 1,
          "editRate" : 10000000,
          "trackRect" : [0, 0, 1920, 1080],
          "sampleRate" : 0,
          "bitDepth" : 32,
          "numChannels" : 0,
          "integratedLUFS" : 100.0,
          "peakLevel" : -1.0,
          "metaData" : ""
        }
      ],
      "metadata" : {
        "timeAdded" : "20200413T010652.819235"
      }
    },
    {
      "id" : 4,
      "src" : "C:\\Users\\profj\\Desktop\\Udemy\\Codestars\\CPP\\videos\\Course-Prep-Splash\\JPB-Images\\PNG\\Head.png",
      "rect" : [0, 0, 721, 1024],
      "lastMod" : "20200203T062252",
      "sourceTracks" : [
        {
          "range" : [0, 1],
          "type" : 1,
          "editRate" : 10000000,
          "trackRect" : [0, 0, 721, 1024],
          "sampleRate" : 0,
          "bitDepth" : 32,
          "numChannels" : 0,
          "integratedLUFS" : 100.0,
          "peakLevel" : -1.0,
          "metaData" : ""
        }
      ],
      "metadata" : {
        "timeAdded" : "20200413T010652.821203"
      }
    },
    {
      "id" : 5,
      "src" : "D:\\Data Files\\Udemy\\Instructor\\Codestars\\Java\\Videos\\section4\\_intro-bulletpoints\\j-s4-lec6-proj4-2working-with-arraylists\\Slide1.PNG",
      "rect" : [0, 0, 1280, 720],
      "lastMod" : "20201004T045329",
      "sourceTracks" : [
        {
          "range" : [0, 1],
          "type" : 1,
          "editRate" : 10000000,
          "trackRect" : [0, 0, 1280, 720],
          "sampleRate" : 0,
          "bitDepth" : 24,
          "numChannels" : 0,
          "integratedLUFS" : 100.0,
          "peakLevel" : -1.0,
          "metaData" : ""
        }
      ],
      "metadata" : {
        "timeAdded" : "20201004T045337.383794"
      }
    },
    {
      "id" : 6,
      "src" : "D:\\Data Files\\Udemy\\Instructor\\Codestars\\Java\\Videos\\section4\\_intro-bulletpoints\\j-s4-lec6-proj4-2working-with-arraylists\\Slide2.PNG",
      "rect" : [0, 0, 1280, 720],
      "lastMod" : "20201004T045329",
      "sourceTracks" : [
        {
          "range" : [0, 1],
          "type" : 1,
          "editRate" : 10000000,
          "trackRect" : [0, 0, 1280, 720],
          "sampleRate" : 0,
          "bitDepth" : 24,
          "numChannels" : 0,
          "integratedLUFS" : 100.0,
          "peakLevel" : -1.0,
          "metaData" : ""
        }
      ],
      "metadata" : {
        "timeAdded" : "20201004T045338.790277"
      }
    },
    {
      "id" : 7,
      "src" : "C:\\Users\\profj\\Documents\\Camtasia\\Rec 10-04-20_006.trec",
      "rect" : [0, 0, 1920, 1080],
      "lastMod" : "20201004T050031",
      "sourceTracks" : [
        {
          "range" : [0, 9154],
          "type" : 0,
          "editRate" : 30,
          "trackRect" : [0, 0, 1920, 1080],
          "sampleRate" : 26,
          "bitDepth" : 0,
          "numChannels" : 0,
          "integratedLUFS" : 100.0,
          "peakLevel" : -1.0,
          "metaData" : "2b7b6a00-7a1f-11e2-83d0-0017f200be7f;2b7b6aef-7a1f-11e2-83d0-0017f200be7f;2b7b6af0-7a1f-11e2-83d0-0017f200be7f;2b7b6af1-7a1f-11e2-83d0-0017f200be7f;2b7b6af2-7a1f-11e2-83d0-0017f200be7f;2b7b6af3-7a1f-11e2-83d0-0017f200be7f;2b7b6af5-7a1f-11e2-83d0-0017f200be7f;2b7b6af6-7a1f-11e2-83d0-0017f200be7f;2b7b6af7-7a1f-11e2-83d0-0017f200be7f;2b7b6af8-7a1f-11e2-83d0-0017f200be7f;2b7b6af9-7a1f-11e2-83d0-0017f200be7f;2b7b6afa-7a1f-11e2-83d0-0017f200be7f;"
        },
        {
          "range" : [0, 13452288],
          "type" : 2,
          "editRate" : 44100,
          "trackRect" : [0, 0, 0, 0],
          "sampleRate" : 44100,
          "bitDepth" : 16,
          "numChannels" : 2,
          "integratedLUFS" : -27.7132262002358,
          "peakLevel" : 0.999969482421875,
          "metaData" : ""
        },
        {
          "range" : [0, 13454336],
          "type" : 2,
          "editRate" : 44100,
          "trackRect" : [0, 0, 0, 0],
          "sampleRate" : 44100,
          "bitDepth" : 16,
          "numChannels" : 2,
          "integratedLUFS" : -1.79769313486232e+308,
          "peakLevel" : 0.0,
          "metaData" : ""
        }
      ],
      "metadata" : {
        "timeAdded" : "20201004T050032.047798"
      }
    },
    {
      "id" : 8,
      "src" : "C:\\Users\\profj\\Documents\\Camtasia\\Rec 10-04-20_007.trec",
      "rect" : [0, 0, 1920, 1080],
      "lastMod" : "20201004T051653",
      "sourceTracks" : [
        {
          "range" : [0, 5991],
          "type" : 0,
          "editRate" : 30,
          "trackRect" : [0, 0, 1920, 1080],
          "sampleRate" : 26,
          "bitDepth" : 0,
          "numChannels" : 0,
          "integratedLUFS" : 100.0,
          "peakLevel" : -1.0,
          "metaData" : "2b7b6a00-7a1f-11e2-83d0-0017f200be7f;2b7b6aef-7a1f-11e2-83d0-0017f200be7f;2b7b6af0-7a1f-11e2-83d0-0017f200be7f;2b7b6af1-7a1f-11e2-83d0-0017f200be7f;2b7b6af2-7a1f-11e2-83d0-0017f200be7f;2b7b6af3-7a1f-11e2-83d0-0017f200be7f;2b7b6af5-7a1f-11e2-83d0-0017f200be7f;2b7b6af6-7a1f-11e2-83d0-0017f200be7f;2b7b6af7-7a1f-11e2-83d0-0017f200be7f;2b7b6af8-7a1f-11e2-83d0-0017f200be7f;2b7b6af9-7a1f-11e2-83d0-0017f200be7f;2b7b6afa-7a1f-11e2-83d0-0017f200be7f;"
        },
        {
          "range" : [0, 8799232],
          "type" : 2,
          "editRate" : 44100,
          "trackRect" : [0, 0, 0, 0],
          "sampleRate" : 44100,
          "bitDepth" : 16,
          "numChannels" : 2,
          "integratedLUFS" : -28.9307279055393,
          "peakLevel" : 1.0,
          "metaData" : ""
        },
        {
          "range" : [0, 8798208],
          "type" : 2,
          "editRate" : 44100,
          "trackRect" : [0, 0, 0, 0],
          "sampleRate" : 44100,
          "bitDepth" : 16,
          "numChannels" : 2,
          "integratedLUFS" : -1.79769313486232e+308,
          "peakLevel" : 0.0,
          "metaData" : ""
        }
      ],
      "metadata" : {
        "timeAdded" : "20201004T051654.007844"
      }
    },
    {
      "id" : 9,
      "src" : "D:\\Data Files\\Udemy\\Instructor\\Codestars\\Java\\Videos\\section4\\_wavs\\s4-lec6-proj4-2-working-arralists-fixed.wav",
      "rect" : [0, 0, 0, 0],
      "lastMod" : "20201004T052013",
      "sourceTracks" : [
        {
          "range" : [0, 4965333334],
          "type" : 2,
          "editRate" : 10000000,
          "trackRect" : [0, 0, 0, 0],
          "sampleRate" : 44100,
          "bitDepth" : 16,
          "numChannels" : 2,
          "integratedLUFS" : -31.2255952445574,
          "peakLevel" : 0.707183837890625,
          "metaData" : ""
        }
      ],
      "metadata" : {
        "timeAdded" : "20201004T052018.389930"
      }
    },
    {
      "id" : 10,
      "src" : "C:\\Users\\profj\\Documents\\Camtasia\\Rec 10-04-20_008.trec",
      "rect" : [0, 0, 1920, 1080],
      "lastMod" : "20201004T053116",
      "sourceTracks" : [
        {
          "range" : [0, 1849],
          "type" : 0,
          "editRate" : 30,
          "trackRect" : [0, 0, 1920, 1080],
          "sampleRate" : 26,
          "bitDepth" : 0,
          "numChannels" : 0,
          "integratedLUFS" : 100.0,
          "peakLevel" : -1.0,
          "metaData" : "2b7b6a00-7a1f-11e2-83d0-0017f200be7f;2b7b6aef-7a1f-11e2-83d0-0017f200be7f;2b7b6af0-7a1f-11e2-83d0-0017f200be7f;2b7b6af1-7a1f-11e2-83d0-0017f200be7f;2b7b6af2-7a1f-11e2-83d0-0017f200be7f;2b7b6af3-7a1f-11e2-83d0-0017f200be7f;2b7b6af5-7a1f-11e2-83d0-0017f200be7f;2b7b6af6-7a1f-11e2-83d0-0017f200be7f;2b7b6af7-7a1f-11e2-83d0-0017f200be7f;2b7b6af8-7a1f-11e2-83d0-0017f200be7f;2b7b6af9-7a1f-11e2-83d0-0017f200be7f;2b7b6afa-7a1f-11e2-83d0-0017f200be7f;"
        },
        {
          "range" : [0, 2713600],
          "type" : 2,
          "editRate" : 44100,
          "trackRect" : [0, 0, 0, 0],
          "sampleRate" : 44100,
          "bitDepth" : 16,
          "numChannels" : 2,
          "integratedLUFS" : -32.3618083505773,
          "peakLevel" : 0.225250244140625,
          "metaData" : ""
        },
        {
          "range" : [0, 2716672],
          "type" : 2,
          "editRate" : 44100,
          "trackRect" : [0, 0, 0, 0],
          "sampleRate" : 44100,
          "bitDepth" : 16,
          "numChannels" : 2,
          "integratedLUFS" : -1.79769313486232e+308,
          "peakLevel" : 0.0,
          "metaData" : ""
        }
      ],
      "metadata" : {
        "timeAdded" : "20201004T053117.292704"
      }
    },
    {
      "id" : 11,
      "src" : "D:\\Data Files\\Udemy\\Instructor\\Codestars\\Java\\Videos\\section4\\_wavs\\s4-lec6-proj4-2-demo-fixed.wav",
      "rect" : [0, 0, 0, 0],
      "lastMod" : "20201004T053215",
      "sourceTracks" : [
        {
          "range" : [0, 615333334],
          "type" : 2,
          "editRate" : 10000000,
          "trackRect" : [0, 0, 0, 0],
          "sampleRate" : 44100,
          "bitDepth" : 16,
          "numChannels" : 2,
          "integratedLUFS" : -35.5289627788243,
          "peakLevel" : 0.160919189453125,
          "metaData" : ""
        }
      ],
      "metadata" : {
        "timeAdded" : "20201004T053227.812299"
      }
    }
  ],
  "timeline" : {
    "id" : 12,
    "sceneTrack" : {
      "scenes" : [
        {
          "duration" : 495.566666666667,
          "title" : "",
          "type" : "",
          "csml" : {
            "tracks" : [
              {
                "trackIndex" : 0,
                "medias" : [
                ]
              },
              {
                "trackIndex" : 1,
                "medias" : [
                  {
                    "id" : 13,
                    "_type" : "IMFile",
                    "src" : 3,
                    "trackNumber" : 0,
                    "trimStartSum" : 0,
                    "attributes" : {
                      "ident" : "Splash_Java-1"
                    },
                    "parameters" : {
                      "translation0" : 1.41765519860095,
                      "translation1" : 0.802568950732536,
                      "scale0" : 0.668152905464492,
                      "scale1" : 0.668152905464491
                    },
                    "effects" : [

                    ],
                    "start" : 0,
                    "duration" : 150,
                    "mediaStart" : 0,
                    "mediaDuration" : 1,
                    "scalar" : 1,
                    "metadata" : {
                      "WinSubProjectDisplayName" : "",
                      "clipSpeedAttribute" : false,
                      "default-scale" : "0.666667",
                      "default-scale0" : 0.666671423982989,
                      "default-scale1" : 0.666671423982989,
                      "default-translation0" : 0.00456702366917246,
                      "default-translation1" : -0.00256895081391425,
                      "effectApplied" : "none"
                    },
                    "animationTracks" : {

                    }
                  }
                ],
                "transitions" : [
                  {
                    "name" : "Fade",
                    "duration" : 30,
                    "trivial" : true,
                    "reverse" : false,
                    "useAudioPreRoll" : false,
                    "useVisualPreRoll" : true,
                    "leftMedia" : 13
                  }
                ]
              },
              {
                "trackIndex" : 2,
                "medias" : [
                  {
                    "id" : 14,
                    "_type" : "IMFile",
                    "src" : 2,
                    "trackNumber" : 0,
                    "trimStartSum" : 0,
                    "attributes" : {
                      "ident" : "star"
                    },
                    "parameters" : {
                      "translation0" : {
                        "type" : "double",
                        "defaultValue" : -640.0,
                        "interp" : "linr",
                        "keyframes" : [
                          {
                            "endTime" : 30,
                            "time" : 0,
                            "value" : -522.733906099372,
                            "duration" : 30
                          }
                        ]
                      },
                      "translation1" : {
                        "type" : "double",
                        "defaultValue" : -0.0,
                        "interp" : "linr",
                        "keyframes" : [
                          {
                            "endTime" : 30,
                            "time" : 0,
                            "value" : -277.438113851611,
                            "duration" : 30
                          }
                        ]
                      },
                      "translation2" : {
                        "type" : "double",
                        "defaultValue" : 0.0,
                        "interp" : "linr"
                      },
                      "rotation0" : {
                        "type" : "double",
                        "defaultValue" : 0.0,
                        "interp" : "linr"
                      },
                      "rotation1" : {
                        "type" : "double",
                        "defaultValue" : 0.0,
                        "interp" : "linr"
                      },
                      "rotation2" : {
                        "type" : "double",
                        "defaultValue" : 6.28318530717959,
                        "interp" : "linr",
                        "keyframes" : [
                          {
                            "endTime" : 30,
                            "time" : 0,
                            "value" : 0.0,
                            "duration" : 30
                          }
                        ]
                      },
                      "shear0" : {
                        "type" : "double",
                        "defaultValue" : 0.0,
                        "interp" : "linr"
                      },
                      "shear1" : {
                        "type" : "double",
                        "defaultValue" : 0.0,
                        "interp" : "linr"
                      },
                      "shear2" : {
                        "type" : "double",
                        "defaultValue" : 0.0,
                        "interp" : "linr"
                      },
                      "scale0" : {
                        "type" : "double",
                        "defaultValue" : 0.0,
                        "interp" : "linr",
                        "keyframes" : [
                          {
                            "endTime" : 30,
                            "time" : 0,
                            "value" : 0.344059357782636,
                            "duration" : 30
                          }
                        ]
                      },
                      "scale1" : {
                        "type" : "double",
                        "defaultValue" : 0.0,
                        "interp" : "linr",
                        "keyframes" : [
                          {
                            "endTime" : 30,
                            "time" : 0,
                            "value" : 0.344059357782636,
                            "duration" : 30
                          }
                        ]
                      },
                      "scale2" : {
                        "type" : "double",
                        "defaultValue" : 1.0,
                        "interp" : "linr"
                      },
                      "anchor0" : {
                        "type" : "double",
                        "defaultValue" : 0.0,
                        "interp" : "linr"
                      },
                      "anchor1" : {
                        "type" : "double",
                        "defaultValue" : 0.0,
                        "interp" : "linr"
                      },
                      "anchor2" : {
                        "type" : "double",
                        "defaultValue" : 0.0,
                        "interp" : "linr"
                      },
                      "opacity" : {
                        "type" : "double",
                        "defaultValue" : 1.0,
                        "keyframes" : [
                          {
                            "endTime" : 150,
                            "time" : 120,
                            "value" : 0.0,
                            "duration" : 30
                          }
                        ]
                      }
                    },
                    "effects" : [

                    ],
                    "start" : 0,
                    "duration" : 150,
                    "mediaStart" : 0,
                    "mediaDuration" : 1,
                    "scalar" : 1,
                    "metadata" : {
                      "WinSubProjectDisplayName" : "",
                      "clipSpeedAttribute" : false,
                      "default-scale" : "1",
                      "effectApplied" : "none"
                    },
                    "animationTracks" : {
                      "visual" : [
                        {
                          "endTime" : 30,
                          "duration" : 30,
                          "range" : [ 0, 30]
                        },
                        {
                          "endTime" : 150,
                          "duration" : 30,
                          "range" : [ 120, 30]
                        }
                      ]
                    }
                  }
                ]
              },
              {
                "trackIndex" : 3,
                "medias" : [
                  {
                    "id" : 15,
                    "_type" : "Callout",
                    "def" : {
                      "kind" : "remix",
                      "shape" : "text",
                      "style" : "bold",
                      "height" : 250.0,
                      "line-spacing" : 0.0,
                      "width" : 1035.85760517811,
                      "word-wrap" : 1.0,
                      "horizontal-alignment" : "left",
                      "resize-behavior" : "resizeText",
                      "text" : "Arrays and ArrayLists\rProject 4-2: Working with\rArrayLists",
                      "vertical-alignment" : "center",
                      "font" : {
                        "color-blue" : 1.0,
                        "color-green" : 1.0,
                        "color-red" : 1.0,
                        "size" : 96.0,
                        "tracking" : 0.0,
                        "name" : "Source Sans Pro",
                        "weight" : "Semi Bold"
                      },
                      "textAttributes" : {
                        "type" : "textAttributeList",
                        "keyframes" : [
                          {
                            "endTime" : 0,
                            "time" : 0,
                            "value" : [{"name":"fontItalic","rangeEnd":58,"rangeStart":0,"value":0,"valueType":"int"},{"name":"fontSize","rangeEnd":22,"rangeStart":0,"value":55,"valueType":"double"},{"name":"fontName","rangeEnd":58,"rangeStart":0,"value":"Quicksand","valueType":"string"},{"name":"fontWeight","rangeEnd":22,"rangeStart":0,"value":700,"valueType":"int"},{"name":"underline","rangeEnd":58,"rangeStart":0,"value":0,"valueType":"int"},{"name":"fontSize","rangeEnd":58,"rangeStart":22,"value":52,"valueType":"double"},{"name":"kerning","rangeEnd":58,"rangeStart":0,"value":0,"valueType":"double"},{"name":"fontWeight","rangeEnd":58,"rangeStart":22,"value":400,"valueType":"int"},{"name":"fgColor","rangeEnd":58,"rangeStart":0,"value":"(255,255,255,255)","valueType":"color"},{"name":"strikethrough","rangeEnd":58,"rangeStart":0,"value":0,"valueType":"int"}],
                            "duration" : 0
                          }
                        ]
                      }
                    },
                    "attributes" : {
                      "autoRotateText" : true
                    },
                    "parameters" : {
                      "translation0" : {
                        "type" : "double",
                        "defaultValue" : -913.412651778095,
                        "keyframes" : [
                          {
                            "endTime" : 38,
                            "time" : 8,
                            "value" : 97.2540148886495,
                            "duration" : 30
                          }
                        ]
                      },
                      "translation1" : {
                        "type" : "double",
                        "defaultValue" : -34.812002943898,
                        "keyframes" : [
                          {
                            "endTime" : 38,
                            "time" : 8,
                            "value" : -34.8120029438544,
                            "duration" : 30
                          }
                        ]
                      }
                    },
                    "effects" : [
                        {
                          "effectName" : "DropShadow",
                          "category" : "categoryVisualEffects",
                          "parameters" : {
                            "angle" : {
                              "type" : "double",
                              "defaultValue" : 5.49778714378214,
                              "uiHints" : {
                                "userInterfaceType" : 0,
                                "unitType" : 0
                              },
                              "keyframes" : [
                                {
                                  "endTime" : 38,
                                  "time" : 8,
                                  "value" : 5.49778714378214,
                                  "duration" : 30
                                }
                              ]
                            },
                            "blur" : 10.0,
                            "color-alpha" : 1.0,
                            "color-blue" : 0.1216,
                            "color-green" : 0.1216,
                            "color-red" : 0.1216,
                            "enabled" : 1,
                            "offset" : 10.0,
                            "opacity" : 0.4
                          }
                        }
                    ],
                    "start" : 35,
                    "duration" : 115,
                    "mediaStart" : 8,
                    "mediaDuration" : 115,
                    "scalar" : 1,
                    "metadata" : {
                      "WinSubProjectDisplayName" : "",
                      "clipSpeedAttribute" : false,
                      "default-HAlign" : "center",
                      "default-LineSpace" : 0.0,
                      "default-VAlign" : "center",
                      "default-text-attributes" : "[{\"name\":\"fontWeight\",\"rangeEnd\":37,\"rangeStart\":26,\"value\":100,\"valueType\":\"int\"},{\"name\":\"underline\",\"rangeEnd\":37,\"rangeStart\":0,\"value\":0,\"valueType\":\"int\"},{\"name\":\"fontWeight\",\"rangeEnd\":26,\"rangeStart\":0,\"value\":700,\"valueType\":\"int\"},{\"name\":\"fgColor\",\"rangeEnd\":37,\"rangeStart\":0,\"value\":\"(255,255,255,255)\",\"valueType\":\"color\"},{\"name\":\"fontSize\",\"rangeEnd\":26,\"rangeStart\":0,\"value\":55,\"valueType\":\"double\"},{\"name\":\"fontItalic\",\"rangeEnd\":37,\"rangeStart\":0,\"value\":0,\"valueType\":\"int\"},{\"name\":\"strikethrough\",\"rangeEnd\":37,\"rangeStart\":0,\"value\":0,\"valueType\":\"int\"},{\"name\":\"fontName\",\"rangeEnd\":37,\"rangeStart\":0,\"value\":\"Quicksand\",\"valueType\":\"string\"},{\"name\":\"fontSize\",\"rangeEnd\":37,\"rangeStart\":26,\"value\":52,\"valueType\":\"double\"}]",
                      "default-translation0" : 204.5,
                      "default-translation1" : 0.0
                    },
                    "animationTracks" : {
                      "visual" : [
                        {
                          "endTime" : 38,
                          "duration" : 30,
                          "range" : [ 8, 30]
                        }
                      ]
                    }
                  },
                  {
                    "id" : 16,
                    "_type" : "IMFile",
                    "src" : 3,
                    "trackNumber" : 0,
                    "trimStartSum" : 0,
                    "attributes" : {
                      "ident" : "Splash_Java-1"
                    },
                    "parameters" : {
                      "translation0" : 0.00456702366917246,
                      "translation1" : -0.00256895081391425,
                      "scale0" : 0.666671423982989,
                      "scale1" : 0.666671423982989
                    },
                    "effects" : [

                    ],
                    "start" : 14717,
                    "duration" : 150,
                    "mediaStart" : 0,
                    "mediaDuration" : 1,
                    "scalar" : 1,
                    "metadata" : {
                      "WinSubProjectDisplayName" : "",
                      "clipSpeedAttribute" : false,
                      "default-scale" : "0.666667",
                      "effectApplied" : "none"
                    },
                    "animationTracks" : {

                    }
                  }
                ],
                "transitions" : [
                  {
                    "name" : "Fade",
                    "duration" : 30,
                    "trivial" : true,
                    "reverse" : false,
                    "useAudioPreRoll" : true,
                    "useVisualPreRoll" : true,
                    "leftMedia" : 15
                  },
                  {
                    "name" : "Fade",
                    "duration" : 30,
                    "trivial" : true,
                    "reverse" : false,
                    "useAudioPreRoll" : true,
                    "useVisualPreRoll" : true,
                    "rightMedia" : 16
                  },
                  {
                    "name" : "Fade",
                    "duration" : 30,
                    "trivial" : true,
                    "reverse" : false,
                    "useAudioPreRoll" : false,
                    "useVisualPreRoll" : true,
                    "leftMedia" : 16
                  }
                ]
              },
              {
                "trackIndex" : 4,
                "medias" : [
                  {
                    "id" : 17,
                    "_type" : "Callout",
                    "def" : {
                      "kind" : "TypeWinText",
                      "shape" : "",
                      "style" : "",
                      "Style" : 5.0,
                      "dimensionTime" : 0.0,
                      "height" : 180.0,
                      "line-spacing" : 0.0,
                      "textIgnoresOpacity" : 0.0,
                      "textRectHeight" : 1.0,
                      "textRectWidth" : 1.0,
                      "textRectX" : 0.0,
                      "textRectY" : 0.0,
                      "textVerticalAlign" : 0.0,
                      "width" : 320.0,
                      "filename" : "C:\\Program Files\\TechSmith\\Camtasia 9\\Media\\Studio\\Callouts\\trans_100x100.xml",
                      "horizontal-alignment" : "center",
                      "name" : "Text",
                      "resize-behavior" : "resizeText",
                      "text" : "{\\rtf1\\ansi\\ansicpg1252\\deff0\\nouicompat\\deflang1033{\\fonttbl{\\f0\\fnil\\fcharset0 Quicksand;}}\r\n{\\colortbl ;\\red255\\green255\\blue255;}\r\n{\\*\\generator Riched20 10.0.19041}\\viewkind4\\uc1 \r\n\\pard\\qc\\cf1\\b\\f0\\fs124 #\\fs256 4\\fs150\\par\r\n}\r\n",
                      "vertical-alignment" : "center",
                      "xmlContent" : "ï»¿<?xml version=\"1.0\"?>\n\n<Overlay version=\"1.0.1\">\n\n<Overlay_Filename>trans_100x100.png</Overlay_Filename>\n<Overlay_Name>Text</Overlay_Name>\n<Text_Top>0</Text_Top>\n<Text_Left>0</Text_Left>\n<Text_Bottom>0</Text_Bottom>\n<Text_Right>0</Text_Right>\n<Fill_Color>0</Fill_Color>\n<Border_Color>0</Border_Color>\n<Style>5</Style>\n</Overlay>",
                      "textAttributes" : {
                        "type" : "textAttributeList",
                        "keyframes" : [
                          {
                            "endTime" : 0,
                            "time" : 0,
                            "value" : null,
                            "duration" : 0
                          }
                        ]
                      }
                    },
                    "attributes" : {
                      "autoRotateText" : true
                    },
                    "parameters" : {
                      "translation0" : {
                        "type" : "double",
                        "defaultValue" : -820.538865370044,
                        "keyframes" : [
                          {
                            "endTime" : 65,
                            "time" : 35,
                            "value" : -515.833333333334,
                            "duration" : 30
                          }
                        ]
                      },
                      "translation1" : {
                        "type" : "double",
                        "defaultValue" : -34.8120029438978,
                        "keyframes" : [
                          {
                            "endTime" : 65,
                            "time" : 35,
                            "value" : -34.8120029438634,
                            "duration" : 30
                          }
                        ]
                      },
                      "scale0" : {
                        "type" : "double",
                        "defaultValue" : 0.580906148866913,
                        "keyframes" : [
                          {
                            "endTime" : 65,
                            "time" : 35,
                            "value" : 0.685072815533499,
                            "duration" : 30
                          }
                        ]
                      },
                      "scale1" : {
                        "type" : "double",
                        "defaultValue" : 1.43801063442563,
                        "keyframes" : [
                          {
                            "endTime" : 65,
                            "time" : 35,
                            "value" : 1.43801063442563,
                            "duration" : 30
                          }
                        ]
                      }
                    },
                    "effects" : [

                    ],
                    "start" : 35,
                    "duration" : 115,
                    "mediaStart" : 35,
                    "mediaDuration" : 115,
                    "scalar" : 1,
                    "metadata" : {
                      "WinSubProjectDisplayName" : "",
                      "clipSpeedAttribute" : false,
                      "default-legacy-fill-style" : 5.0,
                      "default-legacy-text-callout-vertical-align" : "middle",
                      "default-rotation2" : 0.0,
                      "default-scale0" : 1.0,
                      "default-scale1" : 1.0,
                      "default-text" : "{\\rtf1\\ansi\\ansicpg1252\\deff0\\deflang1033{\\fonttbl{\\f0\\fswiss\\fprq2\\fcharset0 Arial;}}{\\colortbl ;\\red255\\green255\\blue255;}\\viewkind4\\uc1\\pard\\qc\\cf1\\fs72 abc}",
                      "default-translation0" : 0.0,
                      "default-translation1" : 0.0
                    },
                    "animationTracks" : {
                      "visual" : [
                        {
                          "endTime" : 65,
                          "duration" : 30,
                          "range" : [ 35, 30]
                        }
                      ]
                    }
                  },
                  {
                    "id" : 18,
                    "_type" : "IMFile",
                    "src" : 2,
                    "trackNumber" : 0,
                    "trimStartSum" : 0,
                    "attributes" : {
                      "ident" : "star"
                    },
                    "parameters" : {
                      "translation0" : {
                        "type" : "double",
                        "defaultValue" : -522.733906099372,
                        "interp" : "linr"
                      },
                      "translation1" : {
                        "type" : "double",
                        "defaultValue" : -277.438113851611,
                        "interp" : "linr"
                      },
                      "translation2" : {
                        "type" : "double",
                        "defaultValue" : 0.0,
                        "interp" : "linr"
                      },
                      "rotation0" : {
                        "type" : "double",
                        "defaultValue" : 0.0,
                        "interp" : "linr"
                      },
                      "rotation1" : {
                        "type" : "double",
                        "defaultValue" : 0.0,
                        "interp" : "linr"
                      },
                      "rotation2" : {
                        "type" : "double",
                        "defaultValue" : 0.0,
                        "interp" : "linr"
                      },
                      "shear0" : {
                        "type" : "double",
                        "defaultValue" : 0.0,
                        "interp" : "linr"
                      },
                      "shear1" : {
                        "type" : "double",
                        "defaultValue" : 0.0,
                        "interp" : "linr"
                      },
                      "shear2" : {
                        "type" : "double",
                        "defaultValue" : 0.0,
                        "interp" : "linr"
                      },
                      "scale0" : {
                        "type" : "double",
                        "defaultValue" : 0.344059357782636,
                        "interp" : "linr"
                      },
                      "scale1" : {
                        "type" : "double",
                        "defaultValue" : 0.344059357782636,
                        "interp" : "linr"
                      },
                      "scale2" : {
                        "type" : "double",
                        "defaultValue" : 1.0,
                        "interp" : "linr"
                      },
                      "anchor0" : {
                        "type" : "double",
                        "defaultValue" : 0.0,
                        "interp" : "linr"
                      },
                      "anchor1" : {
                        "type" : "double",
                        "defaultValue" : 0.0,
                        "interp" : "linr"
                      },
                      "anchor2" : {
                        "type" : "double",
                        "defaultValue" : 0.0,
                        "interp" : "linr"
                      },
                      "opacity" : {
                        "type" : "double",
                        "defaultValue" : 1.0,
                        "keyframes" : [
                          {
                            "endTime" : 150,
                            "time" : 120,
                            "value" : 0.0,
                            "duration" : 30
                          }
                        ]
                      }
                    },
                    "effects" : [

                    ],
                    "start" : 14717,
                    "duration" : 150,
                    "mediaStart" : 0,
                    "mediaDuration" : 1,
                    "scalar" : 1,
                    "metadata" : {
                      "WinSubProjectDisplayName" : "",
                      "clipSpeedAttribute" : false,
                      "default-opacity" : 0.0,
                      "default-scale" : "1",
                      "effectApplied" : "none"
                    },
                    "animationTracks" : {
                      "visual" : [
                        {
                          "endTime" : 150,
                          "duration" : 30,
                          "range" : [ 120, 30]
                        }
                      ]
                    }
                  }
                ],
                "transitions" : [
                  {
                    "name" : "Fade",
                    "duration" : 30,
                    "trivial" : true,
                    "reverse" : false,
                    "useAudioPreRoll" : true,
                    "useVisualPreRoll" : true,
                    "leftMedia" : 17
                  },
                  {
                    "name" : "Fade",
                    "duration" : 30,
                    "trivial" : true,
                    "reverse" : false,
                    "useAudioPreRoll" : true,
                    "useVisualPreRoll" : true,
                    "rightMedia" : 18
                  },
                  {
                    "name" : "Fade",
                    "duration" : 30,
                    "trivial" : true,
                    "reverse" : false,
                    "useAudioPreRoll" : true,
                    "useVisualPreRoll" : true,
                    "leftMedia" : 18
                  }
                ]
              },
              {
                "trackIndex" : 5,
                "medias" : [
                  {
                    "id" : 19,
                    "_type" : "IMFile",
                    "src" : 1,
                    "trackNumber" : 0,
                    "trimStartSum" : 0,
                    "attributes" : {
                      "ident" : "codestars_logo"
                    },
                    "parameters" : {
                      "translation0" : {
                        "type" : "double",
                        "defaultValue" : -263.136792317664,
                        "interp" : "linr"
                      },
                      "translation1" : {
                        "type" : "double",
                        "defaultValue" : -271.784183685799,
                        "interp" : "linr"
                      },
                      "translation2" : {
                        "type" : "double",
                        "defaultValue" : 0.0,
                        "interp" : "linr"
                      },
                      "rotation0" : {
                        "type" : "double",
                        "defaultValue" : 0.0,
                        "interp" : "linr"
                      },
                      "rotation1" : {
                        "type" : "double",
                        "defaultValue" : 0.0,
                        "interp" : "linr"
                      },
                      "rotation2" : {
                        "type" : "double",
                        "defaultValue" : 0.0,
                        "interp" : "linr"
                      },
                      "shear0" : {
                        "type" : "double",
                        "defaultValue" : 0.0,
                        "interp" : "linr"
                      },
                      "shear1" : {
                        "type" : "double",
                        "defaultValue" : 0.0,
                        "interp" : "linr"
                      },
                      "shear2" : {
                        "type" : "double",
                        "defaultValue" : 0.0,
                        "interp" : "linr"
                      },
                      "scale0" : {
                        "type" : "double",
                        "defaultValue" : 0.402192662926175,
                        "interp" : "linr"
                      },
                      "scale1" : {
                        "type" : "double",
                        "defaultValue" : 0.402192662926175,
                        "interp" : "linr"
                      },
                      "scale2" : {
                        "type" : "double",
                        "defaultValue" : 1.0,
                        "interp" : "linr"
                      },
                      "anchor0" : {
                        "type" : "double",
                        "defaultValue" : 0.0,
                        "interp" : "linr"
                      },
                      "anchor1" : {
                        "type" : "double",
                        "defaultValue" : 0.0,
                        "interp" : "linr"
                      },
                      "anchor2" : {
                        "type" : "double",
                        "defaultValue" : 0.0,
                        "interp" : "linr"
                      }
                    },
                    "effects" : [

                    ],
                    "start" : 0,
                    "duration" : 150,
                    "mediaStart" : 0,
                    "mediaDuration" : 1,
                    "scalar" : 1,
                    "metadata" : {
                      "WinSubProjectDisplayName" : "",
                      "clipSpeedAttribute" : false,
                      "default-scale" : "1",
                      "effectApplied" : "none"
                    },
                    "animationTracks" : {

                    }
                  },
                  {
                    "id" : 20,
                    "_type" : "IMFile",
                    "src" : 1,
                    "trackNumber" : 0,
                    "trimStartSum" : 0,
                    "attributes" : {
                      "ident" : "codestars_logo"
                    },
                    "parameters" : {
                      "translation0" : {
                        "type" : "double",
                        "defaultValue" : -263.136792317664,
                        "interp" : "linr"
                      },
                      "translation1" : {
                        "type" : "double",
                        "defaultValue" : -271.784183685799,
                        "interp" : "linr"
                      },
                      "translation2" : {
                        "type" : "double",
                        "defaultValue" : 0.0,
                        "interp" : "linr"
                      },
                      "rotation0" : {
                        "type" : "double",
                        "defaultValue" : 0.0,
                        "interp" : "linr"
                      },
                      "rotation1" : {
                        "type" : "double",
                        "defaultValue" : 0.0,
                        "interp" : "linr"
                      },
                      "rotation2" : {
                        "type" : "double",
                        "defaultValue" : 0.0,
                        "interp" : "linr"
                      },
                      "shear0" : {
                        "type" : "double",
                        "defaultValue" : 0.0,
                        "interp" : "linr"
                      },
                      "shear1" : {
                        "type" : "double",
                        "defaultValue" : 0.0,
                        "interp" : "linr"
                      },
                      "shear2" : {
                        "type" : "double",
                        "defaultValue" : 0.0,
                        "interp" : "linr"
                      },
                      "scale0" : {
                        "type" : "double",
                        "defaultValue" : 0.402192662926175,
                        "interp" : "linr"
                      },
                      "scale1" : {
                        "type" : "double",
                        "defaultValue" : 0.402192662926175,
                        "interp" : "linr"
                      },
                      "scale2" : {
                        "type" : "double",
                        "defaultValue" : 1.0,
                        "interp" : "linr"
                      },
                      "anchor0" : {
                        "type" : "double",
                        "defaultValue" : 0.0,
                        "interp" : "linr"
                      },
                      "anchor1" : {
                        "type" : "double",
                        "defaultValue" : 0.0,
                        "interp" : "linr"
                      },
                      "anchor2" : {
                        "type" : "double",
                        "defaultValue" : 0.0,
                        "interp" : "linr"
                      },
                      "opacity" : 0.0
                    },
                    "effects" : [

                    ],
                    "start" : 14717,
                    "duration" : 150,
                    "mediaStart" : 0,
                    "mediaDuration" : 1,
                    "scalar" : 1,
                    "metadata" : {
                      "WinSubProjectDisplayName" : "",
                      "clipSpeedAttribute" : false,
                      "default-scale" : "1",
                      "effectApplied" : "none"
                    },
                    "animationTracks" : {

                    }
                  }
                ],
                "transitions" : [
                  {
                    "name" : "Fade",
                    "duration" : 30,
                    "trivial" : true,
                    "reverse" : false,
                    "useAudioPreRoll" : true,
                    "useVisualPreRoll" : true,
                    "leftMedia" : 19
                  },
                  {
                    "name" : "Fade",
                    "duration" : 30,
                    "trivial" : true,
                    "reverse" : false,
                    "useAudioPreRoll" : true,
                    "useVisualPreRoll" : true,
                    "rightMedia" : 20
                  },
                  {
                    "name" : "Fade",
                    "duration" : 30,
                    "trivial" : true,
                    "reverse" : false,
                    "useAudioPreRoll" : true,
                    "useVisualPreRoll" : true,
                    "leftMedia" : 20
                  }
                ]
              },
              {
                "trackIndex" : 6,
                "medias" : [
                  {
                    "id" : 21,
                    "_type" : "IMFile",
                    "src" : 1,
                    "trackNumber" : 0,
                    "trimStartSum" : 0,
                    "attributes" : {
                      "ident" : "codestars_logo"
                    },
                    "parameters" : {
                      "translation0" : {
                        "type" : "double",
                        "defaultValue" : -263.136792317664,
                        "interp" : "linr"
                      },
                      "translation1" : {
                        "type" : "double",
                        "defaultValue" : -271.784183685799,
                        "interp" : "linr"
                      },
                      "translation2" : {
                        "type" : "double",
                        "defaultValue" : 0.0,
                        "interp" : "linr"
                      },
                      "rotation0" : {
                        "type" : "double",
                        "defaultValue" : 0.0,
                        "interp" : "linr"
                      },
                      "rotation1" : {
                        "type" : "double",
                        "defaultValue" : 0.0,
                        "interp" : "linr"
                      },
                      "rotation2" : {
                        "type" : "double",
                        "defaultValue" : 0.0,
                        "interp" : "linr"
                      },
                      "shear0" : {
                        "type" : "double",
                        "defaultValue" : 0.0,
                        "interp" : "linr"
                      },
                      "shear1" : {
                        "type" : "double",
                        "defaultValue" : 0.0,
                        "interp" : "linr"
                      },
                      "shear2" : {
                        "type" : "double",
                        "defaultValue" : 0.0,
                        "interp" : "linr"
                      },
                      "scale0" : {
                        "type" : "double",
                        "defaultValue" : 0.402192662926175,
                        "interp" : "linr"
                      },
                      "scale1" : {
                        "type" : "double",
                        "defaultValue" : 0.402192662926175,
                        "interp" : "linr"
                      },
                      "scale2" : {
                        "type" : "double",
                        "defaultValue" : 1.0,
                        "interp" : "linr"
                      },
                      "anchor0" : {
                        "type" : "double",
                        "defaultValue" : 0.0,
                        "interp" : "linr"
                      },
                      "anchor1" : {
                        "type" : "double",
                        "defaultValue" : 0.0,
                        "interp" : "linr"
                      },
                      "anchor2" : {
                        "type" : "double",
                        "defaultValue" : 0.0,
                        "interp" : "linr"
                      }
                    },
                    "effects" : [

                    ],
                    "start" : 14717,
                    "duration" : 150,
                    "mediaStart" : 0,
                    "mediaDuration" : 1,
                    "scalar" : 1,
                    "metadata" : {
                      "WinSubProjectDisplayName" : "",
                      "clipSpeedAttribute" : false,
                      "default-scale" : "1",
                      "effectApplied" : "none"
                    },
                    "animationTracks" : {

                    }
                  }
                ],
                "transitions" : [
                  {
                    "name" : "Fade",
                    "duration" : 30,
                    "trivial" : true,
                    "reverse" : false,
                    "useAudioPreRoll" : true,
                    "useVisualPreRoll" : true,
                    "rightMedia" : 21
                  },
                  {
                    "name" : "Fade",
                    "duration" : 30,
                    "trivial" : true,
                    "reverse" : false,
                    "useAudioPreRoll" : true,
                    "useVisualPreRoll" : true,
                    "leftMedia" : 21
                  }
                ]
              },
              {
                "trackIndex" : 7,
                "medias" : [
                  {
                    "id" : 22,
                    "_type" : "Callout",
                    "def" : {
                      "kind" : "TypeWinText",
                      "shape" : "",
                      "style" : "",
                      "Style" : 5.0,
                      "dimensionTime" : 0.0,
                      "height" : 180.0,
                      "line-spacing" : 0.0,
                      "textIgnoresOpacity" : 0.0,
                      "textRectHeight" : 1.0,
                      "textRectWidth" : 1.0,
                      "textRectX" : 0.0,
                      "textRectY" : 0.0,
                      "textVerticalAlign" : -1.0,
                      "width" : 320.0,
                      "filename" : "C:\\Program Files\\TechSmith\\Camtasia 9\\Media\\Studio\\Callouts\\trans_100x100.xml",
                      "horizontal-alignment" : "center",
                      "name" : "Text",
                      "resize-behavior" : "resizeText",
                      "text" : "{\\rtf1\\ansi\\ansicpg1252\\deff0\\nouicompat\\deflang1033{\\fonttbl{\\f0\\fnil\\fcharset0 Quicksand;}}\r\n{\\colortbl ;\\red255\\green255\\blue255;}\r\n{\\*\\generator Riched20 10.0.18362}\\viewkind4\\uc1 \r\n\\pard\\cf1\\f0\\fs80 The Complete\\par\r\n\\b\\fs90 Java Developer Course\\par\r\n}\r\n",
                      "vertical-alignment" : "center",
                      "xmlContent" : "ï»¿<?xml version=\"1.0\"?>\n\n<Overlay version=\"1.0.1\">\n\n<Overlay_Filename>trans_100x100.png</Overlay_Filename>\n<Overlay_Name>Text</Overlay_Name>\n<Text_Top>0</Text_Top>\n<Text_Left>0</Text_Left>\n<Text_Bottom>0</Text_Bottom>\n<Text_Right>0</Text_Right>\n<Fill_Color>0</Fill_Color>\n<Border_Color>0</Border_Color>\n<Style>5</Style>\n</Overlay>",
                      "textAttributes" : {
                        "type" : "textAttributeList",
                        "keyframes" : [
                          {
                            "endTime" : 0,
                            "time" : 0,
                            "value" : null,
                            "duration" : 0
                          }
                        ]
                      }
                    },
                    "attributes" : {
                      "autoRotateText" : true
                    },
                    "parameters" : {
                      "translation0" : -70.9521418731169,
                      "translation1" : 239.738828503294,
                      "scale0" : 3.12385809835021,
                      "scale1" : 1.00002854389906
                    },
                    "effects" : [

                    ],
                    "start" : 0,
                    "duration" : 150,
                    "mediaStart" : 0,
                    "mediaDuration" : 150,
                    "scalar" : 1,
                    "metadata" : {
                      "WinSubProjectDisplayName" : "",
                      "clipSpeedAttribute" : false,
                      "default-legacy-fill-style" : 5.0,
                      "default-legacy-text-callout-vertical-align" : "middle",
                      "default-scale0" : 1.0,
                      "default-scale1" : 1.0,
                      "default-text" : "{\\rtf1\\ansi\\ansicpg1252\\deff0\\deflang1033{\\fonttbl{\\f0\\fswiss\\fprq2\\fcharset0 Arial;}}{\\colortbl ;\\red255\\green255\\blue255;}\\viewkind4\\uc1\\pard\\qc\\cf1\\fs72 abc}",
                      "default-translation0" : 0.0,
                      "default-translation1" : 0.0
                    },
                    "animationTracks" : {

                    }
                  },
                  {
                    "id" : 23,
                    "_type" : "Callout",
                    "def" : {
                      "kind" : "TypeWinText",
                      "shape" : "",
                      "style" : "",
                      "Style" : 5.0,
                      "dimensionTime" : 0.0,
                      "height" : 180.0,
                      "line-spacing" : 0.0,
                      "textIgnoresOpacity" : 0.0,
                      "textRectHeight" : 1.0,
                      "textRectWidth" : 1.0,
                      "textRectX" : 0.0,
                      "textRectY" : 0.0,
                      "textVerticalAlign" : -1.0,
                      "width" : 320.0,
                      "filename" : "C:\\Program Files\\TechSmith\\Camtasia 9\\Media\\Studio\\Callouts\\trans_100x100.xml",
                      "horizontal-alignment" : "center",
                      "name" : "Text",
                      "resize-behavior" : "resizeText",
                      "text" : "{\\rtf1\\ansi\\ansicpg1252\\deff0\\nouicompat\\deflang1033{\\fonttbl{\\f0\\fnil\\fcharset0 Quicksand;}}\r\n{\\colortbl ;\\red255\\green255\\blue255;}\r\n{\\*\\generator Riched20 10.0.18362}\\viewkind4\\uc1 \r\n\\pard\\cf1\\f0\\fs80 The Complete\\par\r\n\\b\\fs90 Java Developer Course\\par\r\n}\r\n",
                      "vertical-alignment" : "center",
                      "xmlContent" : "ï»¿<?xml version=\"1.0\"?>\n\n<Overlay version=\"1.0.1\">\n\n<Overlay_Filename>trans_100x100.png</Overlay_Filename>\n<Overlay_Name>Text</Overlay_Name>\n<Text_Top>0</Text_Top>\n<Text_Left>0</Text_Left>\n<Text_Bottom>0</Text_Bottom>\n<Text_Right>0</Text_Right>\n<Fill_Color>0</Fill_Color>\n<Border_Color>0</Border_Color>\n<Style>5</Style>\n</Overlay>",
                      "textAttributes" : {
                        "type" : "textAttributeList",
                        "keyframes" : [
                          {
                            "endTime" : 0,
                            "time" : 0,
                            "value" : null,
                            "duration" : 0
                          }
                        ]
                      }
                    },
                    "attributes" : {
                      "autoRotateText" : true
                    },
                    "parameters" : {
                      "translation0" : -70.9521418731169,
                      "translation1" : 239.738828503294,
                      "scale0" : 3.12385809835021,
                      "scale1" : 1.00002854389906
                    },
                    "effects" : [

                    ],
                    "start" : 14717,
                    "duration" : 150,
                    "mediaStart" : 0,
                    "mediaDuration" : 150,
                    "scalar" : 1,
                    "metadata" : {
                      "WinSubProjectDisplayName" : "",
                      "clipSpeedAttribute" : false,
                      "default-legacy-fill-style" : 5.0,
                      "default-legacy-text-callout-vertical-align" : "middle",
                      "default-scale0" : 1.0,
                      "default-scale1" : 1.0,
                      "default-text" : "{\\rtf1\\ansi\\ansicpg1252\\deff0\\deflang1033{\\fonttbl{\\f0\\fswiss\\fprq2\\fcharset0 Arial;}}{\\colortbl ;\\red255\\green255\\blue255;}\\viewkind4\\uc1\\pard\\qc\\cf1\\fs72 abc}",
                      "default-translation0" : 0.0,
                      "default-translation1" : 0.0
                    },
                    "animationTracks" : {

                    }
                  }
                ],
                "transitions" : [
                  {
                    "name" : "Fade",
                    "duration" : 30,
                    "trivial" : true,
                    "reverse" : false,
                    "useAudioPreRoll" : true,
                    "useVisualPreRoll" : true,
                    "leftMedia" : 22
                  },
                  {
                    "name" : "Fade",
                    "duration" : 30,
                    "trivial" : true,
                    "reverse" : false,
                    "useAudioPreRoll" : true,
                    "useVisualPreRoll" : true,
                    "rightMedia" : 23
                  },
                  {
                    "name" : "Fade",
                    "duration" : 30,
                    "trivial" : true,
                    "reverse" : false,
                    "useAudioPreRoll" : true,
                    "useVisualPreRoll" : true,
                    "leftMedia" : 23
                  }
                ]
              },
              {
                "trackIndex" : 8,
                "medias" : [
                  {
                    "id" : 24,
                    "_type" : "IMFile",
                    "src" : 4,
                    "trackNumber" : 0,
                    "trimStartSum" : 0,
                    "attributes" : {
                      "ident" : "Head"
                    },
                    "parameters" : {
                      "translation0" : 513.825000000109,
                      "translation1" : -179.200000000031,
                      "scale0" : 0.35,
                      "scale1" : 0.35
                    },
                    "effects" : [

                    ],
                    "start" : 0,
                    "duration" : 150,
                    "mediaStart" : 0,
                    "mediaDuration" : 1,
                    "scalar" : 1,
                    "metadata" : {
                      "WinSubProjectDisplayName" : "",
                      "clipSpeedAttribute" : false,
                      "default-scale0" : 0.703125,
                      "default-scale1" : 0.703125,
                      "default-translation0" : 0.0,
                      "default-translation1" : 0.0
                    },
                    "animationTracks" : {

                    }
                  },
                  {
                    "id" : 25,
                    "_type" : "IMFile",
                    "src" : 4,
                    "trackNumber" : 0,
                    "trimStartSum" : 0,
                    "attributes" : {
                      "ident" : "Head"
                    },
                    "parameters" : {
                      "translation0" : 513.834134047442,
                      "translation1" : -180.805137901533,
                      "scale0" : 0.35,
                      "scale1" : 0.35
                    },
                    "effects" : [

                    ],
                    "start" : 14716,
                    "duration" : 150,
                    "mediaStart" : 0,
                    "mediaDuration" : 1,
                    "scalar" : 1,
                    "metadata" : {
                      "WinSubProjectDisplayName" : "",
                      "clipSpeedAttribute" : false,
                      "default-scale0" : 0.703125,
                      "default-scale1" : 0.703125,
                      "default-translation0" : 0.0,
                      "default-translation1" : 0.0
                    },
                    "animationTracks" : {

                    }
                  }
                ],
                "transitions" : [
                  {
                    "name" : "Fade",
                    "duration" : 30,
                    "trivial" : false,
                    "reverse" : false,
                    "useAudioPreRoll" : true,
                    "useVisualPreRoll" : true,
                    "leftMedia" : 24
                  },
                  {
                    "name" : "Fade",
                    "duration" : 30,
                    "trivial" : false,
                    "reverse" : false,
                    "useAudioPreRoll" : true,
                    "useVisualPreRoll" : true,
                    "rightMedia" : 25
                  },
                  {
                    "name" : "Fade",
                    "duration" : 30,
                    "trivial" : false,
                    "reverse" : false,
                    "useAudioPreRoll" : true,
                    "useVisualPreRoll" : true,
                    "leftMedia" : 25
                  }
                ]
              },
              {
                "trackIndex" : 9,
                "medias" : [
                  {
                    "id" : 26,
                    "_type" : "IMFile",
                    "src" : 5,
                    "trackNumber" : 0,
                    "trimStartSum" : 0,
                    "attributes" : {
                      "ident" : "Slide1"
                    },
                    "effects" : [

                    ],
                    "start" : 150,
                    "duration" : 106,
                    "mediaStart" : 0,
                    "mediaDuration" : 1,
                    "scalar" : 1,
                    "metadata" : {
                      "clipSpeedAttribute" : false
                    },
                    "animationTracks" : {

                    }
                  },
                  {
                    "id" : 27,
                    "_type" : "IMFile",
                    "src" : 6,
                    "trackNumber" : 0,
                    "trimStartSum" : 0,
                    "attributes" : {
                      "ident" : "Slide2"
                    },
                    "effects" : [

                    ],
                    "start" : 256,
                    "duration" : 2670,
                    "mediaStart" : 0,
                    "mediaDuration" : 1,
                    "scalar" : 1,
                    "metadata" : {
                      "clipSpeedAttribute" : false
                    },
                    "animationTracks" : {

                    }
                  },
                  {
                    "id" : 28,
                    "_type" : "IMFile",
                    "src" : 6,
                    "trackNumber" : 0,
                    "trimStartSum" : 2670,
                    "attributes" : {
                      "ident" : "Slide2"
                    },
                    "effects" : [

                    ],
                    "start" : 4328,
                    "duration" : 203,
                    "mediaStart" : 0,
                    "mediaDuration" : 1,
                    "scalar" : 1,
                    "metadata" : {
                      "clipSpeedAttribute" : false
                    },
                    "animationTracks" : {

                    }
                  },
                  {
                    "id" : 29,
                    "_type" : "IMFile",
                    "src" : 6,
                    "trackNumber" : 0,
                    "trimStartSum" : 3059,
                    "attributes" : {
                      "ident" : "Slide2"
                    },
                    "effects" : [

                    ],
                    "start" : 4531,
                    "duration" : 452,
                    "mediaStart" : 0,
                    "mediaDuration" : 1,
                    "scalar" : 1,
                    "metadata" : {
                      "clipSpeedAttribute" : false
                    },
                    "animationTracks" : {

                    }
                  },
                  {
                    "id" : 30,
                    "_type" : "StitchedMedia",
                    "minMediaStart" : 0,
                    "attributes" : {
                      "ident" : "Rec 10-04-20_006",
                      "gain" : 1.0,
                      "mixToMono" : false
                    },
                    "parameters" : {
                      "translation0" : {
                        "type" : "double",
                        "defaultValue" : 0.0,
                        "keyframes" : [
                          {
                            "endTime" : 4674,
                            "time" : 4644,
                            "value" : 359.057097830429,
                            "duration" : 30
                          }
                        ]
                      },
                      "translation1" : {
                        "type" : "double",
                        "defaultValue" : 0.0,
                        "keyframes" : [
                          {
                            "endTime" : 4674,
                            "time" : 4644,
                            "value" : -201.969633744432,
                            "duration" : 30
                          }
                        ]
                      },
                      "scale0" : {
                        "type" : "double",
                        "defaultValue" : 0.666666666666667,
                        "keyframes" : [
                          {
                            "endTime" : 4674,
                            "time" : 4644,
                            "value" : 1.04068441829078,
                            "duration" : 30
                          }
                        ]
                      },
                      "scale1" : {
                        "type" : "double",
                        "defaultValue" : 0.666666666666667,
                        "keyframes" : [
                          {
                            "endTime" : 4674,
                            "time" : 4644,
                            "value" : 1.04068456022133,
                            "duration" : 30
                          }
                        ]
                      },
                      "volume" : 1.0,
                      "cursorOpacity" : 1.0,
                      "cursorScale" : 1.0
                    },
                    "medias" : [
                        {
                          "id" : 31,
                          "_type" : "UnifiedMedia",
                          "video" : 
                              {
                                "id" : 32,
                                "_type" : "ScreenVMFile",
                                "src" : 7,
                                "trackNumber" : 0,
                                "attributes" : {
                                  "ident" : "Rec 10-04-20_006"
                                },
                                "parameters" : {
                                  "cursorScale" : {
                                    "type" : "double",
                                    "defaultValue" : 0.0,
                                    "interp" : "linr"
                                  },
                                  "cursorOpacity" : {
                                    "type" : "double",
                                    "defaultValue" : 0.0,
                                    "interp" : "linr"
                                  }
                                },
                                "effects" : [

                                ],
                                "start" : 0,
                                "duration" : 8686,
                                "mediaStart" : 0,
                                "mediaDuration" : 8686,
                                "scalar" : 1,
                                "animationTracks" : {

                                }
                              },
                          "audio" : 
                              {
                                "id" : 33,
                                "_type" : "AMFile",
                                "src" : 7,
                                "trackNumber" : 2,
                                "attributes" : {
                                  "ident" : "",
                                  "gain" : 1.0,
                                  "mixToMono" : false
                                },
                                  "channelNumber" : "0,1",
                                "effects" : [

                                ],
                                "start" : 0,
                                "duration" : 8686,
                                "mediaStart" : 0,
                                "mediaDuration" : 8686,
                                "scalar" : 1,
                                "animationTracks" : {

                                }
                              }
,
                          "start" : 0,
                          "duration" : 8686,
                          "mediaStart" : 0,
                          "mediaDuration" : 9153,
                          "scalar" : 1,
                          "metadata" : {
                            "AutoAppliedSmartFocus" : "False",
                            "clipSpeedAttribute" : false
                          }
                        },
                        {
                          "id" : 34,
                          "_type" : "UnifiedMedia",
                          "video" : 
                              {
                                "id" : 35,
                                "_type" : "ScreenVMFile",
                                "src" : 7,
                                "trackNumber" : 0,
                                "attributes" : {
                                  "ident" : "Rec 10-04-20_006"
                                },
                                "parameters" : {
                                  "cursorScale" : {
                                    "type" : "double",
                                    "defaultValue" : 0.0,
                                    "interp" : "linr"
                                  },
                                  "cursorOpacity" : {
                                    "type" : "double",
                                    "defaultValue" : 0.0,
                                    "interp" : "linr"
                                  }
                                },
                                "effects" : [

                                ],
                                "start" : 8686,
                                "duration" : 35,
                                "mediaStart" : 8725,
                                "mediaDuration" : 35,
                                "scalar" : 1,
                                "animationTracks" : {

                                }
                              },
                          "audio" : 
                              {
                                "id" : 36,
                                "_type" : "AMFile",
                                "src" : 7,
                                "trackNumber" : 2,
                                "attributes" : {
                                  "ident" : "",
                                  "gain" : 1.0,
                                  "mixToMono" : false
                                },
                                  "channelNumber" : "0,1",
                                "effects" : [

                                ],
                                "start" : 8686,
                                "duration" : 35,
                                "mediaStart" : 8725,
                                "mediaDuration" : 35,
                                "scalar" : 1,
                                "animationTracks" : {

                                }
                              }
,
                          "start" : 8686,
                          "duration" : 35,
                          "mediaStart" : 0,
                          "mediaDuration" : 9153,
                          "scalar" : 1,
                          "metadata" : {
                            "AutoAppliedSmartFocus" : "False",
                            "clipSpeedAttribute" : false
                          }
                        },
                        {
                          "id" : 37,
                          "_type" : "UnifiedMedia",
                          "video" : 
                              {
                                "id" : 38,
                                "_type" : "ScreenVMFile",
                                "src" : 7,
                                "trackNumber" : 0,
                                "attributes" : {
                                  "ident" : "Rec 10-04-20_006"
                                },
                                "parameters" : {
                                  "cursorScale" : {
                                    "type" : "double",
                                    "defaultValue" : 0.0,
                                    "interp" : "linr"
                                  },
                                  "cursorOpacity" : {
                                    "type" : "double",
                                    "defaultValue" : 0.0,
                                    "interp" : "linr"
                                  }
                                },
                                "effects" : [

                                ],
                                "start" : 8721,
                                "duration" : 169,
                                "mediaStart" : 8783,
                                "mediaDuration" : 169,
                                "scalar" : 1,
                                "animationTracks" : {

                                }
                              },
                          "audio" : 
                              {
                                "id" : 39,
                                "_type" : "AMFile",
                                "src" : 7,
                                "trackNumber" : 2,
                                "attributes" : {
                                  "ident" : "",
                                  "gain" : 1.0,
                                  "mixToMono" : false
                                },
                                  "channelNumber" : "0,1",
                                "effects" : [

                                ],
                                "start" : 8721,
                                "duration" : 169,
                                "mediaStart" : 8783,
                                "mediaDuration" : 169,
                                "scalar" : 1,
                                "animationTracks" : {

                                }
                              }
,
                          "start" : 8721,
                          "duration" : 169,
                          "mediaStart" : 0,
                          "mediaDuration" : 9153,
                          "scalar" : 1,
                          "metadata" : {
                            "AutoAppliedSmartFocus" : "False",
                            "clipSpeedAttribute" : false
                          }
                        },
                        {
                          "id" : 40,
                          "_type" : "UnifiedMedia",
                          "video" : 
                              {
                                "id" : 41,
                                "_type" : "ScreenVMFile",
                                "src" : 7,
                                "trackNumber" : 0,
                                "attributes" : {
                                  "ident" : "Rec 10-04-20_006"
                                },
                                "parameters" : {
                                  "cursorScale" : {
                                    "type" : "double",
                                    "defaultValue" : 0.0,
                                    "interp" : "linr"
                                  },
                                  "cursorOpacity" : {
                                    "type" : "double",
                                    "defaultValue" : 0.0,
                                    "interp" : "linr"
                                  }
                                },
                                "effects" : [

                                ],
                                "start" : 8890,
                                "duration" : 2,
                                "mediaStart" : 9151,
                                "mediaDuration" : 2,
                                "scalar" : 1,
                                "animationTracks" : {

                                }
                              },
                          "audio" : 
                              {
                                "id" : 42,
                                "_type" : "AMFile",
                                "src" : 7,
                                "trackNumber" : 2,
                                "attributes" : {
                                  "ident" : "",
                                  "gain" : 1.0,
                                  "mixToMono" : false
                                },
                                  "channelNumber" : "0,1",
                                "effects" : [

                                ],
                                "start" : 8890,
                                "duration" : 2,
                                "mediaStart" : 9151,
                                "mediaDuration" : 2,
                                "scalar" : 1,
                                "animationTracks" : {

                                }
                              }
,
                          "start" : 8890,
                          "duration" : 2,
                          "mediaStart" : 0,
                          "mediaDuration" : 9153,
                          "scalar" : 1,
                          "metadata" : {
                            "AutoAppliedSmartFocus" : "False",
                            "clipSpeedAttribute" : false
                          }
                        }
                    ],
                    "effects" : [

                    ],
                    "start" : 4983,
                    "duration" : 4275,
                    "mediaStart" : 4596,
                    "mediaDuration" : 4275,
                    "scalar" : 1,
                    "metadata" : {
                      "AutoAppliedSmartFocus" : "False",
                      "clipSpeedAttribute" : false
                    },
                    "animationTracks" : {
                      "visual" : [
                        {
                          "endTime" : 4674,
                          "duration" : 30,
                          "range" : [ 4644, 30]
                        }
                      ]
                    }
                  },
                  {
                    "id" : 43,
                    "_type" : "StitchedMedia",
                    "minMediaStart" : 0,
                    "attributes" : {
                      "ident" : "Rec 10-04-20_007",
                      "gain" : 1.0,
                      "mixToMono" : false
                    },
                    "parameters" : {
                      "translation0" : {
                        "type" : "double",
                        "defaultValue" : 0.0,
                        "keyframes" : [
                          {
                            "endTime" : 0,
                            "time" : -30,
                            "value" : 358.399908210326,
                            "duration" : 30
                          },
                          {
                            "endTime" : 2970,
                            "time" : 2940,
                            "value" : 202.167930665976,
                            "duration" : 30
                          }
                        ]
                      },
                      "translation1" : {
                        "type" : "double",
                        "defaultValue" : 0.0,
                        "keyframes" : [
                          {
                            "endTime" : 0,
                            "time" : -30,
                            "value" : -201.60004227156,
                            "duration" : 30
                          },
                          {
                            "endTime" : 2970,
                            "time" : 2940,
                            "value" : -113.719571694623,
                            "duration" : 30
                          }
                        ]
                      },
                      "scale0" : {
                        "type" : "double",
                        "defaultValue" : 1.0,
                        "keyframes" : [
                          {
                            "endTime" : 0,
                            "time" : -30,
                            "value" : 1.03999992297077,
                            "duration" : 30
                          },
                          {
                            "endTime" : 2970,
                            "time" : 2940,
                            "value" : 0.877258294058587,
                            "duration" : 30
                          }
                        ]
                      },
                      "scale1" : {
                        "type" : "double",
                        "defaultValue" : 1.0,
                        "keyframes" : [
                          {
                            "endTime" : 0,
                            "time" : -30,
                            "value" : 1.04000007561806,
                            "duration" : 30
                          },
                          {
                            "endTime" : 2970,
                            "time" : 2940,
                            "value" : 0.87725846160924,
                            "duration" : 30
                          }
                        ]
                      },
                      "volume" : 1.0,
                      "cursorOpacity" : 1.0,
                      "cursorScale" : 1.0
                    },
                    "medias" : [
                        {
                          "id" : 44,
                          "_type" : "UnifiedMedia",
                          "video" : 
                              {
                                "id" : 45,
                                "_type" : "ScreenVMFile",
                                "src" : 8,
                                "trackNumber" : 0,
                                "attributes" : {
                                  "ident" : "Rec 10-04-20_007"
                                },
                                "parameters" : {
                                  "cursorScale" : {
                                    "type" : "double",
                                    "defaultValue" : 1.0,
                                    "interp" : "linr"
                                  },
                                  "cursorOpacity" : {
                                    "type" : "double",
                                    "defaultValue" : 1.0,
                                    "interp" : "linr"
                                  }
                                },
                                "effects" : [

                                ],
                                "start" : 0,
                                "duration" : 2494,
                                "mediaStart" : 0,
                                "mediaDuration" : 2494,
                                "scalar" : 1,
                                "animationTracks" : {

                                }
                              },
                          "audio" : 
                              {
                                "id" : 46,
                                "_type" : "AMFile",
                                "src" : 8,
                                "trackNumber" : 2,
                                "attributes" : {
                                  "ident" : "",
                                  "gain" : 1.0,
                                  "mixToMono" : false
                                },
                                  "channelNumber" : "0,1",
                                "effects" : [

                                ],
                                "start" : 0,
                                "duration" : 2494,
                                "mediaStart" : 0,
                                "mediaDuration" : 2494,
                                "scalar" : 1,
                                "animationTracks" : {

                                }
                              }
,
                          "start" : 0,
                          "duration" : 2494,
                          "mediaStart" : 0,
                          "mediaDuration" : 5985,
                          "scalar" : 1,
                          "metadata" : {
                            "AutoAppliedSmartFocus" : "False",
                            "clipSpeedAttribute" : false,
                            "default-scale0" : 0.666666666666667,
                            "default-scale1" : 0.666666666666667,
                            "default-translation0" : 0.0,
                            "default-translation1" : 0.0
                          }
                        },
                        {
                          "id" : 47,
                          "_type" : "UnifiedMedia",
                          "video" : 
                              {
                                "id" : 48,
                                "_type" : "ScreenVMFile",
                                "src" : 8,
                                "trackNumber" : 0,
                                "attributes" : {
                                  "ident" : "Rec 10-04-20_007"
                                },
                                "parameters" : {
                                  "cursorScale" : {
                                    "type" : "double",
                                    "defaultValue" : 1.0,
                                    "interp" : "linr"
                                  },
                                  "cursorOpacity" : {
                                    "type" : "double",
                                    "defaultValue" : 1.0,
                                    "interp" : "linr"
                                  }
                                },
                                "effects" : [

                                ],
                                "start" : 2494,
                                "duration" : 2964,
                                "mediaStart" : 3021,
                                "mediaDuration" : 2964,
                                "scalar" : 1,
                                "animationTracks" : {

                                }
                              },
                          "audio" : 
                              {
                                "id" : 49,
                                "_type" : "AMFile",
                                "src" : 8,
                                "trackNumber" : 2,
                                "attributes" : {
                                  "ident" : "",
                                  "gain" : 1.0,
                                  "mixToMono" : false
                                },
                                  "channelNumber" : "0,1",
                                "effects" : [

                                ],
                                "start" : 2494,
                                "duration" : 2964,
                                "mediaStart" : 3021,
                                "mediaDuration" : 2964,
                                "scalar" : 1,
                                "animationTracks" : {

                                }
                              }
,
                          "start" : 2494,
                          "duration" : 2964,
                          "mediaStart" : 0,
                          "mediaDuration" : 5985,
                          "scalar" : 1,
                          "metadata" : {
                            "AutoAppliedSmartFocus" : "False",
                            "clipSpeedAttribute" : false,
                            "default-scale0" : 0.666666666666667,
                            "default-scale1" : 0.666666666666667,
                            "default-translation0" : 0.0,
                            "default-translation1" : 0.0
                          }
                        }
                    ],
                    "effects" : [

                    ],
                    "start" : 9258,
                    "duration" : 5458,
                    "mediaStart" : 0,
                    "mediaDuration" : 5458,
                    "scalar" : 1,
                    "metadata" : {
                      "AutoAppliedSmartFocus" : "False",
                      "clipSpeedAttribute" : false,
                      "default-scale0" : 1.03999992297077,
                      "default-scale1" : 1.04000007561806,
                      "default-translation0" : 358.399908210326,
                      "default-translation1" : -201.60004227156
                    },
                    "animationTracks" : {
                      "visual" : [
                        {
                          "endTime" : 0,
                          "duration" : 30,
                          "range" : [ -30, 30]
                        },
                        {
                          "endTime" : 2970,
                          "duration" : 30,
                          "range" : [ 2940, 30]
                        }
                      ]
                    }
                  }
                ],
                "transitions" : [
                  {
                    "name" : "Fade",
                    "duration" : 30,
                    "trivial" : false,
                    "reverse" : false,
                    "useAudioPreRoll" : true,
                    "useVisualPreRoll" : true,
                    "rightMedia" : 26
                  },
                  {
                    "name" : "Fade",
                    "duration" : 30,
                    "trivial" : false,
                    "reverse" : false,
                    "useAudioPreRoll" : true,
                    "useVisualPreRoll" : true,
                    "leftMedia" : 26,
                    "rightMedia" : 27
                  },
                  {
                    "name" : "Fade",
                    "duration" : 30,
                    "trivial" : false,
                    "reverse" : false,
                    "useAudioPreRoll" : true,
                    "useVisualPreRoll" : true,
                    "leftMedia" : 27
                  },
                  {
                    "name" : "Fade",
                    "duration" : 30,
                    "trivial" : false,
                    "reverse" : false,
                    "useAudioPreRoll" : true,
                    "useVisualPreRoll" : true,
                    "rightMedia" : 28
                  },
                  {
                    "name" : "Fade",
                    "duration" : 30,
                    "trivial" : false,
                    "reverse" : false,
                    "useAudioPreRoll" : true,
                    "useVisualPreRoll" : true,
                    "leftMedia" : 29,
                    "rightMedia" : 30
                  },
                  {
                    "name" : "Fade",
                    "duration" : 30,
                    "trivial" : false,
                    "reverse" : false,
                    "useAudioPreRoll" : true,
                    "useVisualPreRoll" : true,
                    "leftMedia" : 43
                  }
                ]
              },
              {
                "trackIndex" : 10,
                "medias" : [
                  {
                    "id" : 50,
                    "_type" : "StitchedMedia",
                    "minMediaStart" : 0,
                    "attributes" : {
                      "ident" : "s4-lec6-proj4-2-working-arralists-fixed",
                      "gain" : 1.0,
                      "mixToMono" : false
                    },
                    "parameters" : {
                      "volume" : {
                        "type" : "double",
                        "keyframes" : [
                          {
                            "endTime" : 0,
                            "time" : 0,
                            "value" : 1.0,
                            "duration" : 0
                          },
                          {
                            "endTime" : 3913,
                            "time" : 3913,
                            "value" : 1.0,
                            "duration" : 0
                          },
                          {
                            "endTime" : 3914,
                            "time" : 3914,
                            "value" : 0.0,
                            "duration" : 0
                          },
                          {
                            "endTime" : 4077,
                            "time" : 4077,
                            "value" : 0.0,
                            "duration" : 0
                          },
                          {
                            "endTime" : 4078,
                            "time" : 4078,
                            "value" : 1.0,
                            "duration" : 0
                          }
                        ]
                      },
                      "cursorOpacity" : 1.0,
                      "cursorScale" : 1.0
                    },
                    "medias" : [
                        {
                          "id" : 51,
                          "_type" : "AMFile",
                          "src" : 9,
                          "trackNumber" : 0,
                          "attributes" : {
                            "ident" : "s4-lec6-proj4-2-working-arralists-fixed",
                            "gain" : 1.0,
                            "mixToMono" : false
                          },
                            "channelNumber" : "0,1",
                          "effects" : [

                          ],
                          "start" : 0,
                          "duration" : 3958,
                          "mediaStart" : 0,
                          "mediaDuration" : 3958,
                          "scalar" : 1,
                          "metadata" : {
                            "clipSpeedAttribute" : false
                          },
                          "animationTracks" : {

                          }
                        },
                        {
                          "id" : 52,
                          "_type" : "AMFile",
                          "src" : 9,
                          "trackNumber" : 0,
                          "attributes" : {
                            "ident" : "s4-lec6-proj4-2-working-arralists-fixed",
                            "gain" : 1.0,
                            "mixToMono" : false
                          },
                            "channelNumber" : "0,1",
                          "effects" : [

                          ],
                          "start" : 3958,
                          "duration" : 4542,
                          "mediaStart" : 4144,
                          "mediaDuration" : 4542,
                          "scalar" : 1,
                          "metadata" : {
                            "clipSpeedAttribute" : false
                          },
                          "animationTracks" : {

                          }
                        },
                        {
                          "id" : 53,
                          "_type" : "AMFile",
                          "src" : 9,
                          "trackNumber" : 0,
                          "attributes" : {
                            "ident" : "s4-lec6-proj4-2-working-arralists-fixed",
                            "gain" : 1.0,
                            "mixToMono" : false
                          },
                            "channelNumber" : "0,1",
                          "effects" : [

                          ],
                          "start" : 8500,
                          "duration" : 2679,
                          "mediaStart" : 8725,
                          "mediaDuration" : 2679,
                          "scalar" : 1,
                          "metadata" : {
                            "clipSpeedAttribute" : false
                          },
                          "animationTracks" : {

                          }
                        },
                        {
                          "id" : 54,
                          "_type" : "AMFile",
                          "src" : 9,
                          "trackNumber" : 0,
                          "attributes" : {
                            "ident" : "s4-lec6-proj4-2-working-arralists-fixed",
                            "gain" : 1.0,
                            "mixToMono" : false
                          },
                            "channelNumber" : "0,1",
                          "effects" : [

                          ],
                          "start" : 11179,
                          "duration" : 2964,
                          "mediaStart" : 11931,
                          "mediaDuration" : 2964,
                          "scalar" : 1,
                          "metadata" : {
                            "clipSpeedAttribute" : false
                          },
                          "animationTracks" : {

                          }
                        }
                    ],
                    "effects" : [

                    ],
                    "start" : 0,
                    "duration" : 2926,
                    "mediaStart" : 829,
                    "mediaDuration" : 2926,
                    "scalar" : 1,
                    "metadata" : {
                      "clipSpeedAttribute" : false
                    },
                    "animationTracks" : {

                    }
                  },
                  {
                    "id" : 55,
                    "_type" : "StitchedMedia",
                    "minMediaStart" : 0,
                    "attributes" : {
                      "ident" : "s4-lec6-proj4-2-working-arralists-fixed",
                      "gain" : 1.0,
                      "mixToMono" : false
                    },
                    "parameters" : {
                      "volume" : {
                        "type" : "double",
                        "keyframes" : [
                          {
                            "endTime" : 0,
                            "time" : 0,
                            "value" : 1.0,
                            "duration" : 0
                          },
                          {
                            "endTime" : 3913,
                            "time" : 3913,
                            "value" : 1.0,
                            "duration" : 0
                          },
                          {
                            "endTime" : 3914,
                            "time" : 3914,
                            "value" : 0.0,
                            "duration" : 0
                          },
                          {
                            "endTime" : 4077,
                            "time" : 4077,
                            "value" : 0.0,
                            "duration" : 0
                          },
                          {
                            "endTime" : 4078,
                            "time" : 4078,
                            "value" : 1.0,
                            "duration" : 0
                          }
                        ]
                      },
                      "cursorOpacity" : {
                        "type" : "double",
                        "defaultValue" : 1.0,
                        "interp" : "linr"
                      },
                      "cursorScale" : {
                        "type" : "double",
                        "defaultValue" : 1.0,
                        "interp" : "linr"
                      }
                    },
                    "medias" : [
                        {
                          "id" : 56,
                          "_type" : "AMFile",
                          "src" : 9,
                          "trackNumber" : 0,
                          "attributes" : {
                            "ident" : "s4-lec6-proj4-2-working-arralists-fixed",
                            "gain" : 1.0,
                            "mixToMono" : false
                          },
                            "channelNumber" : "0,1",
                          "effects" : [

                          ],
                          "start" : 0,
                          "duration" : 3958,
                          "mediaStart" : 0,
                          "mediaDuration" : 3958,
                          "scalar" : 1,
                          "metadata" : {
                            "clipSpeedAttribute" : false
                          },
                          "animationTracks" : {

                          }
                        },
                        {
                          "id" : 57,
                          "_type" : "AMFile",
                          "src" : 9,
                          "trackNumber" : 0,
                          "attributes" : {
                            "ident" : "s4-lec6-proj4-2-working-arralists-fixed",
                            "gain" : 1.0,
                            "mixToMono" : false
                          },
                            "channelNumber" : "0,1",
                          "effects" : [

                          ],
                          "start" : 3958,
                          "duration" : 4542,
                          "mediaStart" : 4144,
                          "mediaDuration" : 4542,
                          "scalar" : 1,
                          "metadata" : {
                            "clipSpeedAttribute" : false
                          },
                          "animationTracks" : {

                          }
                        },
                        {
                          "id" : 58,
                          "_type" : "AMFile",
                          "src" : 9,
                          "trackNumber" : 0,
                          "attributes" : {
                            "ident" : "s4-lec6-proj4-2-working-arralists-fixed",
                            "gain" : 1.0,
                            "mixToMono" : false
                          },
                            "channelNumber" : "0,1",
                          "effects" : [

                          ],
                          "start" : 8500,
                          "duration" : 2679,
                          "mediaStart" : 8725,
                          "mediaDuration" : 2679,
                          "scalar" : 1,
                          "metadata" : {
                            "clipSpeedAttribute" : false
                          },
                          "animationTracks" : {

                          }
                        },
                        {
                          "id" : 59,
                          "_type" : "AMFile",
                          "src" : 9,
                          "trackNumber" : 0,
                          "attributes" : {
                            "ident" : "s4-lec6-proj4-2-working-arralists-fixed",
                            "gain" : 1.0,
                            "mixToMono" : false
                          },
                            "channelNumber" : "0,1",
                          "effects" : [

                          ],
                          "start" : 11179,
                          "duration" : 2964,
                          "mediaStart" : 11931,
                          "mediaDuration" : 2964,
                          "scalar" : 1,
                          "metadata" : {
                            "clipSpeedAttribute" : false
                          },
                          "animationTracks" : {

                          }
                        }
                    ],
                    "effects" : [

                    ],
                    "start" : 4328,
                    "duration" : 10388,
                    "mediaStart" : 3755,
                    "mediaDuration" : 10388,
                    "scalar" : 1,
                    "metadata" : {
                      "clipSpeedAttribute" : false
                    },
                    "animationTracks" : {

                    }
                  }
                ]
              },
              {
                "trackIndex" : 11,
                "medias" : [
                  {
                    "id" : 60,
                    "_type" : "UnifiedMedia",
                    "video" : 
                        {
                          "id" : 61,
                          "_type" : "ScreenVMFile",
                          "src" : 10,
                          "trackNumber" : 0,
                          "attributes" : {
                            "ident" : "Rec 10-04-20_008"
                          },
                          "parameters" : {
                            "translation0" : {
                              "type" : "double",
                              "defaultValue" : 0.0,
                              "interp" : "eioe",
                              "keyframes" : [
                                {
                                  "endTime" : 499,
                                  "time" : 469,
                                  "value" : 242.554403210736,
                                  "duration" : 30
                                }
                              ]
                            },
                            "translation1" : {
                              "type" : "double",
                              "defaultValue" : 0.0,
                              "interp" : "eioe",
                              "keyframes" : [
                                {
                                  "endTime" : 499,
                                  "time" : 469,
                                  "value" : -136.43684443249,
                                  "duration" : 30
                                }
                              ]
                            },
                            "scale0" : {
                              "type" : "double",
                              "defaultValue" : 0.666666666666667,
                              "interp" : "eioe",
                              "keyframes" : [
                                {
                                  "endTime" : 499,
                                  "time" : 469,
                                  "value" : 0.91932745156396,
                                  "duration" : 30
                                }
                              ]
                            },
                            "scale1" : {
                              "type" : "double",
                              "defaultValue" : 0.666666666666667,
                              "interp" : "eioe",
                              "keyframes" : [
                                {
                                  "endTime" : 499,
                                  "time" : 469,
                                  "value" : 0.919327536763034,
                                  "duration" : 30
                                }
                              ]
                            },
                            "cursorScale" : {
                              "type" : "double",
                              "defaultValue" : 1.0,
                              "interp" : "linr"
                            },
                            "cursorOpacity" : {
                              "type" : "double",
                              "defaultValue" : 1.0,
                              "interp" : "linr"
                            }
                          },
                          "effects" : [

                          ],
                          "start" : 2926,
                          "duration" : 1402,
                          "mediaStart" : 446,
                          "mediaDuration" : 1402,
                          "scalar" : 1,
                          "animationTracks" : {
                            "visual" : [
                              {
                                "endTime" : 499,
                                "duration" : 30,
                                "range" : [ 469, 30]
                              }
                            ]
                          }
                        },
                    "audio" : 
                        {
                          "id" : 62,
                          "_type" : "AMFile",
                          "src" : 10,
                          "trackNumber" : 2,
                          "attributes" : {
                            "ident" : "",
                            "gain" : 1.0,
                            "mixToMono" : false
                          },
                            "channelNumber" : "0,1",
                          "effects" : [

                          ],
                          "start" : 2926,
                          "duration" : 1402,
                          "mediaStart" : 446,
                          "mediaDuration" : 1402,
                          "scalar" : 1,
                          "animationTracks" : {

                          }
                        }
,
                    "start" : 2926,
                    "duration" : 1402,
                    "mediaStart" : 0,
                    "mediaDuration" : 1848,
                    "scalar" : 1,
                    "metadata" : {
                      "AutoAppliedSmartFocus" : "False",
                      "clipSpeedAttribute" : false,
                      "default-scale0" : 0.666666666666667,
                      "default-scale1" : 0.666666666666667,
                      "default-translation0" : 0.0,
                      "default-translation1" : 0.0
                    }
                  }
                ],
                "transitions" : [
                  {
                    "name" : "Fade",
                    "duration" : 30,
                    "trivial" : false,
                    "reverse" : false,
                    "useAudioPreRoll" : true,
                    "useVisualPreRoll" : true,
                    "rightMedia" : 60
                  },
                  {
                    "name" : "Fade",
                    "duration" : 30,
                    "trivial" : false,
                    "reverse" : false,
                    "useAudioPreRoll" : true,
                    "useVisualPreRoll" : true,
                    "leftMedia" : 60
                  }
                ]
              },
              {
                "trackIndex" : 12,
                "medias" : [
                  {
                    "id" : 63,
                    "_type" : "AMFile",
                    "src" : 11,
                    "trackNumber" : 0,
                    "attributes" : {
                      "ident" : "s4-lec6-proj4-2-demo-fixed",
                      "gain" : 1.0,
                      "mixToMono" : false
                    },
                      "channelNumber" : "0,1",
                    "parameters" : {
                      "volume" : 1.3302752293578
                    },
                    "effects" : [

                    ],
                    "start" : 2926,
                    "duration" : 1402,
                    "mediaStart" : 443,
                    "mediaDuration" : 1402,
                    "scalar" : 1,
                    "metadata" : {
                      "clipSpeedAttribute" : false
                    },
                    "animationTracks" : {

                    }
                  }
                ]
              },
              {
                "trackIndex" : 13,
                "medias" : [
                ]
              },
              {
                "trackIndex" : 14,
                "medias" : [
                ]
              },
              {
                "trackIndex" : 15,
                "medias" : [
                ]
              }
            ]
          }
        }
      ]
    },
    "trackAttributes" : [
      {
        "ident" : "",
        "audioMuted" : false,
        "videoHidden" : false,
        "magnetic" : false,
        "matte" : 0,
        "metadata" : {
          "IsLocked" : "False",
          "WinTrackHeight" : "108.923076923077",
          "trackHeight" : "40"
        }
      },
      {
        "ident" : "",
        "audioMuted" : false,
        "videoHidden" : false,
        "magnetic" : false,
        "matte" : 0,
        "metadata" : {
          "IsLocked" : "False",
          "WinTrackHeight" : "108.923076923077",
          "trackHeight" : "150"
        }
      },
      {
        "ident" : "",
        "audioMuted" : false,
        "videoHidden" : false,
        "magnetic" : false,
        "matte" : 0,
        "metadata" : {
          "IsLocked" : "False",
          "WinTrackHeight" : "108.923076923077",
          "trackHeight" : "150"
        }
      },
      {
        "ident" : "",
        "audioMuted" : false,
        "videoHidden" : false,
        "magnetic" : false,
        "matte" : 0,
        "metadata" : {
          "IsLocked" : "False",
          "WinTrackHeight" : "108.923076923077",
          "trackHeight" : "102"
        }
      },
      {
        "ident" : "",
        "audioMuted" : false,
        "videoHidden" : false,
        "magnetic" : false,
        "matte" : 0,
        "metadata" : {
          "IsLocked" : "False",
          "WinTrackHeight" : "108.923076923077",
          "trackHeight" : "54"
        }
      },
      {
        "ident" : "",
        "audioMuted" : false,
        "videoHidden" : false,
        "magnetic" : false,
        "matte" : 0,
        "metadata" : {
          "IsLocked" : "False",
          "WinTrackHeight" : "108.923076923077",
          "trackHeight" : "86"
        }
      },
      {
        "ident" : "",
        "audioMuted" : false,
        "videoHidden" : false,
        "magnetic" : false,
        "matte" : 0,
        "metadata" : {
          "IsLocked" : "False",
          "WinTrackHeight" : "108.923076923077",
          "trackHeight" : "86"
        }
      },
      {
        "ident" : "",
        "audioMuted" : false,
        "videoHidden" : false,
        "magnetic" : false,
        "matte" : 0,
        "metadata" : {
          "IsLocked" : "False",
          "WinTrackHeight" : "108.923076923077"
        }
      },
      {
        "ident" : "",
        "audioMuted" : false,
        "videoHidden" : false,
        "magnetic" : false,
        "matte" : 0,
        "metadata" : {
          "IsLocked" : "False",
          "WinTrackHeight" : "108.923076923077"
        }
      },
      {
        "ident" : "",
        "audioMuted" : false,
        "videoHidden" : false,
        "magnetic" : false,
        "matte" : 0,
        "metadata" : {
          "IsLocked" : "False",
          "WinTrackHeight" : "108.923076923077"
        }
      },
      {
        "ident" : "",
        "audioMuted" : false,
        "videoHidden" : false,
        "magnetic" : false,
        "matte" : 0,
        "metadata" : {
          "IsLocked" : "False",
          "WinTrackHeight" : "108.923076923077"
        }
      },
      {
        "ident" : "",
        "audioMuted" : false,
        "videoHidden" : false,
        "magnetic" : false,
        "matte" : 0,
        "metadata" : {
          "IsLocked" : "False",
          "WinTrackHeight" : "108.923076923077"
        }
      },
      {
        "ident" : "",
        "audioMuted" : false,
        "videoHidden" : false,
        "magnetic" : false,
        "matte" : 0,
        "metadata" : {
          "IsLocked" : "False",
          "WinTrackHeight" : "108.923076923077"
        }
      },
      {
        "ident" : "",
        "audioMuted" : false,
        "videoHidden" : false,
        "magnetic" : false,
        "matte" : 0,
        "metadata" : {
          "IsLocked" : "False",
          "WinTrackHeight" : "108.923076923077"
        }
      },
      {
        "ident" : "",
        "audioMuted" : false,
        "videoHidden" : false,
        "magnetic" : false,
        "matte" : 0,
        "metadata" : {
          "IsLocked" : "False",
          "WinTrackHeight" : "108.923076923077"
        }
      },
      {
        "ident" : "",
        "audioMuted" : false,
        "videoHidden" : false,
        "magnetic" : false,
        "matte" : 0,
        "metadata" : {
          "IsLocked" : "False",
          "WinTrackHeight" : "108.923076923077"
        }
      }
    ],
    "captionAttributes" : {
      "enabled" : true,
      "fontName" : "Arial",
      "fontSize" : 32,
      "backgroundColor" : [ 0, 0, 0, 127],
      "foregroundColor" : [ 255, 255, 255, 255],
      "lang" : "en",
      "alignment" : 0,
      "defaultFontSize" : true,
      "opacity" : 0.5,
      "backgroundEnabled" : true,
      "backgroundOnlyAroundText" : true
    },
    "backgroundColor" : [ 0, 0, 0, 255]
  },
  "metadata" : {
    "AutoSaveFile" : "",
    "CanvasZoom" : 77,
    "Date" : "2020-01-27 11:33:13 PM",
    "Fit" : 1,
    "IsAutoSave" : "0",
    "Language" : "ENU",
    "ProfileName" : "MP4 only (up to 720p)",
    "ProjectDimensionsChanged" : "0",
    "Title" : "CamtasiaTemplateWindows",
    "audioNarrationNotes" : "",
    "calloutStyle" : "All",
    "canvasDetached" : "False",
    "canvasPositionHeight" : "0",
    "canvasPositionLeft" : "0",
    "canvasPositionTop" : "0",
    "canvasPositionWidth" : "0",
    "firstMedia" : true
  },
  "audioPlaybackRate" : 44100
,
  "videoPlaybackRate" : 30

}
