{
  "title" : "",
  "description" : "",
  "author" : "",
  "targetLoudness" : -18.0,
  "shouldApplyLoudnessNormalization" : false,
  "videoFormatFrameRate" : 30,
  "audioFormatSampleRate" : 44100,
  "width" : 1280.0,
  "height" : 720.0,
  "version" : "3.0",
  "editRate" : 30,
  "authoringClientName" :  {
    "name" : "Camtasia",
    "platform" : "Windows",
    "version" : "19.0"
  },
  "sourceBin" : [
    {
      "id" : 1,
      "src" : "D:\\Data Files\\Udemy\\Instructor\\Codestars\\Java\\Course-Prep-Splash\\Camtasia9TemplateWindows\\codestars_logo.png",
      "rect" : [0, 0, 1061, 168],
      "lastMod" : "20200203T061715",
      "sourceTracks" : [
        {
          "range" : [0, 1],
          "type" : 1,
          "editRate" : 10000000,
          "trackRect" : [0, 0, 1061, 168],
          "sampleRate" : 0,
          "bitDepth" : 32,
          "numChannels" : 0,
          "integratedLUFS" : 100.0,
          "peakLevel" : -1.0,
          "metaData" : ""
        }
      ],
      "metadata" : {
        "timeAdded" : "20200413T010652.786275"
      }
    },
    {
      "id" : 2,
      "src" : "D:\\Data Files\\Udemy\\Instructor\\Codestars\\Java\\Course-Prep-Splash\\Camtasia9TemplateWindows\\star.png",
      "rect" : [0, 0, 199, 206],
      "lastMod" : "20200203T061715",
      "sourceTracks" : [
        {
          "range" : [0, 1],
          "type" : 1,
          "editRate" : 10000000,
          "trackRect" : [0, 0, 199, 206],
          "sampleRate" : 0,
          "bitDepth" : 32,
          "numChannels" : 0,
          "integratedLUFS" : 100.0,
          "peakLevel" : -1.0,
          "metaData" : ""
        }
      ],
      "metadata" : {
        "timeAdded" : "20200413T010652.797951"
      }
    },
    {
      "id" : 3,
      "src" : "D:\\Data Files\\Udemy\\Instructor\\Codestars\\Java\\Course-Prep-Splash\\Splash_Java-1.png",
      "rect" : [0, 0, 1920, 1080],
      "lastMod" : "20200806T044114",
      "sourceTracks" : [
        {
          "range" : [0, 1],
          "type" : 1,
          "editRate" : 10000000,
          "trackRect" : [0, 0, 1920, 1080],
          "sampleRate" : 0,
          "bitDepth" : 32,
          "numChannels" : 0,
          "integratedLUFS" : 100.0,
          "peakLevel" : -1.0,
          "metaData" : ""
        }
      ],
      "metadata" : {
        "timeAdded" : "20200413T010652.819235"
      }
    },
    {
      "id" : 4,
      "src" : "C:\\Users\\profj\\Desktop\\Udemy\\Codestars\\CPP\\videos\\Course-Prep-Splash\\JPB-Images\\PNG\\Head.png",
      "rect" : [0, 0, 721, 1024],
      "lastMod" : "20200203T062252",
      "sourceTracks" : [
        {
          "range" : [0, 1],
          "type" : 1,
          "editRate" : 10000000,
          "trackRect" : [0, 0, 721, 1024],
          "sampleRate" : 0,
          "bitDepth" : 32,
          "numChannels" : 0,
          "integratedLUFS" : 100.0,
          "peakLevel" : -1.0,
          "metaData" : ""
        }
      ],
      "metadata" : {
        "timeAdded" : "20200413T010652.821203"
      }
    },
    {
      "id" : 5,
      "src" : "D:\\Data Files\\Udemy\\Instructor\\Codestars\\Java\\Videos\\section6\\_intro-bulletpoints\\j-s6-lec4-ud-method-calls-recursion\\Slide1.PNG",
      "rect" : [0, 0, 1280, 720],
      "lastMod" : "20201111T005230",
      "sourceTracks" : [
        {
          "range" : [0, 1],
          "type" : 1,
          "editRate" : 10000000,
          "trackRect" : [0, 0, 1280, 720],
          "sampleRate" : 0,
          "bitDepth" : 24,
          "numChannels" : 0,
          "integratedLUFS" : 100.0,
          "peakLevel" : -1.0,
          "metaData" : ""
        }
      ],
      "metadata" : {
        "timeAdded" : "20201111T005301.057826"
      }
    },
    {
      "id" : 6,
      "src" : "D:\\Data Files\\Udemy\\Instructor\\Codestars\\Java\\Videos\\section6\\_intro-bulletpoints\\j-s6-lec4-ud-method-calls-recursion\\Slide2.PNG",
      "rect" : [0, 0, 1280, 720],
      "lastMod" : "20201111T005230",
      "sourceTracks" : [
        {
          "range" : [0, 1],
          "type" : 1,
          "editRate" : 10000000,
          "trackRect" : [0, 0, 1280, 720],
          "sampleRate" : 0,
          "bitDepth" : 24,
          "numChannels" : 0,
          "integratedLUFS" : 100.0,
          "peakLevel" : -1.0,
          "metaData" : ""
        }
      ],
      "metadata" : {
        "timeAdded" : "20201111T005302.518020"
      }
    },
    {
      "id" : 7,
      "src" : "D:\\Data Files\\Udemy\\Instructor\\Codestars\\Java\\Videos\\section6\\_intro-bulletpoints\\j-s6-lec4-ud-method-calls-recursion\\Slide3.PNG",
      "rect" : [0, 0, 1280, 720],
      "lastMod" : "20201111T005230",
      "sourceTracks" : [
        {
          "range" : [0, 1],
          "type" : 1,
          "editRate" : 10000000,
          "trackRect" : [0, 0, 1280, 720],
          "sampleRate" : 0,
          "bitDepth" : 24,
          "numChannels" : 0,
          "integratedLUFS" : 100.0,
          "peakLevel" : -1.0,
          "metaData" : ""
        }
      ],
      "metadata" : {
        "timeAdded" : "20201111T005303.838446"
      }
    },
    {
      "id" : 8,
      "src" : "D:\\Data Files\\Udemy\\Instructor\\Codestars\\Java\\Videos\\section6\\_intro-bulletpoints\\j-s6-lec4-ud-method-calls-recursion\\Slide4.PNG",
      "rect" : [0, 0, 1280, 720],
      "lastMod" : "20201111T005230",
      "sourceTracks" : [
        {
          "range" : [0, 1],
          "type" : 1,
          "editRate" : 10000000,
          "trackRect" : [0, 0, 1280, 720],
          "sampleRate" : 0,
          "bitDepth" : 24,
          "numChannels" : 0,
          "integratedLUFS" : 100.0,
          "peakLevel" : -1.0,
          "metaData" : ""
        }
      ],
      "metadata" : {
        "timeAdded" : "20201111T005305.052036"
      }
    },
    {
      "id" : 9,
      "src" : "D:\\Data Files\\Udemy\\Instructor\\Codestars\\Java\\Videos\\section6\\_intro-bulletpoints\\j-s6-lec4-ud-method-calls-recursion\\Slide5.PNG",
      "rect" : [0, 0, 1280, 720],
      "lastMod" : "20201111T005231",
      "sourceTracks" : [
        {
          "range" : [0, 1],
          "type" : 1,
          "editRate" : 10000000,
          "trackRect" : [0, 0, 1280, 720],
          "sampleRate" : 0,
          "bitDepth" : 24,
          "numChannels" : 0,
          "integratedLUFS" : 100.0,
          "peakLevel" : -1.0,
          "metaData" : ""
        }
      ],
      "metadata" : {
        "timeAdded" : "20201111T005306.328001"
      }
    },
    {
      "id" : 10,
      "src" : "D:\\Data Files\\Udemy\\Instructor\\Codestars\\Java\\Videos\\section6\\_intro-bulletpoints\\j-s6-lec4-ud-method-calls-recursion\\Slide6.PNG",
      "rect" : [0, 0, 1280, 720],
      "lastMod" : "20201111T005231",
      "sourceTracks" : [
        {
          "range" : [0, 1],
          "type" : 1,
          "editRate" : 10000000,
          "trackRect" : [0, 0, 1280, 720],
          "sampleRate" : 0,
          "bitDepth" : 24,
          "numChannels" : 0,
          "integratedLUFS" : 100.0,
          "peakLevel" : -1.0,
          "metaData" : ""
        }
      ],
      "metadata" : {
        "timeAdded" : "20201111T005307.693895"
      }
    },
    {
      "id" : 11,
      "src" : "D:\\Data Files\\Udemy\\Instructor\\Codestars\\Java\\Videos\\section6\\_intro-bulletpoints\\j-s6-lec4-ud-method-calls-recursion\\Slide7.PNG",
      "rect" : [0, 0, 1280, 720],
      "lastMod" : "20201111T005231",
      "sourceTracks" : [
        {
          "range" : [0, 1],
          "type" : 1,
          "editRate" : 10000000,
          "trackRect" : [0, 0, 1280, 720],
          "sampleRate" : 0,
          "bitDepth" : 24,
          "numChannels" : 0,
          "integratedLUFS" : 100.0,
          "peakLevel" : -1.0,
          "metaData" : ""
        }
      ],
      "metadata" : {
        "timeAdded" : "20201111T005310.151856"
      }
    },
    {
      "id" : 12,
      "src" : "D:\\Data Files\\Udemy\\Instructor\\Codestars\\Java\\Videos\\section6\\_intro-bulletpoints\\j-s6-lec4-ud-method-calls-recursion\\Slide8.PNG",
      "rect" : [0, 0, 1280, 720],
      "lastMod" : "20201111T005231",
      "sourceTracks" : [
        {
          "range" : [0, 1],
          "type" : 1,
          "editRate" : 10000000,
          "trackRect" : [0, 0, 1280, 720],
          "sampleRate" : 0,
          "bitDepth" : 24,
          "numChannels" : 0,
          "integratedLUFS" : 100.0,
          "peakLevel" : -1.0,
          "metaData" : ""
        }
      ],
      "metadata" : {
        "timeAdded" : "20201111T005311.439451"
      }
    },
    {
      "id" : 13,
      "src" : "D:\\Data Files\\Udemy\\Instructor\\Codestars\\Java\\Videos\\section6\\_intro-bulletpoints\\j-s6-lec4-ud-method-calls-recursion\\Slide9.PNG",
      "rect" : [0, 0, 1280, 720],
      "lastMod" : "20201111T005231",
      "sourceTracks" : [
        {
          "range" : [0, 1],
          "type" : 1,
          "editRate" : 10000000,
          "trackRect" : [0, 0, 1280, 720],
          "sampleRate" : 0,
          "bitDepth" : 24,
          "numChannels" : 0,
          "integratedLUFS" : 100.0,
          "peakLevel" : -1.0,
          "metaData" : ""
        }
      ],
      "metadata" : {
        "timeAdded" : "20201111T005313.175171"
      }
    },
    {
      "id" : 14,
      "src" : "D:\\Data Files\\Udemy\\Instructor\\Codestars\\Java\\Videos\\section6\\_intro-bulletpoints\\j-s6-lec4-ud-method-calls-recursion\\Slide10.PNG",
      "rect" : [0, 0, 1280, 720],
      "lastMod" : "20201111T005231",
      "sourceTracks" : [
        {
          "range" : [0, 1],
          "type" : 1,
          "editRate" : 10000000,
          "trackRect" : [0, 0, 1280, 720],
          "sampleRate" : 0,
          "bitDepth" : 24,
          "numChannels" : 0,
          "integratedLUFS" : 100.0,
          "peakLevel" : -1.0,
          "metaData" : ""
        }
      ],
      "metadata" : {
        "timeAdded" : "20201111T005317.301499"
      }
    },
    {
      "id" : 15,
      "src" : "D:\\Data Files\\Udemy\\Instructor\\Codestars\\Java\\Videos\\section6\\_intro-bulletpoints\\j-s6-lec4-ud-method-calls-recursion\\Slide11.PNG",
      "rect" : [0, 0, 1280, 720],
      "lastMod" : "20201111T005232",
      "sourceTracks" : [
        {
          "range" : [0, 1],
          "type" : 1,
          "editRate" : 10000000,
          "trackRect" : [0, 0, 1280, 720],
          "sampleRate" : 0,
          "bitDepth" : 24,
          "numChannels" : 0,
          "integratedLUFS" : 100.0,
          "peakLevel" : -1.0,
          "metaData" : ""
        }
      ],
      "metadata" : {
        "timeAdded" : "20201111T005317.303493"
      }
    },
    {
      "id" : 16,
      "src" : "D:\\Data Files\\Udemy\\Instructor\\Codestars\\Java\\Videos\\section6\\_intro-bulletpoints\\j-s6-lec4-ud-method-calls-recursion\\Slide12.PNG",
      "rect" : [0, 0, 1280, 720],
      "lastMod" : "20201111T005232",
      "sourceTracks" : [
        {
          "range" : [0, 1],
          "type" : 1,
          "editRate" : 10000000,
          "trackRect" : [0, 0, 1280, 720],
          "sampleRate" : 0,
          "bitDepth" : 24,
          "numChannels" : 0,
          "integratedLUFS" : 100.0,
          "peakLevel" : -1.0,
          "metaData" : ""
        }
      ],
      "metadata" : {
        "timeAdded" : "20201111T005317.306485"
      }
    },
    {
      "id" : 17,
      "src" : "D:\\Data Files\\Udemy\\Instructor\\Codestars\\Java\\Videos\\section6\\_intro-bulletpoints\\j-s6-lec4-ud-method-calls-recursion\\Slide13.PNG",
      "rect" : [0, 0, 1280, 720],
      "lastMod" : "20201111T005232",
      "sourceTracks" : [
        {
          "range" : [0, 1],
          "type" : 1,
          "editRate" : 10000000,
          "trackRect" : [0, 0, 1280, 720],
          "sampleRate" : 0,
          "bitDepth" : 24,
          "numChannels" : 0,
          "integratedLUFS" : 100.0,
          "peakLevel" : -1.0,
          "metaData" : ""
        }
      ],
      "metadata" : {
        "timeAdded" : "20201111T005317.308480"
      }
    },
    {
      "id" : 18,
      "src" : "D:\\Data Files\\Udemy\\Instructor\\Codestars\\Java\\Videos\\section6\\_intro-bulletpoints\\j-s6-lec4-ud-method-calls-recursion\\Slide14.PNG",
      "rect" : [0, 0, 1280, 720],
      "lastMod" : "20201111T005232",
      "sourceTracks" : [
        {
          "range" : [0, 1],
          "type" : 1,
          "editRate" : 10000000,
          "trackRect" : [0, 0, 1280, 720],
          "sampleRate" : 0,
          "bitDepth" : 24,
          "numChannels" : 0,
          "integratedLUFS" : 100.0,
          "peakLevel" : -1.0,
          "metaData" : ""
        }
      ],
      "metadata" : {
        "timeAdded" : "20201111T005317.311474"
      }
    },
    {
      "id" : 19,
      "src" : "D:\\Data Files\\Udemy\\Instructor\\Codestars\\Java\\Videos\\section6\\_intro-bulletpoints\\j-s6-lec4-ud-method-calls-recursion\\Slide15.PNG",
      "rect" : [0, 0, 1280, 720],
      "lastMod" : "20201111T005232",
      "sourceTracks" : [
        {
          "range" : [0, 1],
          "type" : 1,
          "editRate" : 10000000,
          "trackRect" : [0, 0, 1280, 720],
          "sampleRate" : 0,
          "bitDepth" : 24,
          "numChannels" : 0,
          "integratedLUFS" : 100.0,
          "peakLevel" : -1.0,
          "metaData" : ""
        }
      ],
      "metadata" : {
        "timeAdded" : "20201111T005317.313468"
      }
    },
    {
      "id" : 20,
      "src" : "D:\\Data Files\\Udemy\\Instructor\\Codestars\\Java\\Videos\\section6\\_intro-bulletpoints\\j-s6-lec4-ud-method-calls-recursion\\Slide16.PNG",
      "rect" : [0, 0, 1280, 720],
      "lastMod" : "20201111T005232",
      "sourceTracks" : [
        {
          "range" : [0, 1],
          "type" : 1,
          "editRate" : 10000000,
          "trackRect" : [0, 0, 1280, 720],
          "sampleRate" : 0,
          "bitDepth" : 24,
          "numChannels" : 0,
          "integratedLUFS" : 100.0,
          "peakLevel" : -1.0,
          "metaData" : ""
        }
      ],
      "metadata" : {
        "timeAdded" : "20201111T005317.319455"
      }
    },
    {
      "id" : 21,
      "src" : "D:\\Data Files\\Udemy\\Instructor\\Codestars\\Java\\Videos\\section6\\_intro-bulletpoints\\j-s6-lec4-ud-method-calls-recursion\\Slide17.PNG",
      "rect" : [0, 0, 1280, 720],
      "lastMod" : "20201111T005233",
      "sourceTracks" : [
        {
          "range" : [0, 1],
          "type" : 1,
          "editRate" : 10000000,
          "trackRect" : [0, 0, 1280, 720],
          "sampleRate" : 0,
          "bitDepth" : 24,
          "numChannels" : 0,
          "integratedLUFS" : 100.0,
          "peakLevel" : -1.0,
          "metaData" : ""
        }
      ],
      "metadata" : {
        "timeAdded" : "20201111T005317.325440"
      }
    },
    {
      "id" : 22,
      "src" : "D:\\Data Files\\Udemy\\Instructor\\Codestars\\Java\\Videos\\section6\\_intro-bulletpoints\\j-s6-lec4-ud-method-calls-recursion\\Slide18.PNG",
      "rect" : [0, 0, 1280, 720],
      "lastMod" : "20201111T005233",
      "sourceTracks" : [
        {
          "range" : [0, 1],
          "type" : 1,
          "editRate" : 10000000,
          "trackRect" : [0, 0, 1280, 720],
          "sampleRate" : 0,
          "bitDepth" : 24,
          "numChannels" : 0,
          "integratedLUFS" : 100.0,
          "peakLevel" : -1.0,
          "metaData" : ""
        }
      ],
      "metadata" : {
        "timeAdded" : "20201111T005317.325527"
      }
    },
    {
      "id" : 23,
      "src" : "D:\\Data Files\\Udemy\\Instructor\\Codestars\\Java\\Videos\\section6\\_intro-bulletpoints\\j-s6-lec4-ud-method-calls-recursion\\Slide19.PNG",
      "rect" : [0, 0, 1280, 720],
      "lastMod" : "20201111T005233",
      "sourceTracks" : [
        {
          "range" : [0, 1],
          "type" : 1,
          "editRate" : 10000000,
          "trackRect" : [0, 0, 1280, 720],
          "sampleRate" : 0,
          "bitDepth" : 24,
          "numChannels" : 0,
          "integratedLUFS" : 100.0,
          "peakLevel" : -1.0,
          "metaData" : ""
        }
      ],
      "metadata" : {
        "timeAdded" : "20201111T005317.325527"
      }
    },
    {
      "id" : 24,
      "src" : "D:\\Data Files\\Udemy\\Instructor\\Codestars\\Java\\Videos\\section6\\_intro-bulletpoints\\j-s6-lec4-ud-method-calls-recursion\\Slide20.PNG",
      "rect" : [0, 0, 1280, 720],
      "lastMod" : "20201111T005233",
      "sourceTracks" : [
        {
          "range" : [0, 1],
          "type" : 1,
          "editRate" : 10000000,
          "trackRect" : [0, 0, 1280, 720],
          "sampleRate" : 0,
          "bitDepth" : 24,
          "numChannels" : 0,
          "integratedLUFS" : 100.0,
          "peakLevel" : -1.0,
          "metaData" : ""
        }
      ],
      "metadata" : {
        "timeAdded" : "20201111T005317.325527"
      }
    },
    {
      "id" : 25,
      "src" : "D:\\Data Files\\Udemy\\Instructor\\Codestars\\Java\\Videos\\section6\\_intro-bulletpoints\\j-s6-lec4-ud-method-calls-recursion\\Slide21.PNG",
      "rect" : [0, 0, 1280, 720],
      "lastMod" : "20201111T005233",
      "sourceTracks" : [
        {
          "range" : [0, 1],
          "type" : 1,
          "editRate" : 10000000,
          "trackRect" : [0, 0, 1280, 720],
          "sampleRate" : 0,
          "bitDepth" : 24,
          "numChannels" : 0,
          "integratedLUFS" : 100.0,
          "peakLevel" : -1.0,
          "metaData" : ""
        }
      ],
      "metadata" : {
        "timeAdded" : "20201111T005317.341178"
      }
    },
    {
      "id" : 26,
      "src" : "C:\\Users\\profj\\Documents\\Camtasia\\Rec 11-10-20.trec",
      "rect" : [0, 0, 1920, 1080],
      "lastMod" : "20201111T011743",
      "sourceTracks" : [
        {
          "range" : [0, 27772],
          "type" : 0,
          "editRate" : 30,
          "trackRect" : [0, 0, 1920, 1080],
          "sampleRate" : 24,
          "bitDepth" : 0,
          "numChannels" : 0,
          "integratedLUFS" : 100.0,
          "peakLevel" : -1.0,
          "metaData" : "2b7b6a00-7a1f-11e2-83d0-0017f200be7f;2b7b6aef-7a1f-11e2-83d0-0017f200be7f;2b7b6af0-7a1f-11e2-83d0-0017f200be7f;2b7b6af1-7a1f-11e2-83d0-0017f200be7f;2b7b6af2-7a1f-11e2-83d0-0017f200be7f;2b7b6af3-7a1f-11e2-83d0-0017f200be7f;2b7b6af5-7a1f-11e2-83d0-0017f200be7f;2b7b6af6-7a1f-11e2-83d0-0017f200be7f;2b7b6af7-7a1f-11e2-83d0-0017f200be7f;2b7b6af8-7a1f-11e2-83d0-0017f200be7f;2b7b6af9-7a1f-11e2-83d0-0017f200be7f;2b7b6afa-7a1f-11e2-83d0-0017f200be7f;"
        },
        {
          "range" : [0, 40815616],
          "type" : 2,
          "editRate" : 44100,
          "trackRect" : [0, 0, 0, 0],
          "sampleRate" : 44100,
          "bitDepth" : 16,
          "numChannels" : 2,
          "integratedLUFS" : -25.8500082435712,
          "peakLevel" : 1.0,
          "metaData" : ""
        },
        {
          "range" : [0, 40829952],
          "type" : 2,
          "editRate" : 44100,
          "trackRect" : [0, 0, 0, 0],
          "sampleRate" : 44100,
          "bitDepth" : 16,
          "numChannels" : 2,
          "integratedLUFS" : -1.79769313486232e+308,
          "peakLevel" : 0.0,
          "metaData" : ""
        }
      ],
      "metadata" : {
        "timeAdded" : "20201111T011743.977546"
      }
    },
    {
      "id" : 27,
      "src" : "D:\\Data Files\\Udemy\\Instructor\\Codestars\\Java\\Videos\\section6\\_wavs\\s6-lec4-method-calls-recursion-fixed.wav",
      "rect" : [0, 0, 0, 0],
      "lastMod" : "20201111T012433",
      "sourceTracks" : [
        {
          "range" : [0, 9257333334],
          "type" : 2,
          "editRate" : 10000000,
          "trackRect" : [0, 0, 0, 0],
          "sampleRate" : 44100,
          "bitDepth" : 16,
          "numChannels" : 2,
          "integratedLUFS" : -28.9153151229953,
          "peakLevel" : 0.709381103515625,
          "metaData" : ""
        }
      ],
      "metadata" : {
        "timeAdded" : "20201111T012445.752036"
      }
    },
    {
      "id" : 28,
      "src" : "C:\\Users\\profj\\Documents\\Camtasia\\Rec 11-10-20_001.trec",
      "rect" : [0, 0, 1920, 1080],
      "lastMod" : "20201111T015016",
      "sourceTracks" : [
        {
          "range" : [0, 1925],
          "type" : 0,
          "editRate" : 30,
          "trackRect" : [0, 0, 1920, 1080],
          "sampleRate" : 23,
          "bitDepth" : 0,
          "numChannels" : 0,
          "integratedLUFS" : 100.0,
          "peakLevel" : -1.0,
          "metaData" : "2b7b6a00-7a1f-11e2-83d0-0017f200be7f;2b7b6aef-7a1f-11e2-83d0-0017f200be7f;2b7b6af0-7a1f-11e2-83d0-0017f200be7f;2b7b6af1-7a1f-11e2-83d0-0017f200be7f;2b7b6af2-7a1f-11e2-83d0-0017f200be7f;2b7b6af3-7a1f-11e2-83d0-0017f200be7f;2b7b6af5-7a1f-11e2-83d0-0017f200be7f;2b7b6af6-7a1f-11e2-83d0-0017f200be7f;2b7b6af7-7a1f-11e2-83d0-0017f200be7f;2b7b6af8-7a1f-11e2-83d0-0017f200be7f;2b7b6af9-7a1f-11e2-83d0-0017f200be7f;2b7b6afa-7a1f-11e2-83d0-0017f200be7f;"
        },
        {
          "range" : [0, 2824192],
          "type" : 2,
          "editRate" : 44100,
          "trackRect" : [0, 0, 0, 0],
          "sampleRate" : 44100,
          "bitDepth" : 16,
          "numChannels" : 2,
          "integratedLUFS" : -29.3518461152328,
          "peakLevel" : 1.0,
          "metaData" : ""
        },
        {
          "range" : [0, 2830336],
          "type" : 2,
          "editRate" : 44100,
          "trackRect" : [0, 0, 0, 0],
          "sampleRate" : 44100,
          "bitDepth" : 16,
          "numChannels" : 2,
          "integratedLUFS" : -1.79769313486232e+308,
          "peakLevel" : 0.0,
          "metaData" : ""
        }
      ],
      "metadata" : {
        "timeAdded" : "20201111T015016.644188"
      }
    },
    {
      "id" : 29,
      "src" : "D:\\Data Files\\Udemy\\Instructor\\Codestars\\Java\\Videos\\section6\\_wavs\\s6-lec4-method-calls-recursion-popping-fixed.wav",
      "rect" : [0, 0, 0, 0],
      "lastMod" : "20201111T015154",
      "sourceTracks" : [
        {
          "range" : [0, 641666667],
          "type" : 2,
          "editRate" : 10000000,
          "trackRect" : [0, 0, 0, 0],
          "sampleRate" : 44100,
          "bitDepth" : 16,
          "numChannels" : 2,
          "integratedLUFS" : -34.1787025114738,
          "peakLevel" : 0.579315185546875,
          "metaData" : ""
        }
      ],
      "metadata" : {
        "timeAdded" : "20201111T015201.253308"
      }
    }
  ],
  "timeline" : {
    "id" : 30,
    "sceneTrack" : {
      "scenes" : [
        {
          "duration" : 834.533333333333,
          "title" : "",
          "type" : "",
          "csml" : {
            "tracks" : [
              {
                "trackIndex" : 0,
                "medias" : [
                ]
              },
              {
                "trackIndex" : 1,
                "medias" : [
                  {
                    "id" : 31,
                    "_type" : "IMFile",
                    "src" : 3,
                    "trackNumber" : 0,
                    "trimStartSum" : 0,
                    "attributes" : {
                      "ident" : "Splash_Java-1"
                    },
                    "parameters" : {
                      "translation0" : 1.41765519860095,
                      "translation1" : 0.802568950732536,
                      "scale0" : 0.668152905464492,
                      "scale1" : 0.668152905464491
                    },
                    "effects" : [

                    ],
                    "start" : 0,
                    "duration" : 150,
                    "mediaStart" : 0,
                    "mediaDuration" : 1,
                    "scalar" : 1,
                    "metadata" : {
                      "WinSubProjectDisplayName" : "",
                      "clipSpeedAttribute" : false,
                      "default-scale" : "0.666667",
                      "default-scale0" : 0.666671423982989,
                      "default-scale1" : 0.666671423982989,
                      "default-translation0" : 0.00456702366917246,
                      "default-translation1" : -0.00256895081391425,
                      "effectApplied" : "none"
                    },
                    "animationTracks" : {

                    }
                  }
                ],
                "transitions" : [
                  {
                    "name" : "Fade",
                    "duration" : 30,
                    "trivial" : true,
                    "reverse" : false,
                    "useAudioPreRoll" : false,
                    "useVisualPreRoll" : true,
                    "leftMedia" : 31
                  }
                ]
              },
              {
                "trackIndex" : 2,
                "medias" : [
                  {
                    "id" : 32,
                    "_type" : "IMFile",
                    "src" : 2,
                    "trackNumber" : 0,
                    "trimStartSum" : 0,
                    "attributes" : {
                      "ident" : "star"
                    },
                    "parameters" : {
                      "translation0" : {
                        "type" : "double",
                        "defaultValue" : -640.0,
                        "interp" : "linr",
                        "keyframes" : [
                          {
                            "endTime" : 30,
                            "time" : 0,
                            "value" : -522.733906099372,
                            "duration" : 30
                          }
                        ]
                      },
                      "translation1" : {
                        "type" : "double",
                        "defaultValue" : -0.0,
                        "interp" : "linr",
                        "keyframes" : [
                          {
                            "endTime" : 30,
                            "time" : 0,
                            "value" : -277.438113851611,
                            "duration" : 30
                          }
                        ]
                      },
                      "translation2" : {
                        "type" : "double",
                        "defaultValue" : 0.0,
                        "interp" : "linr"
                      },
                      "rotation0" : {
                        "type" : "double",
                        "defaultValue" : 0.0,
                        "interp" : "linr"
                      },
                      "rotation1" : {
                        "type" : "double",
                        "defaultValue" : 0.0,
                        "interp" : "linr"
                      },
                      "rotation2" : {
                        "type" : "double",
                        "defaultValue" : 6.28318530717959,
                        "interp" : "linr",
                        "keyframes" : [
                          {
                            "endTime" : 30,
                            "time" : 0,
                            "value" : 0.0,
                            "duration" : 30
                          }
                        ]
                      },
                      "shear0" : {
                        "type" : "double",
                        "defaultValue" : 0.0,
                        "interp" : "linr"
                      },
                      "shear1" : {
                        "type" : "double",
                        "defaultValue" : 0.0,
                        "interp" : "linr"
                      },
                      "shear2" : {
                        "type" : "double",
                        "defaultValue" : 0.0,
                        "interp" : "linr"
                      },
                      "scale0" : {
                        "type" : "double",
                        "defaultValue" : 0.0,
                        "interp" : "linr",
                        "keyframes" : [
                          {
                            "endTime" : 30,
                            "time" : 0,
                            "value" : 0.344059357782636,
                            "duration" : 30
                          }
                        ]
                      },
                      "scale1" : {
                        "type" : "double",
                        "defaultValue" : 0.0,
                        "interp" : "linr",
                        "keyframes" : [
                          {
                            "endTime" : 30,
                            "time" : 0,
                            "value" : 0.344059357782636,
                            "duration" : 30
                          }
                        ]
                      },
                      "scale2" : {
                        "type" : "double",
                        "defaultValue" : 1.0,
                        "interp" : "linr"
                      },
                      "anchor0" : {
                        "type" : "double",
                        "defaultValue" : 0.0,
                        "interp" : "linr"
                      },
                      "anchor1" : {
                        "type" : "double",
                        "defaultValue" : 0.0,
                        "interp" : "linr"
                      },
                      "anchor2" : {
                        "type" : "double",
                        "defaultValue" : 0.0,
                        "interp" : "linr"
                      },
                      "opacity" : {
                        "type" : "double",
                        "defaultValue" : 1.0,
                        "keyframes" : [
                          {
                            "endTime" : 150,
                            "time" : 120,
                            "value" : 0.0,
                            "duration" : 30
                          }
                        ]
                      }
                    },
                    "effects" : [

                    ],
                    "start" : 0,
                    "duration" : 150,
                    "mediaStart" : 0,
                    "mediaDuration" : 1,
                    "scalar" : 1,
                    "metadata" : {
                      "WinSubProjectDisplayName" : "",
                      "clipSpeedAttribute" : false,
                      "default-scale" : "1",
                      "effectApplied" : "none"
                    },
                    "animationTracks" : {
                      "visual" : [
                        {
                          "endTime" : 30,
                          "duration" : 30,
                          "range" : [ 0, 30]
                        },
                        {
                          "endTime" : 150,
                          "duration" : 30,
                          "range" : [ 120, 30]
                        }
                      ]
                    }
                  }
                ]
              },
              {
                "trackIndex" : 3,
                "medias" : [
                  {
                    "id" : 33,
                    "_type" : "Callout",
                    "def" : {
                      "kind" : "remix",
                      "shape" : "text",
                      "style" : "bold",
                      "height" : 250.0,
                      "line-spacing" : 0.0,
                      "width" : 1035.85760517811,
                      "word-wrap" : 1.0,
                      "horizontal-alignment" : "left",
                      "resize-behavior" : "resizeText",
                      "text" : "Methods\rMethod Calls and Recursion",
                      "vertical-alignment" : "center",
                      "font" : {
                        "color-blue" : 1.0,
                        "color-green" : 1.0,
                        "color-red" : 1.0,
                        "size" : 96.0,
                        "tracking" : 0.0,
                        "name" : "Source Sans Pro",
                        "weight" : "Semi Bold"
                      },
                      "textAttributes" : {
                        "type" : "textAttributeList",
                        "keyframes" : [
                          {
                            "endTime" : 0,
                            "time" : 0,
                            "value" : [{"name":"fontWeight","rangeEnd":34,"rangeStart":8,"value":400,"valueType":"int"},{"name":"kerning","rangeEnd":34,"rangeStart":0,"value":0,"valueType":"double"},{"name":"strikethrough","rangeEnd":34,"rangeStart":0,"value":0,"valueType":"int"},{"name":"fgColor","rangeEnd":34,"rangeStart":0,"value":"(255,255,255,255)","valueType":"color"},{"name":"underline","rangeEnd":34,"rangeStart":0,"value":0,"valueType":"int"},{"name":"fontSize","rangeEnd":34,"rangeStart":8,"value":52,"valueType":"double"},{"name":"fontWeight","rangeEnd":8,"rangeStart":0,"value":700,"valueType":"int"},{"name":"fontSize","rangeEnd":8,"rangeStart":0,"value":55,"valueType":"double"},{"name":"fontName","rangeEnd":34,"rangeStart":0,"value":"Quicksand","valueType":"string"},{"name":"fontItalic","rangeEnd":34,"rangeStart":0,"value":0,"valueType":"int"}],
                            "duration" : 0
                          }
                        ]
                      }
                    },
                    "attributes" : {
                      "autoRotateText" : true
                    },
                    "parameters" : {
                      "translation0" : {
                        "type" : "double",
                        "defaultValue" : -913.412651778095,
                        "keyframes" : [
                          {
                            "endTime" : 38,
                            "time" : 8,
                            "value" : 97.2540148886495,
                            "duration" : 30
                          }
                        ]
                      },
                      "translation1" : {
                        "type" : "double",
                        "defaultValue" : -34.812002943898,
                        "keyframes" : [
                          {
                            "endTime" : 38,
                            "time" : 8,
                            "value" : -34.8120029438544,
                            "duration" : 30
                          }
                        ]
                      }
                    },
                    "effects" : [
                        {
                          "effectName" : "DropShadow",
                          "category" : "categoryVisualEffects",
                          "parameters" : {
                            "angle" : {
                              "type" : "double",
                              "defaultValue" : 5.49778714378214,
                              "uiHints" : {
                                "userInterfaceType" : 0,
                                "unitType" : 0
                              },
                              "keyframes" : [
                                {
                                  "endTime" : 38,
                                  "time" : 8,
                                  "value" : 5.49778714378214,
                                  "duration" : 30
                                }
                              ]
                            },
                            "blur" : 10.0,
                            "color-alpha" : 1.0,
                            "color-blue" : 0.1216,
                            "color-green" : 0.1216,
                            "color-red" : 0.1216,
                            "enabled" : 1,
                            "offset" : 10.0,
                            "opacity" : 0.4
                          }
                        }
                    ],
                    "start" : 35,
                    "duration" : 115,
                    "mediaStart" : 8,
                    "mediaDuration" : 115,
                    "scalar" : 1,
                    "metadata" : {
                      "WinSubProjectDisplayName" : "",
                      "clipSpeedAttribute" : false,
                      "default-HAlign" : "center",
                      "default-LineSpace" : 0.0,
                      "default-VAlign" : "center",
                      "default-text-attributes" : "[{\"name\":\"fontWeight\",\"rangeEnd\":37,\"rangeStart\":26,\"value\":100,\"valueType\":\"int\"},{\"name\":\"underline\",\"rangeEnd\":37,\"rangeStart\":0,\"value\":0,\"valueType\":\"int\"},{\"name\":\"fontWeight\",\"rangeEnd\":26,\"rangeStart\":0,\"value\":700,\"valueType\":\"int\"},{\"name\":\"fgColor\",\"rangeEnd\":37,\"rangeStart\":0,\"value\":\"(255,255,255,255)\",\"valueType\":\"color\"},{\"name\":\"fontSize\",\"rangeEnd\":26,\"rangeStart\":0,\"value\":55,\"valueType\":\"double\"},{\"name\":\"fontItalic\",\"rangeEnd\":37,\"rangeStart\":0,\"value\":0,\"valueType\":\"int\"},{\"name\":\"strikethrough\",\"rangeEnd\":37,\"rangeStart\":0,\"value\":0,\"valueType\":\"int\"},{\"name\":\"fontName\",\"rangeEnd\":37,\"rangeStart\":0,\"value\":\"Quicksand\",\"valueType\":\"string\"},{\"name\":\"fontSize\",\"rangeEnd\":37,\"rangeStart\":26,\"value\":52,\"valueType\":\"double\"}]",
                      "default-translation0" : 204.5,
                      "default-translation1" : 0.0
                    },
                    "animationTracks" : {
                      "visual" : [
                        {
                          "endTime" : 38,
                          "duration" : 30,
                          "range" : [ 8, 30]
                        }
                      ]
                    }
                  },
                  {
                    "id" : 34,
                    "_type" : "IMFile",
                    "src" : 3,
                    "trackNumber" : 0,
                    "trimStartSum" : 0,
                    "attributes" : {
                      "ident" : "Splash_Java-1"
                    },
                    "parameters" : {
                      "translation0" : 0.00456702366917246,
                      "translation1" : -0.00256895081391425,
                      "scale0" : 0.666671423982989,
                      "scale1" : 0.666671423982989
                    },
                    "effects" : [

                    ],
                    "start" : 24886,
                    "duration" : 150,
                    "mediaStart" : 0,
                    "mediaDuration" : 1,
                    "scalar" : 1,
                    "metadata" : {
                      "WinSubProjectDisplayName" : "",
                      "clipSpeedAttribute" : false,
                      "default-scale" : "0.666667",
                      "effectApplied" : "none"
                    },
                    "animationTracks" : {

                    }
                  }
                ],
                "transitions" : [
                  {
                    "name" : "Fade",
                    "duration" : 30,
                    "trivial" : true,
                    "reverse" : false,
                    "useAudioPreRoll" : true,
                    "useVisualPreRoll" : true,
                    "leftMedia" : 33
                  },
                  {
                    "name" : "Fade",
                    "duration" : 30,
                    "trivial" : true,
                    "reverse" : false,
                    "useAudioPreRoll" : true,
                    "useVisualPreRoll" : true,
                    "rightMedia" : 34
                  },
                  {
                    "name" : "Fade",
                    "duration" : 30,
                    "trivial" : true,
                    "reverse" : false,
                    "useAudioPreRoll" : false,
                    "useVisualPreRoll" : true,
                    "leftMedia" : 34
                  }
                ]
              },
              {
                "trackIndex" : 4,
                "medias" : [
                  {
                    "id" : 35,
                    "_type" : "Callout",
                    "def" : {
                      "kind" : "TypeWinText",
                      "shape" : "",
                      "style" : "",
                      "Style" : 5.0,
                      "dimensionTime" : 0.0,
                      "height" : 180.0,
                      "line-spacing" : 0.0,
                      "textIgnoresOpacity" : 0.0,
                      "textRectHeight" : 1.0,
                      "textRectWidth" : 1.0,
                      "textRectX" : 0.0,
                      "textRectY" : 0.0,
                      "textVerticalAlign" : 0.0,
                      "width" : 320.0,
                      "filename" : "C:\\Program Files\\TechSmith\\Camtasia 9\\Media\\Studio\\Callouts\\trans_100x100.xml",
                      "horizontal-alignment" : "center",
                      "name" : "Text",
                      "resize-behavior" : "resizeText",
                      "text" : "{\\rtf1\\ansi\\ansicpg1252\\deff0\\nouicompat\\deflang1033{\\fonttbl{\\f0\\fnil\\fcharset0 Quicksand;}}\r\n{\\colortbl ;\\red255\\green255\\blue255;}\r\n{\\*\\generator Riched20 10.0.19041}\\viewkind4\\uc1 \r\n\\pard\\qc\\cf1\\b\\f0\\fs124 #\\fs256 6\\fs150\\par\r\n}\r\n",
                      "vertical-alignment" : "center",
                      "xmlContent" : "ï»¿<?xml version=\"1.0\"?>\n\n<Overlay version=\"1.0.1\">\n\n<Overlay_Filename>trans_100x100.png</Overlay_Filename>\n<Overlay_Name>Text</Overlay_Name>\n<Text_Top>0</Text_Top>\n<Text_Left>0</Text_Left>\n<Text_Bottom>0</Text_Bottom>\n<Text_Right>0</Text_Right>\n<Fill_Color>0</Fill_Color>\n<Border_Color>0</Border_Color>\n<Style>5</Style>\n</Overlay>",
                      "textAttributes" : {
                        "type" : "textAttributeList",
                        "keyframes" : [
                          {
                            "endTime" : 0,
                            "time" : 0,
                            "value" : null,
                            "duration" : 0
                          }
                        ]
                      }
                    },
                    "attributes" : {
                      "autoRotateText" : true
                    },
                    "parameters" : {
                      "translation0" : {
                        "type" : "double",
                        "defaultValue" : -820.538865370044,
                        "keyframes" : [
                          {
                            "endTime" : 65,
                            "time" : 35,
                            "value" : -515.833333333334,
                            "duration" : 30
                          }
                        ]
                      },
                      "translation1" : {
                        "type" : "double",
                        "defaultValue" : -34.8120029438978,
                        "keyframes" : [
                          {
                            "endTime" : 65,
                            "time" : 35,
                            "value" : -34.8120029438634,
                            "duration" : 30
                          }
                        ]
                      },
                      "scale0" : {
                        "type" : "double",
                        "defaultValue" : 0.580906148866913,
                        "keyframes" : [
                          {
                            "endTime" : 65,
                            "time" : 35,
                            "value" : 0.685072815533499,
                            "duration" : 30
                          }
                        ]
                      },
                      "scale1" : {
                        "type" : "double",
                        "defaultValue" : 1.43801063442563,
                        "keyframes" : [
                          {
                            "endTime" : 65,
                            "time" : 35,
                            "value" : 1.43801063442563,
                            "duration" : 30
                          }
                        ]
                      }
                    },
                    "effects" : [

                    ],
                    "start" : 35,
                    "duration" : 115,
                    "mediaStart" : 35,
                    "mediaDuration" : 115,
                    "scalar" : 1,
                    "metadata" : {
                      "WinSubProjectDisplayName" : "",
                      "clipSpeedAttribute" : false,
                      "default-legacy-fill-style" : 5.0,
                      "default-legacy-text-callout-vertical-align" : "middle",
                      "default-rotation2" : 0.0,
                      "default-scale0" : 1.0,
                      "default-scale1" : 1.0,
                      "default-text" : "{\\rtf1\\ansi\\ansicpg1252\\deff0\\deflang1033{\\fonttbl{\\f0\\fswiss\\fprq2\\fcharset0 Arial;}}{\\colortbl ;\\red255\\green255\\blue255;}\\viewkind4\\uc1\\pard\\qc\\cf1\\fs72 abc}",
                      "default-translation0" : 0.0,
                      "default-translation1" : 0.0
                    },
                    "animationTracks" : {
                      "visual" : [
                        {
                          "endTime" : 65,
                          "duration" : 30,
                          "range" : [ 35, 30]
                        }
                      ]
                    }
                  },
                  {
                    "id" : 36,
                    "_type" : "IMFile",
                    "src" : 2,
                    "trackNumber" : 0,
                    "trimStartSum" : 0,
                    "attributes" : {
                      "ident" : "star"
                    },
                    "parameters" : {
                      "translation0" : {
                        "type" : "double",
                        "defaultValue" : -522.733906099372,
                        "interp" : "linr"
                      },
                      "translation1" : {
                        "type" : "double",
                        "defaultValue" : -277.438113851611,
                        "interp" : "linr"
                      },
                      "translation2" : {
                        "type" : "double",
                        "defaultValue" : 0.0,
                        "interp" : "linr"
                      },
                      "rotation0" : {
                        "type" : "double",
                        "defaultValue" : 0.0,
                        "interp" : "linr"
                      },
                      "rotation1" : {
                        "type" : "double",
                        "defaultValue" : 0.0,
                        "interp" : "linr"
                      },
                      "rotation2" : {
                        "type" : "double",
                        "defaultValue" : 0.0,
                        "interp" : "linr"
                      },
                      "shear0" : {
                        "type" : "double",
                        "defaultValue" : 0.0,
                        "interp" : "linr"
                      },
                      "shear1" : {
                        "type" : "double",
                        "defaultValue" : 0.0,
                        "interp" : "linr"
                      },
                      "shear2" : {
                        "type" : "double",
                        "defaultValue" : 0.0,
                        "interp" : "linr"
                      },
                      "scale0" : {
                        "type" : "double",
                        "defaultValue" : 0.344059357782636,
                        "interp" : "linr"
                      },
                      "scale1" : {
                        "type" : "double",
                        "defaultValue" : 0.344059357782636,
                        "interp" : "linr"
                      },
                      "scale2" : {
                        "type" : "double",
                        "defaultValue" : 1.0,
                        "interp" : "linr"
                      },
                      "anchor0" : {
                        "type" : "double",
                        "defaultValue" : 0.0,
                        "interp" : "linr"
                      },
                      "anchor1" : {
                        "type" : "double",
                        "defaultValue" : 0.0,
                        "interp" : "linr"
                      },
                      "anchor2" : {
                        "type" : "double",
                        "defaultValue" : 0.0,
                        "interp" : "linr"
                      },
                      "opacity" : {
                        "type" : "double",
                        "defaultValue" : 1.0,
                        "keyframes" : [
                          {
                            "endTime" : 150,
                            "time" : 120,
                            "value" : 0.0,
                            "duration" : 30
                          }
                        ]
                      }
                    },
                    "effects" : [

                    ],
                    "start" : 24886,
                    "duration" : 150,
                    "mediaStart" : 0,
                    "mediaDuration" : 1,
                    "scalar" : 1,
                    "metadata" : {
                      "WinSubProjectDisplayName" : "",
                      "clipSpeedAttribute" : false,
                      "default-opacity" : 0.0,
                      "default-scale" : "1",
                      "effectApplied" : "none"
                    },
                    "animationTracks" : {
                      "visual" : [
                        {
                          "endTime" : 150,
                          "duration" : 30,
                          "range" : [ 120, 30]
                        }
                      ]
                    }
                  }
                ],
                "transitions" : [
                  {
                    "name" : "Fade",
                    "duration" : 30,
                    "trivial" : true,
                    "reverse" : false,
                    "useAudioPreRoll" : true,
                    "useVisualPreRoll" : true,
                    "leftMedia" : 35
                  },
                  {
                    "name" : "Fade",
                    "duration" : 30,
                    "trivial" : true,
                    "reverse" : false,
                    "useAudioPreRoll" : true,
                    "useVisualPreRoll" : true,
                    "rightMedia" : 36
                  },
                  {
                    "name" : "Fade",
                    "duration" : 30,
                    "trivial" : true,
                    "reverse" : false,
                    "useAudioPreRoll" : true,
                    "useVisualPreRoll" : true,
                    "leftMedia" : 36
                  }
                ]
              },
              {
                "trackIndex" : 5,
                "medias" : [
                  {
                    "id" : 37,
                    "_type" : "IMFile",
                    "src" : 1,
                    "trackNumber" : 0,
                    "trimStartSum" : 0,
                    "attributes" : {
                      "ident" : "codestars_logo"
                    },
                    "parameters" : {
                      "translation0" : {
                        "type" : "double",
                        "defaultValue" : -263.136792317664,
                        "interp" : "linr"
                      },
                      "translation1" : {
                        "type" : "double",
                        "defaultValue" : -271.784183685799,
                        "interp" : "linr"
                      },
                      "translation2" : {
                        "type" : "double",
                        "defaultValue" : 0.0,
                        "interp" : "linr"
                      },
                      "rotation0" : {
                        "type" : "double",
                        "defaultValue" : 0.0,
                        "interp" : "linr"
                      },
                      "rotation1" : {
                        "type" : "double",
                        "defaultValue" : 0.0,
                        "interp" : "linr"
                      },
                      "rotation2" : {
                        "type" : "double",
                        "defaultValue" : 0.0,
                        "interp" : "linr"
                      },
                      "shear0" : {
                        "type" : "double",
                        "defaultValue" : 0.0,
                        "interp" : "linr"
                      },
                      "shear1" : {
                        "type" : "double",
                        "defaultValue" : 0.0,
                        "interp" : "linr"
                      },
                      "shear2" : {
                        "type" : "double",
                        "defaultValue" : 0.0,
                        "interp" : "linr"
                      },
                      "scale0" : {
                        "type" : "double",
                        "defaultValue" : 0.402192662926175,
                        "interp" : "linr"
                      },
                      "scale1" : {
                        "type" : "double",
                        "defaultValue" : 0.402192662926175,
                        "interp" : "linr"
                      },
                      "scale2" : {
                        "type" : "double",
                        "defaultValue" : 1.0,
                        "interp" : "linr"
                      },
                      "anchor0" : {
                        "type" : "double",
                        "defaultValue" : 0.0,
                        "interp" : "linr"
                      },
                      "anchor1" : {
                        "type" : "double",
                        "defaultValue" : 0.0,
                        "interp" : "linr"
                      },
                      "anchor2" : {
                        "type" : "double",
                        "defaultValue" : 0.0,
                        "interp" : "linr"
                      }
                    },
                    "effects" : [

                    ],
                    "start" : 0,
                    "duration" : 150,
                    "mediaStart" : 0,
                    "mediaDuration" : 1,
                    "scalar" : 1,
                    "metadata" : {
                      "WinSubProjectDisplayName" : "",
                      "clipSpeedAttribute" : false,
                      "default-scale" : "1",
                      "effectApplied" : "none"
                    },
                    "animationTracks" : {

                    }
                  },
                  {
                    "id" : 38,
                    "_type" : "IMFile",
                    "src" : 1,
                    "trackNumber" : 0,
                    "trimStartSum" : 0,
                    "attributes" : {
                      "ident" : "codestars_logo"
                    },
                    "parameters" : {
                      "translation0" : {
                        "type" : "double",
                        "defaultValue" : -263.136792317664,
                        "interp" : "linr"
                      },
                      "translation1" : {
                        "type" : "double",
                        "defaultValue" : -271.784183685799,
                        "interp" : "linr"
                      },
                      "translation2" : {
                        "type" : "double",
                        "defaultValue" : 0.0,
                        "interp" : "linr"
                      },
                      "rotation0" : {
                        "type" : "double",
                        "defaultValue" : 0.0,
                        "interp" : "linr"
                      },
                      "rotation1" : {
                        "type" : "double",
                        "defaultValue" : 0.0,
                        "interp" : "linr"
                      },
                      "rotation2" : {
                        "type" : "double",
                        "defaultValue" : 0.0,
                        "interp" : "linr"
                      },
                      "shear0" : {
                        "type" : "double",
                        "defaultValue" : 0.0,
                        "interp" : "linr"
                      },
                      "shear1" : {
                        "type" : "double",
                        "defaultValue" : 0.0,
                        "interp" : "linr"
                      },
                      "shear2" : {
                        "type" : "double",
                        "defaultValue" : 0.0,
                        "interp" : "linr"
                      },
                      "scale0" : {
                        "type" : "double",
                        "defaultValue" : 0.402192662926175,
                        "interp" : "linr"
                      },
                      "scale1" : {
                        "type" : "double",
                        "defaultValue" : 0.402192662926175,
                        "interp" : "linr"
                      },
                      "scale2" : {
                        "type" : "double",
                        "defaultValue" : 1.0,
                        "interp" : "linr"
                      },
                      "anchor0" : {
                        "type" : "double",
                        "defaultValue" : 0.0,
                        "interp" : "linr"
                      },
                      "anchor1" : {
                        "type" : "double",
                        "defaultValue" : 0.0,
                        "interp" : "linr"
                      },
                      "anchor2" : {
                        "type" : "double",
                        "defaultValue" : 0.0,
                        "interp" : "linr"
                      },
                      "opacity" : 0.0
                    },
                    "effects" : [

                    ],
                    "start" : 24886,
                    "duration" : 150,
                    "mediaStart" : 0,
                    "mediaDuration" : 1,
                    "scalar" : 1,
                    "metadata" : {
                      "WinSubProjectDisplayName" : "",
                      "clipSpeedAttribute" : false,
                      "default-scale" : "1",
                      "effectApplied" : "none"
                    },
                    "animationTracks" : {

                    }
                  }
                ],
                "transitions" : [
                  {
                    "name" : "Fade",
                    "duration" : 30,
                    "trivial" : true,
                    "reverse" : false,
                    "useAudioPreRoll" : true,
                    "useVisualPreRoll" : true,
                    "leftMedia" : 37
                  },
                  {
                    "name" : "Fade",
                    "duration" : 30,
                    "trivial" : true,
                    "reverse" : false,
                    "useAudioPreRoll" : true,
                    "useVisualPreRoll" : true,
                    "rightMedia" : 38
                  },
                  {
                    "name" : "Fade",
                    "duration" : 30,
                    "trivial" : true,
                    "reverse" : false,
                    "useAudioPreRoll" : true,
                    "useVisualPreRoll" : true,
                    "leftMedia" : 38
                  }
                ]
              },
              {
                "trackIndex" : 6,
                "medias" : [
                  {
                    "id" : 39,
                    "_type" : "IMFile",
                    "src" : 1,
                    "trackNumber" : 0,
                    "trimStartSum" : 0,
                    "attributes" : {
                      "ident" : "codestars_logo"
                    },
                    "parameters" : {
                      "translation0" : {
                        "type" : "double",
                        "defaultValue" : -263.136792317664,
                        "interp" : "linr"
                      },
                      "translation1" : {
                        "type" : "double",
                        "defaultValue" : -271.784183685799,
                        "interp" : "linr"
                      },
                      "translation2" : {
                        "type" : "double",
                        "defaultValue" : 0.0,
                        "interp" : "linr"
                      },
                      "rotation0" : {
                        "type" : "double",
                        "defaultValue" : 0.0,
                        "interp" : "linr"
                      },
                      "rotation1" : {
                        "type" : "double",
                        "defaultValue" : 0.0,
                        "interp" : "linr"
                      },
                      "rotation2" : {
                        "type" : "double",
                        "defaultValue" : 0.0,
                        "interp" : "linr"
                      },
                      "shear0" : {
                        "type" : "double",
                        "defaultValue" : 0.0,
                        "interp" : "linr"
                      },
                      "shear1" : {
                        "type" : "double",
                        "defaultValue" : 0.0,
                        "interp" : "linr"
                      },
                      "shear2" : {
                        "type" : "double",
                        "defaultValue" : 0.0,
                        "interp" : "linr"
                      },
                      "scale0" : {
                        "type" : "double",
                        "defaultValue" : 0.402192662926175,
                        "interp" : "linr"
                      },
                      "scale1" : {
                        "type" : "double",
                        "defaultValue" : 0.402192662926175,
                        "interp" : "linr"
                      },
                      "scale2" : {
                        "type" : "double",
                        "defaultValue" : 1.0,
                        "interp" : "linr"
                      },
                      "anchor0" : {
                        "type" : "double",
                        "defaultValue" : 0.0,
                        "interp" : "linr"
                      },
                      "anchor1" : {
                        "type" : "double",
                        "defaultValue" : 0.0,
                        "interp" : "linr"
                      },
                      "anchor2" : {
                        "type" : "double",
                        "defaultValue" : 0.0,
                        "interp" : "linr"
                      }
                    },
                    "effects" : [

                    ],
                    "start" : 24886,
                    "duration" : 150,
                    "mediaStart" : 0,
                    "mediaDuration" : 1,
                    "scalar" : 1,
                    "metadata" : {
                      "WinSubProjectDisplayName" : "",
                      "clipSpeedAttribute" : false,
                      "default-scale" : "1",
                      "effectApplied" : "none"
                    },
                    "animationTracks" : {

                    }
                  }
                ],
                "transitions" : [
                  {
                    "name" : "Fade",
                    "duration" : 30,
                    "trivial" : true,
                    "reverse" : false,
                    "useAudioPreRoll" : true,
                    "useVisualPreRoll" : true,
                    "rightMedia" : 39
                  },
                  {
                    "name" : "Fade",
                    "duration" : 30,
                    "trivial" : true,
                    "reverse" : false,
                    "useAudioPreRoll" : true,
                    "useVisualPreRoll" : true,
                    "leftMedia" : 39
                  }
                ]
              },
              {
                "trackIndex" : 7,
                "medias" : [
                  {
                    "id" : 40,
                    "_type" : "Callout",
                    "def" : {
                      "kind" : "TypeWinText",
                      "shape" : "",
                      "style" : "",
                      "Style" : 5.0,
                      "dimensionTime" : 0.0,
                      "height" : 180.0,
                      "line-spacing" : 0.0,
                      "textIgnoresOpacity" : 0.0,
                      "textRectHeight" : 1.0,
                      "textRectWidth" : 1.0,
                      "textRectX" : 0.0,
                      "textRectY" : 0.0,
                      "textVerticalAlign" : -1.0,
                      "width" : 320.0,
                      "filename" : "C:\\Program Files\\TechSmith\\Camtasia 9\\Media\\Studio\\Callouts\\trans_100x100.xml",
                      "horizontal-alignment" : "center",
                      "name" : "Text",
                      "resize-behavior" : "resizeText",
                      "text" : "{\\rtf1\\ansi\\ansicpg1252\\deff0\\nouicompat\\deflang1033{\\fonttbl{\\f0\\fnil\\fcharset0 Quicksand;}}\r\n{\\colortbl ;\\red255\\green255\\blue255;}\r\n{\\*\\generator Riched20 10.0.18362}\\viewkind4\\uc1 \r\n\\pard\\cf1\\f0\\fs80 The Complete\\par\r\n\\b\\fs90 Java Developer Course\\par\r\n}\r\n",
                      "vertical-alignment" : "center",
                      "xmlContent" : "ï»¿<?xml version=\"1.0\"?>\n\n<Overlay version=\"1.0.1\">\n\n<Overlay_Filename>trans_100x100.png</Overlay_Filename>\n<Overlay_Name>Text</Overlay_Name>\n<Text_Top>0</Text_Top>\n<Text_Left>0</Text_Left>\n<Text_Bottom>0</Text_Bottom>\n<Text_Right>0</Text_Right>\n<Fill_Color>0</Fill_Color>\n<Border_Color>0</Border_Color>\n<Style>5</Style>\n</Overlay>",
                      "textAttributes" : {
                        "type" : "textAttributeList",
                        "keyframes" : [
                          {
                            "endTime" : 0,
                            "time" : 0,
                            "value" : null,
                            "duration" : 0
                          }
                        ]
                      }
                    },
                    "attributes" : {
                      "autoRotateText" : true
                    },
                    "parameters" : {
                      "translation0" : -70.9521418731169,
                      "translation1" : 239.738828503294,
                      "scale0" : 3.12385809835021,
                      "scale1" : 1.00002854389906
                    },
                    "effects" : [

                    ],
                    "start" : 0,
                    "duration" : 150,
                    "mediaStart" : 0,
                    "mediaDuration" : 150,
                    "scalar" : 1,
                    "metadata" : {
                      "WinSubProjectDisplayName" : "",
                      "clipSpeedAttribute" : false,
                      "default-legacy-fill-style" : 5.0,
                      "default-legacy-text-callout-vertical-align" : "middle",
                      "default-scale0" : 1.0,
                      "default-scale1" : 1.0,
                      "default-text" : "{\\rtf1\\ansi\\ansicpg1252\\deff0\\deflang1033{\\fonttbl{\\f0\\fswiss\\fprq2\\fcharset0 Arial;}}{\\colortbl ;\\red255\\green255\\blue255;}\\viewkind4\\uc1\\pard\\qc\\cf1\\fs72 abc}",
                      "default-translation0" : 0.0,
                      "default-translation1" : 0.0
                    },
                    "animationTracks" : {

                    }
                  },
                  {
                    "id" : 41,
                    "_type" : "Callout",
                    "def" : {
                      "kind" : "TypeWinText",
                      "shape" : "",
                      "style" : "",
                      "Style" : 5.0,
                      "dimensionTime" : 0.0,
                      "height" : 180.0,
                      "line-spacing" : 0.0,
                      "textIgnoresOpacity" : 0.0,
                      "textRectHeight" : 1.0,
                      "textRectWidth" : 1.0,
                      "textRectX" : 0.0,
                      "textRectY" : 0.0,
                      "textVerticalAlign" : -1.0,
                      "width" : 320.0,
                      "filename" : "C:\\Program Files\\TechSmith\\Camtasia 9\\Media\\Studio\\Callouts\\trans_100x100.xml",
                      "horizontal-alignment" : "center",
                      "name" : "Text",
                      "resize-behavior" : "resizeText",
                      "text" : "{\\rtf1\\ansi\\ansicpg1252\\deff0\\nouicompat\\deflang1033{\\fonttbl{\\f0\\fnil\\fcharset0 Quicksand;}}\r\n{\\colortbl ;\\red255\\green255\\blue255;}\r\n{\\*\\generator Riched20 10.0.18362}\\viewkind4\\uc1 \r\n\\pard\\cf1\\f0\\fs80 The Complete\\par\r\n\\b\\fs90 Java Developer Course\\par\r\n}\r\n",
                      "vertical-alignment" : "center",
                      "xmlContent" : "ï»¿<?xml version=\"1.0\"?>\n\n<Overlay version=\"1.0.1\">\n\n<Overlay_Filename>trans_100x100.png</Overlay_Filename>\n<Overlay_Name>Text</Overlay_Name>\n<Text_Top>0</Text_Top>\n<Text_Left>0</Text_Left>\n<Text_Bottom>0</Text_Bottom>\n<Text_Right>0</Text_Right>\n<Fill_Color>0</Fill_Color>\n<Border_Color>0</Border_Color>\n<Style>5</Style>\n</Overlay>",
                      "textAttributes" : {
                        "type" : "textAttributeList",
                        "keyframes" : [
                          {
                            "endTime" : 0,
                            "time" : 0,
                            "value" : null,
                            "duration" : 0
                          }
                        ]
                      }
                    },
                    "attributes" : {
                      "autoRotateText" : true
                    },
                    "parameters" : {
                      "translation0" : -70.9521418731169,
                      "translation1" : 239.738828503294,
                      "scale0" : 3.12385809835021,
                      "scale1" : 1.00002854389906
                    },
                    "effects" : [

                    ],
                    "start" : 24886,
                    "duration" : 150,
                    "mediaStart" : 0,
                    "mediaDuration" : 150,
                    "scalar" : 1,
                    "metadata" : {
                      "WinSubProjectDisplayName" : "",
                      "clipSpeedAttribute" : false,
                      "default-legacy-fill-style" : 5.0,
                      "default-legacy-text-callout-vertical-align" : "middle",
                      "default-scale0" : 1.0,
                      "default-scale1" : 1.0,
                      "default-text" : "{\\rtf1\\ansi\\ansicpg1252\\deff0\\deflang1033{\\fonttbl{\\f0\\fswiss\\fprq2\\fcharset0 Arial;}}{\\colortbl ;\\red255\\green255\\blue255;}\\viewkind4\\uc1\\pard\\qc\\cf1\\fs72 abc}",
                      "default-translation0" : 0.0,
                      "default-translation1" : 0.0
                    },
                    "animationTracks" : {

                    }
                  }
                ],
                "transitions" : [
                  {
                    "name" : "Fade",
                    "duration" : 30,
                    "trivial" : true,
                    "reverse" : false,
                    "useAudioPreRoll" : true,
                    "useVisualPreRoll" : true,
                    "leftMedia" : 40
                  },
                  {
                    "name" : "Fade",
                    "duration" : 30,
                    "trivial" : true,
                    "reverse" : false,
                    "useAudioPreRoll" : true,
                    "useVisualPreRoll" : true,
                    "rightMedia" : 41
                  },
                  {
                    "name" : "Fade",
                    "duration" : 30,
                    "trivial" : true,
                    "reverse" : false,
                    "useAudioPreRoll" : true,
                    "useVisualPreRoll" : true,
                    "leftMedia" : 41
                  }
                ]
              },
              {
                "trackIndex" : 8,
                "medias" : [
                  {
                    "id" : 42,
                    "_type" : "IMFile",
                    "src" : 4,
                    "trackNumber" : 0,
                    "trimStartSum" : 0,
                    "attributes" : {
                      "ident" : "Head"
                    },
                    "parameters" : {
                      "translation0" : 513.825000000109,
                      "translation1" : -179.200000000031,
                      "scale0" : 0.35,
                      "scale1" : 0.35
                    },
                    "effects" : [

                    ],
                    "start" : 0,
                    "duration" : 150,
                    "mediaStart" : 0,
                    "mediaDuration" : 1,
                    "scalar" : 1,
                    "metadata" : {
                      "WinSubProjectDisplayName" : "",
                      "clipSpeedAttribute" : false,
                      "default-scale0" : 0.703125,
                      "default-scale1" : 0.703125,
                      "default-translation0" : 0.0,
                      "default-translation1" : 0.0
                    },
                    "animationTracks" : {

                    }
                  },
                  {
                    "id" : 43,
                    "_type" : "IMFile",
                    "src" : 4,
                    "trackNumber" : 0,
                    "trimStartSum" : 0,
                    "attributes" : {
                      "ident" : "Head"
                    },
                    "parameters" : {
                      "translation0" : 513.834134047442,
                      "translation1" : -180.805137901533,
                      "scale0" : 0.35,
                      "scale1" : 0.35
                    },
                    "effects" : [

                    ],
                    "start" : 24885,
                    "duration" : 150,
                    "mediaStart" : 0,
                    "mediaDuration" : 1,
                    "scalar" : 1,
                    "metadata" : {
                      "WinSubProjectDisplayName" : "",
                      "clipSpeedAttribute" : false,
                      "default-scale0" : 0.703125,
                      "default-scale1" : 0.703125,
                      "default-translation0" : 0.0,
                      "default-translation1" : 0.0
                    },
                    "animationTracks" : {

                    }
                  }
                ],
                "transitions" : [
                  {
                    "name" : "Fade",
                    "duration" : 30,
                    "trivial" : false,
                    "reverse" : false,
                    "useAudioPreRoll" : true,
                    "useVisualPreRoll" : true,
                    "leftMedia" : 42
                  },
                  {
                    "name" : "Fade",
                    "duration" : 30,
                    "trivial" : false,
                    "reverse" : false,
                    "useAudioPreRoll" : true,
                    "useVisualPreRoll" : true,
                    "rightMedia" : 43
                  },
                  {
                    "name" : "Fade",
                    "duration" : 30,
                    "trivial" : false,
                    "reverse" : false,
                    "useAudioPreRoll" : true,
                    "useVisualPreRoll" : true,
                    "leftMedia" : 43
                  }
                ]
              },
              {
                "trackIndex" : 9,
                "medias" : [
                  {
                    "id" : 44,
                    "_type" : "IMFile",
                    "src" : 5,
                    "trackNumber" : 0,
                    "trimStartSum" : 0,
                    "attributes" : {
                      "ident" : "Slide1"
                    },
                    "effects" : [

                    ],
                    "start" : 150,
                    "duration" : 564,
                    "mediaStart" : 0,
                    "mediaDuration" : 1,
                    "scalar" : 1,
                    "metadata" : {
                      "clipSpeedAttribute" : false
                    },
                    "animationTracks" : {

                    }
                  },
                  {
                    "id" : 45,
                    "_type" : "StitchedMedia",
                    "minMediaStart" : 0,
                    "attributes" : {
                      "ident" : "Rec 11-10-20",
                      "gain" : 1.0,
                      "mixToMono" : false
                    },
                    "parameters" : {
                      "translation0" : {
                        "type" : "double",
                        "defaultValue" : 0.0,
                        "keyframes" : [
                          {
                            "endTime" : 1589,
                            "time" : 1559,
                            "value" : 270.765535676659,
                            "duration" : 30
                          }
                        ]
                      },
                      "translation1" : {
                        "type" : "double",
                        "defaultValue" : 0.0,
                        "keyframes" : [
                          {
                            "endTime" : 1589,
                            "time" : 1559,
                            "value" : -152.305597927368,
                            "duration" : 30
                          }
                        ]
                      },
                      "scale0" : {
                        "type" : "double",
                        "defaultValue" : 0.666666666666667,
                        "keyframes" : [
                          {
                            "endTime" : 1589,
                            "time" : 1559,
                            "value" : 0.948714046227447,
                            "duration" : 30
                          }
                        ]
                      },
                      "scale1" : {
                        "type" : "double",
                        "defaultValue" : 0.666666666666667,
                        "keyframes" : [
                          {
                            "endTime" : 1589,
                            "time" : 1559,
                            "value" : 0.948714118813814,
                            "duration" : 30
                          }
                        ]
                      },
                      "volume" : 1.0,
                      "cursorOpacity" : 1.0,
                      "cursorScale" : 1.0
                    },
                    "medias" : [
                        {
                          "id" : 46,
                          "_type" : "UnifiedMedia",
                          "video" : 
                              {
                                "id" : 47,
                                "_type" : "ScreenVMFile",
                                "src" : 26,
                                "trackNumber" : 0,
                                "attributes" : {
                                  "ident" : "Rec 11-10-20"
                                },
                                "parameters" : {
                                  "cursorScale" : {
                                    "type" : "double",
                                    "defaultValue" : 0.0,
                                    "interp" : "linr"
                                  },
                                  "cursorOpacity" : {
                                    "type" : "double",
                                    "defaultValue" : 0.0,
                                    "interp" : "linr"
                                  }
                                },
                                "effects" : [

                                ],
                                "start" : 0,
                                "duration" : 6585,
                                "mediaStart" : 0,
                                "mediaDuration" : 6585,
                                "scalar" : 1,
                                "animationTracks" : {

                                }
                              },
                          "audio" : 
                              {
                                "id" : 48,
                                "_type" : "AMFile",
                                "src" : 26,
                                "trackNumber" : 2,
                                "attributes" : {
                                  "ident" : "",
                                  "gain" : 1.0,
                                  "mixToMono" : false
                                },
                                  "channelNumber" : "0,1",
                                "effects" : [

                                ],
                                "start" : 0,
                                "duration" : 6585,
                                "mediaStart" : 0,
                                "mediaDuration" : 6585,
                                "scalar" : 1,
                                "animationTracks" : {

                                }
                              }
,
                          "start" : 0,
                          "duration" : 6585,
                          "mediaStart" : 0,
                          "mediaDuration" : 27772,
                          "scalar" : 1,
                          "metadata" : {
                            "AutoAppliedSmartFocus" : "False",
                            "clipSpeedAttribute" : false,
                            "default-scale0" : 0.666666666666667,
                            "default-scale1" : 0.666666666666667,
                            "default-translation0" : 0.0,
                            "default-translation1" : 0.0
                          }
                        },
                        {
                          "id" : 49,
                          "_type" : "UnifiedMedia",
                          "video" : 
                              {
                                "id" : 50,
                                "_type" : "ScreenVMFile",
                                "src" : 26,
                                "trackNumber" : 0,
                                "attributes" : {
                                  "ident" : "Rec 11-10-20"
                                },
                                "parameters" : {
                                  "cursorScale" : {
                                    "type" : "double",
                                    "defaultValue" : 0.0,
                                    "interp" : "linr"
                                  },
                                  "cursorOpacity" : {
                                    "type" : "double",
                                    "defaultValue" : 0.0,
                                    "interp" : "linr"
                                  }
                                },
                                "effects" : [

                                ],
                                "start" : 6585,
                                "duration" : 6527,
                                "mediaStart" : 7257,
                                "mediaDuration" : 6527,
                                "scalar" : 1,
                                "animationTracks" : {

                                }
                              },
                          "audio" : 
                              {
                                "id" : 51,
                                "_type" : "AMFile",
                                "src" : 26,
                                "trackNumber" : 2,
                                "attributes" : {
                                  "ident" : "",
                                  "gain" : 1.0,
                                  "mixToMono" : false
                                },
                                  "channelNumber" : "0,1",
                                "effects" : [

                                ],
                                "start" : 6585,
                                "duration" : 6527,
                                "mediaStart" : 7257,
                                "mediaDuration" : 6527,
                                "scalar" : 1,
                                "animationTracks" : {

                                }
                              }
,
                          "start" : 6585,
                          "duration" : 6527,
                          "mediaStart" : 0,
                          "mediaDuration" : 27772,
                          "scalar" : 1,
                          "metadata" : {
                            "AutoAppliedSmartFocus" : "False",
                            "clipSpeedAttribute" : false,
                            "default-scale0" : 0.666666666666667,
                            "default-scale1" : 0.666666666666667,
                            "default-translation0" : 0.0,
                            "default-translation1" : 0.0
                          }
                        },
                        {
                          "id" : 52,
                          "_type" : "UnifiedMedia",
                          "video" : 
                              {
                                "id" : 53,
                                "_type" : "ScreenVMFile",
                                "src" : 26,
                                "trackNumber" : 0,
                                "attributes" : {
                                  "ident" : "Rec 11-10-20"
                                },
                                "parameters" : {
                                  "cursorScale" : {
                                    "type" : "double",
                                    "defaultValue" : 0.0,
                                    "interp" : "linr"
                                  },
                                  "cursorOpacity" : {
                                    "type" : "double",
                                    "defaultValue" : 0.0,
                                    "interp" : "linr"
                                  }
                                },
                                "effects" : [

                                ],
                                "start" : 13112,
                                "duration" : 82,
                                "mediaStart" : 13808,
                                "mediaDuration" : 82,
                                "scalar" : 1,
                                "animationTracks" : {

                                }
                              },
                          "audio" : 
                              {
                                "id" : 54,
                                "_type" : "AMFile",
                                "src" : 26,
                                "trackNumber" : 2,
                                "attributes" : {
                                  "ident" : "",
                                  "gain" : 1.0,
                                  "mixToMono" : false
                                },
                                  "channelNumber" : "0,1",
                                "effects" : [

                                ],
                                "start" : 13112,
                                "duration" : 82,
                                "mediaStart" : 13808,
                                "mediaDuration" : 82,
                                "scalar" : 1,
                                "animationTracks" : {

                                }
                              }
,
                          "start" : 13112,
                          "duration" : 82,
                          "mediaStart" : 0,
                          "mediaDuration" : 27772,
                          "scalar" : 1,
                          "metadata" : {
                            "AutoAppliedSmartFocus" : "False",
                            "clipSpeedAttribute" : false,
                            "default-scale0" : 0.666666666666667,
                            "default-scale1" : 0.666666666666667,
                            "default-translation0" : 0.0,
                            "default-translation1" : 0.0
                          }
                        },
                        {
                          "id" : 55,
                          "_type" : "UnifiedMedia",
                          "video" : 
                              {
                                "id" : 56,
                                "_type" : "ScreenVMFile",
                                "src" : 26,
                                "trackNumber" : 0,
                                "attributes" : {
                                  "ident" : "Rec 11-10-20"
                                },
                                "parameters" : {
                                  "cursorScale" : {
                                    "type" : "double",
                                    "defaultValue" : 0.0,
                                    "interp" : "linr"
                                  },
                                  "cursorOpacity" : {
                                    "type" : "double",
                                    "defaultValue" : 0.0,
                                    "interp" : "linr"
                                  }
                                },
                                "effects" : [

                                ],
                                "start" : 13194,
                                "duration" : 149,
                                "mediaStart" : 13909,
                                "mediaDuration" : 149,
                                "scalar" : 1,
                                "animationTracks" : {

                                }
                              },
                          "audio" : 
                              {
                                "id" : 57,
                                "_type" : "AMFile",
                                "src" : 26,
                                "trackNumber" : 2,
                                "attributes" : {
                                  "ident" : "",
                                  "gain" : 1.0,
                                  "mixToMono" : false
                                },
                                  "channelNumber" : "0,1",
                                "effects" : [

                                ],
                                "start" : 13194,
                                "duration" : 149,
                                "mediaStart" : 13909,
                                "mediaDuration" : 149,
                                "scalar" : 1,
                                "animationTracks" : {

                                }
                              }
,
                          "start" : 13194,
                          "duration" : 149,
                          "mediaStart" : 0,
                          "mediaDuration" : 27772,
                          "scalar" : 1,
                          "metadata" : {
                            "AutoAppliedSmartFocus" : "False",
                            "clipSpeedAttribute" : false,
                            "default-scale0" : 0.666666666666667,
                            "default-scale1" : 0.666666666666667,
                            "default-translation0" : 0.0,
                            "default-translation1" : 0.0
                          }
                        },
                        {
                          "id" : 58,
                          "_type" : "UnifiedMedia",
                          "video" : 
                              {
                                "id" : 59,
                                "_type" : "ScreenVMFile",
                                "src" : 26,
                                "trackNumber" : 0,
                                "attributes" : {
                                  "ident" : "Rec 11-10-20"
                                },
                                "parameters" : {
                                  "cursorScale" : {
                                    "type" : "double",
                                    "defaultValue" : 0.0,
                                    "interp" : "linr"
                                  },
                                  "cursorOpacity" : {
                                    "type" : "double",
                                    "defaultValue" : 0.0,
                                    "interp" : "linr"
                                  }
                                },
                                "effects" : [

                                ],
                                "start" : 13343,
                                "duration" : 1886,
                                "mediaStart" : 14258,
                                "mediaDuration" : 1886,
                                "scalar" : 1,
                                "animationTracks" : {

                                }
                              },
                          "audio" : 
                              {
                                "id" : 60,
                                "_type" : "AMFile",
                                "src" : 26,
                                "trackNumber" : 2,
                                "attributes" : {
                                  "ident" : "",
                                  "gain" : 1.0,
                                  "mixToMono" : false
                                },
                                  "channelNumber" : "0,1",
                                "effects" : [

                                ],
                                "start" : 13343,
                                "duration" : 1886,
                                "mediaStart" : 14258,
                                "mediaDuration" : 1886,
                                "scalar" : 1,
                                "animationTracks" : {

                                }
                              }
,
                          "start" : 13343,
                          "duration" : 1886,
                          "mediaStart" : 0,
                          "mediaDuration" : 27772,
                          "scalar" : 1,
                          "metadata" : {
                            "AutoAppliedSmartFocus" : "False",
                            "clipSpeedAttribute" : false,
                            "default-scale0" : 0.666666666666667,
                            "default-scale1" : 0.666666666666667,
                            "default-translation0" : 0.0,
                            "default-translation1" : 0.0
                          }
                        },
                        {
                          "id" : 61,
                          "_type" : "UnifiedMedia",
                          "video" : 
                              {
                                "id" : 62,
                                "_type" : "ScreenVMFile",
                                "src" : 26,
                                "trackNumber" : 0,
                                "attributes" : {
                                  "ident" : "Rec 11-10-20"
                                },
                                "parameters" : {
                                  "cursorScale" : {
                                    "type" : "double",
                                    "defaultValue" : 0.0,
                                    "interp" : "linr"
                                  },
                                  "cursorOpacity" : {
                                    "type" : "double",
                                    "defaultValue" : 0.0,
                                    "interp" : "linr"
                                  }
                                },
                                "effects" : [

                                ],
                                "start" : 15229,
                                "duration" : 2427,
                                "mediaStart" : 16186,
                                "mediaDuration" : 2427,
                                "scalar" : 1,
                                "animationTracks" : {

                                }
                              },
                          "audio" : 
                              {
                                "id" : 63,
                                "_type" : "AMFile",
                                "src" : 26,
                                "trackNumber" : 2,
                                "attributes" : {
                                  "ident" : "",
                                  "gain" : 1.0,
                                  "mixToMono" : false
                                },
                                  "channelNumber" : "0,1",
                                "effects" : [

                                ],
                                "start" : 15229,
                                "duration" : 2427,
                                "mediaStart" : 16186,
                                "mediaDuration" : 2427,
                                "scalar" : 1,
                                "animationTracks" : {

                                }
                              }
,
                          "start" : 15229,
                          "duration" : 2427,
                          "mediaStart" : 0,
                          "mediaDuration" : 27772,
                          "scalar" : 1,
                          "metadata" : {
                            "AutoAppliedSmartFocus" : "False",
                            "clipSpeedAttribute" : false,
                            "default-scale0" : 0.666666666666667,
                            "default-scale1" : 0.666666666666667,
                            "default-translation0" : 0.0,
                            "default-translation1" : 0.0
                          }
                        },
                        {
                          "id" : 64,
                          "_type" : "UnifiedMedia",
                          "video" : 
                              {
                                "id" : 65,
                                "_type" : "ScreenVMFile",
                                "src" : 26,
                                "trackNumber" : 0,
                                "attributes" : {
                                  "ident" : "Rec 11-10-20"
                                },
                                "parameters" : {
                                  "cursorScale" : {
                                    "type" : "double",
                                    "defaultValue" : 0.0,
                                    "interp" : "linr"
                                  },
                                  "cursorOpacity" : {
                                    "type" : "double",
                                    "defaultValue" : 0.0,
                                    "interp" : "linr"
                                  }
                                },
                                "effects" : [

                                ],
                                "start" : 17656,
                                "duration" : 8783,
                                "mediaStart" : 18989,
                                "mediaDuration" : 8783,
                                "scalar" : 1,
                                "animationTracks" : {

                                }
                              },
                          "audio" : 
                              {
                                "id" : 66,
                                "_type" : "AMFile",
                                "src" : 26,
                                "trackNumber" : 2,
                                "attributes" : {
                                  "ident" : "",
                                  "gain" : 1.0,
                                  "mixToMono" : false
                                },
                                  "channelNumber" : "0,1",
                                "effects" : [

                                ],
                                "start" : 17656,
                                "duration" : 8783,
                                "mediaStart" : 18989,
                                "mediaDuration" : 8783,
                                "scalar" : 1,
                                "animationTracks" : {

                                }
                              }
,
                          "start" : 17656,
                          "duration" : 8783,
                          "mediaStart" : 0,
                          "mediaDuration" : 27772,
                          "scalar" : 1,
                          "metadata" : {
                            "AutoAppliedSmartFocus" : "False",
                            "clipSpeedAttribute" : false,
                            "default-scale0" : 0.666666666666667,
                            "default-scale1" : 0.666666666666667,
                            "default-translation0" : 0.0,
                            "default-translation1" : 0.0
                          }
                        }
                    ],
                    "effects" : [

                    ],
                    "start" : 714,
                    "duration" : 16125,
                    "mediaStart" : 1525,
                    "mediaDuration" : 16125,
                    "scalar" : 1,
                    "metadata" : {
                      "AutoAppliedSmartFocus" : "False",
                      "clipSpeedAttribute" : false
                    },
                    "animationTracks" : {
                      "visual" : [
                        {
                          "endTime" : 1589,
                          "duration" : 30,
                          "range" : [ 1559, 30]
                        }
                      ]
                    }
                  },
                  {
                    "id" : 67,
                    "_type" : "StitchedMedia",
                    "minMediaStart" : 0,
                    "attributes" : {
                      "ident" : "Rec 11-10-20",
                      "gain" : 1.0,
                      "mixToMono" : false
                    },
                    "parameters" : {
                      "translation0" : {
                        "type" : "double",
                        "defaultValue" : 0.0,
                        "keyframes" : [
                          {
                            "endTime" : 1589,
                            "time" : 1559,
                            "value" : 270.765535676659,
                            "duration" : 30
                          }
                        ]
                      },
                      "translation1" : {
                        "type" : "double",
                        "defaultValue" : 0.0,
                        "keyframes" : [
                          {
                            "endTime" : 1589,
                            "time" : 1559,
                            "value" : -152.305597927368,
                            "duration" : 30
                          }
                        ]
                      },
                      "scale0" : {
                        "type" : "double",
                        "defaultValue" : 0.666666666666667,
                        "keyframes" : [
                          {
                            "endTime" : 1589,
                            "time" : 1559,
                            "value" : 0.948714046227447,
                            "duration" : 30
                          }
                        ]
                      },
                      "scale1" : {
                        "type" : "double",
                        "defaultValue" : 0.666666666666667,
                        "keyframes" : [
                          {
                            "endTime" : 1589,
                            "time" : 1559,
                            "value" : 0.948714118813814,
                            "duration" : 30
                          }
                        ]
                      },
                      "volume" : {
                        "type" : "double",
                        "keyframes" : [
                          {
                            "endTime" : 0,
                            "time" : 0,
                            "value" : 1.0,
                            "duration" : 0
                          },
                          {
                            "endTime" : 19718,
                            "time" : 19718,
                            "value" : 1.0,
                            "duration" : 0
                          },
                          {
                            "endTime" : 19719,
                            "time" : 19719,
                            "value" : 0.0,
                            "duration" : 0
                          },
                          {
                            "endTime" : 19866,
                            "time" : 19866,
                            "value" : 0.0,
                            "duration" : 0
                          },
                          {
                            "endTime" : 19867,
                            "time" : 19867,
                            "value" : 1.0,
                            "duration" : 0
                          }
                        ]
                      },
                      "cursorOpacity" : 1.0,
                      "cursorScale" : 1.0
                    },
                    "medias" : [
                        {
                          "id" : 68,
                          "_type" : "UnifiedMedia",
                          "video" : 
                              {
                                "id" : 69,
                                "_type" : "ScreenVMFile",
                                "src" : 26,
                                "trackNumber" : 0,
                                "attributes" : {
                                  "ident" : "Rec 11-10-20"
                                },
                                "parameters" : {
                                  "cursorScale" : {
                                    "type" : "double",
                                    "defaultValue" : 0.0,
                                    "interp" : "linr"
                                  },
                                  "cursorOpacity" : {
                                    "type" : "double",
                                    "defaultValue" : 0.0,
                                    "interp" : "linr"
                                  }
                                },
                                "effects" : [

                                ],
                                "start" : 0,
                                "duration" : 6585,
                                "mediaStart" : 0,
                                "mediaDuration" : 6585,
                                "scalar" : 1,
                                "animationTracks" : {

                                }
                              },
                          "audio" : 
                              {
                                "id" : 70,
                                "_type" : "AMFile",
                                "src" : 26,
                                "trackNumber" : 2,
                                "attributes" : {
                                  "ident" : "",
                                  "gain" : 1.0,
                                  "mixToMono" : false
                                },
                                  "channelNumber" : "0,1",
                                "effects" : [

                                ],
                                "start" : 0,
                                "duration" : 6585,
                                "mediaStart" : 0,
                                "mediaDuration" : 6585,
                                "scalar" : 1,
                                "animationTracks" : {

                                }
                              }
,
                          "start" : 0,
                          "duration" : 6585,
                          "mediaStart" : 0,
                          "mediaDuration" : 27772,
                          "scalar" : 1,
                          "metadata" : {
                            "AutoAppliedSmartFocus" : "False",
                            "clipSpeedAttribute" : false,
                            "default-scale0" : 0.666666666666667,
                            "default-scale1" : 0.666666666666667,
                            "default-translation0" : 0.0,
                            "default-translation1" : 0.0
                          }
                        },
                        {
                          "id" : 71,
                          "_type" : "UnifiedMedia",
                          "video" : 
                              {
                                "id" : 72,
                                "_type" : "ScreenVMFile",
                                "src" : 26,
                                "trackNumber" : 0,
                                "attributes" : {
                                  "ident" : "Rec 11-10-20"
                                },
                                "parameters" : {
                                  "cursorScale" : {
                                    "type" : "double",
                                    "defaultValue" : 0.0,
                                    "interp" : "linr"
                                  },
                                  "cursorOpacity" : {
                                    "type" : "double",
                                    "defaultValue" : 0.0,
                                    "interp" : "linr"
                                  }
                                },
                                "effects" : [

                                ],
                                "start" : 6585,
                                "duration" : 6527,
                                "mediaStart" : 7257,
                                "mediaDuration" : 6527,
                                "scalar" : 1,
                                "animationTracks" : {

                                }
                              },
                          "audio" : 
                              {
                                "id" : 73,
                                "_type" : "AMFile",
                                "src" : 26,
                                "trackNumber" : 2,
                                "attributes" : {
                                  "ident" : "",
                                  "gain" : 1.0,
                                  "mixToMono" : false
                                },
                                  "channelNumber" : "0,1",
                                "effects" : [

                                ],
                                "start" : 6585,
                                "duration" : 6527,
                                "mediaStart" : 7257,
                                "mediaDuration" : 6527,
                                "scalar" : 1,
                                "animationTracks" : {

                                }
                              }
,
                          "start" : 6585,
                          "duration" : 6527,
                          "mediaStart" : 0,
                          "mediaDuration" : 27772,
                          "scalar" : 1,
                          "metadata" : {
                            "AutoAppliedSmartFocus" : "False",
                            "clipSpeedAttribute" : false,
                            "default-scale0" : 0.666666666666667,
                            "default-scale1" : 0.666666666666667,
                            "default-translation0" : 0.0,
                            "default-translation1" : 0.0
                          }
                        },
                        {
                          "id" : 74,
                          "_type" : "UnifiedMedia",
                          "video" : 
                              {
                                "id" : 75,
                                "_type" : "ScreenVMFile",
                                "src" : 26,
                                "trackNumber" : 0,
                                "attributes" : {
                                  "ident" : "Rec 11-10-20"
                                },
                                "parameters" : {
                                  "cursorScale" : {
                                    "type" : "double",
                                    "defaultValue" : 0.0,
                                    "interp" : "linr"
                                  },
                                  "cursorOpacity" : {
                                    "type" : "double",
                                    "defaultValue" : 0.0,
                                    "interp" : "linr"
                                  }
                                },
                                "effects" : [

                                ],
                                "start" : 13112,
                                "duration" : 82,
                                "mediaStart" : 13808,
                                "mediaDuration" : 82,
                                "scalar" : 1,
                                "animationTracks" : {

                                }
                              },
                          "audio" : 
                              {
                                "id" : 76,
                                "_type" : "AMFile",
                                "src" : 26,
                                "trackNumber" : 2,
                                "attributes" : {
                                  "ident" : "",
                                  "gain" : 1.0,
                                  "mixToMono" : false
                                },
                                  "channelNumber" : "0,1",
                                "effects" : [

                                ],
                                "start" : 13112,
                                "duration" : 82,
                                "mediaStart" : 13808,
                                "mediaDuration" : 82,
                                "scalar" : 1,
                                "animationTracks" : {

                                }
                              }
,
                          "start" : 13112,
                          "duration" : 82,
                          "mediaStart" : 0,
                          "mediaDuration" : 27772,
                          "scalar" : 1,
                          "metadata" : {
                            "AutoAppliedSmartFocus" : "False",
                            "clipSpeedAttribute" : false,
                            "default-scale0" : 0.666666666666667,
                            "default-scale1" : 0.666666666666667,
                            "default-translation0" : 0.0,
                            "default-translation1" : 0.0
                          }
                        },
                        {
                          "id" : 77,
                          "_type" : "UnifiedMedia",
                          "video" : 
                              {
                                "id" : 78,
                                "_type" : "ScreenVMFile",
                                "src" : 26,
                                "trackNumber" : 0,
                                "attributes" : {
                                  "ident" : "Rec 11-10-20"
                                },
                                "parameters" : {
                                  "cursorScale" : {
                                    "type" : "double",
                                    "defaultValue" : 0.0,
                                    "interp" : "linr"
                                  },
                                  "cursorOpacity" : {
                                    "type" : "double",
                                    "defaultValue" : 0.0,
                                    "interp" : "linr"
                                  }
                                },
                                "effects" : [

                                ],
                                "start" : 13194,
                                "duration" : 149,
                                "mediaStart" : 13909,
                                "mediaDuration" : 149,
                                "scalar" : 1,
                                "animationTracks" : {

                                }
                              },
                          "audio" : 
                              {
                                "id" : 79,
                                "_type" : "AMFile",
                                "src" : 26,
                                "trackNumber" : 2,
                                "attributes" : {
                                  "ident" : "",
                                  "gain" : 1.0,
                                  "mixToMono" : false
                                },
                                  "channelNumber" : "0,1",
                                "effects" : [

                                ],
                                "start" : 13194,
                                "duration" : 149,
                                "mediaStart" : 13909,
                                "mediaDuration" : 149,
                                "scalar" : 1,
                                "animationTracks" : {

                                }
                              }
,
                          "start" : 13194,
                          "duration" : 149,
                          "mediaStart" : 0,
                          "mediaDuration" : 27772,
                          "scalar" : 1,
                          "metadata" : {
                            "AutoAppliedSmartFocus" : "False",
                            "clipSpeedAttribute" : false,
                            "default-scale0" : 0.666666666666667,
                            "default-scale1" : 0.666666666666667,
                            "default-translation0" : 0.0,
                            "default-translation1" : 0.0
                          }
                        },
                        {
                          "id" : 80,
                          "_type" : "UnifiedMedia",
                          "video" : 
                              {
                                "id" : 81,
                                "_type" : "ScreenVMFile",
                                "src" : 26,
                                "trackNumber" : 0,
                                "attributes" : {
                                  "ident" : "Rec 11-10-20"
                                },
                                "parameters" : {
                                  "cursorScale" : {
                                    "type" : "double",
                                    "defaultValue" : 0.0,
                                    "interp" : "linr"
                                  },
                                  "cursorOpacity" : {
                                    "type" : "double",
                                    "defaultValue" : 0.0,
                                    "interp" : "linr"
                                  }
                                },
                                "effects" : [

                                ],
                                "start" : 13343,
                                "duration" : 1886,
                                "mediaStart" : 14258,
                                "mediaDuration" : 1886,
                                "scalar" : 1,
                                "animationTracks" : {

                                }
                              },
                          "audio" : 
                              {
                                "id" : 82,
                                "_type" : "AMFile",
                                "src" : 26,
                                "trackNumber" : 2,
                                "attributes" : {
                                  "ident" : "",
                                  "gain" : 1.0,
                                  "mixToMono" : false
                                },
                                  "channelNumber" : "0,1",
                                "effects" : [

                                ],
                                "start" : 13343,
                                "duration" : 1886,
                                "mediaStart" : 14258,
                                "mediaDuration" : 1886,
                                "scalar" : 1,
                                "animationTracks" : {

                                }
                              }
,
                          "start" : 13343,
                          "duration" : 1886,
                          "mediaStart" : 0,
                          "mediaDuration" : 27772,
                          "scalar" : 1,
                          "metadata" : {
                            "AutoAppliedSmartFocus" : "False",
                            "clipSpeedAttribute" : false,
                            "default-scale0" : 0.666666666666667,
                            "default-scale1" : 0.666666666666667,
                            "default-translation0" : 0.0,
                            "default-translation1" : 0.0
                          }
                        },
                        {
                          "id" : 83,
                          "_type" : "UnifiedMedia",
                          "video" : 
                              {
                                "id" : 84,
                                "_type" : "ScreenVMFile",
                                "src" : 26,
                                "trackNumber" : 0,
                                "attributes" : {
                                  "ident" : "Rec 11-10-20"
                                },
                                "parameters" : {
                                  "cursorScale" : {
                                    "type" : "double",
                                    "defaultValue" : 0.0,
                                    "interp" : "linr"
                                  },
                                  "cursorOpacity" : {
                                    "type" : "double",
                                    "defaultValue" : 0.0,
                                    "interp" : "linr"
                                  }
                                },
                                "effects" : [

                                ],
                                "start" : 15229,
                                "duration" : 2427,
                                "mediaStart" : 16186,
                                "mediaDuration" : 2427,
                                "scalar" : 1,
                                "animationTracks" : {

                                }
                              },
                          "audio" : 
                              {
                                "id" : 85,
                                "_type" : "AMFile",
                                "src" : 26,
                                "trackNumber" : 2,
                                "attributes" : {
                                  "ident" : "",
                                  "gain" : 1.0,
                                  "mixToMono" : false
                                },
                                  "channelNumber" : "0,1",
                                "effects" : [

                                ],
                                "start" : 15229,
                                "duration" : 2427,
                                "mediaStart" : 16186,
                                "mediaDuration" : 2427,
                                "scalar" : 1,
                                "animationTracks" : {

                                }
                              }
,
                          "start" : 15229,
                          "duration" : 2427,
                          "mediaStart" : 0,
                          "mediaDuration" : 27772,
                          "scalar" : 1,
                          "metadata" : {
                            "AutoAppliedSmartFocus" : "False",
                            "clipSpeedAttribute" : false,
                            "default-scale0" : 0.666666666666667,
                            "default-scale1" : 0.666666666666667,
                            "default-translation0" : 0.0,
                            "default-translation1" : 0.0
                          }
                        },
                        {
                          "id" : 86,
                          "_type" : "UnifiedMedia",
                          "video" : 
                              {
                                "id" : 87,
                                "_type" : "ScreenVMFile",
                                "src" : 26,
                                "trackNumber" : 0,
                                "attributes" : {
                                  "ident" : "Rec 11-10-20"
                                },
                                "parameters" : {
                                  "cursorScale" : {
                                    "type" : "double",
                                    "defaultValue" : 0.0,
                                    "interp" : "linr"
                                  },
                                  "cursorOpacity" : {
                                    "type" : "double",
                                    "defaultValue" : 0.0,
                                    "interp" : "linr"
                                  }
                                },
                                "effects" : [

                                ],
                                "start" : 17656,
                                "duration" : 1136,
                                "mediaStart" : 18989,
                                "mediaDuration" : 1136,
                                "scalar" : 1,
                                "animationTracks" : {

                                }
                              },
                          "audio" : 
                              {
                                "id" : 88,
                                "_type" : "AMFile",
                                "src" : 26,
                                "trackNumber" : 2,
                                "attributes" : {
                                  "ident" : "",
                                  "gain" : 1.0,
                                  "mixToMono" : false
                                },
                                  "channelNumber" : "0,1",
                                "effects" : [

                                ],
                                "start" : 17656,
                                "duration" : 1136,
                                "mediaStart" : 18989,
                                "mediaDuration" : 1136,
                                "scalar" : 1,
                                "animationTracks" : {

                                }
                              }
,
                          "start" : 17656,
                          "duration" : 1136,
                          "mediaStart" : 0,
                          "mediaDuration" : 27772,
                          "scalar" : 1,
                          "metadata" : {
                            "AutoAppliedSmartFocus" : "False",
                            "clipSpeedAttribute" : false,
                            "default-scale0" : 0.666666666666667,
                            "default-scale1" : 0.666666666666667,
                            "default-translation0" : 0.0,
                            "default-translation1" : 0.0
                          }
                        },
                        {
                          "id" : 89,
                          "_type" : "UnifiedMedia",
                          "video" : 
                              {
                                "id" : 90,
                                "_type" : "ScreenVMFile",
                                "src" : 26,
                                "trackNumber" : 0,
                                "attributes" : {
                                  "ident" : "Rec 11-10-20"
                                },
                                "parameters" : {
                                  "cursorScale" : {
                                    "type" : "double",
                                    "defaultValue" : 0.0,
                                    "interp" : "linr"
                                  },
                                  "cursorOpacity" : {
                                    "type" : "double",
                                    "defaultValue" : 0.0,
                                    "interp" : "linr"
                                  }
                                },
                                "effects" : [

                                ],
                                "start" : 18792,
                                "duration" : 170,
                                "mediaStart" : 20479,
                                "mediaDuration" : 170,
                                "scalar" : 1,
                                "animationTracks" : {

                                }
                              },
                          "audio" : 
                              {
                                "id" : 91,
                                "_type" : "AMFile",
                                "src" : 26,
                                "trackNumber" : 2,
                                "attributes" : {
                                  "ident" : "",
                                  "gain" : 1.0,
                                  "mixToMono" : false
                                },
                                  "channelNumber" : "0,1",
                                "effects" : [

                                ],
                                "start" : 18792,
                                "duration" : 170,
                                "mediaStart" : 20479,
                                "mediaDuration" : 170,
                                "scalar" : 1,
                                "animationTracks" : {

                                }
                              }
,
                          "start" : 18792,
                          "duration" : 170,
                          "mediaStart" : 0,
                          "mediaDuration" : 27772,
                          "scalar" : 1,
                          "metadata" : {
                            "AutoAppliedSmartFocus" : "False",
                            "clipSpeedAttribute" : false,
                            "default-scale0" : 0.666666666666667,
                            "default-scale1" : 0.666666666666667,
                            "default-translation0" : 0.0,
                            "default-translation1" : 0.0
                          }
                        },
                        {
                          "id" : 92,
                          "_type" : "UnifiedMedia",
                          "video" : 
                              {
                                "id" : 93,
                                "_type" : "ScreenVMFile",
                                "src" : 26,
                                "trackNumber" : 0,
                                "attributes" : {
                                  "ident" : "Rec 11-10-20"
                                },
                                "parameters" : {
                                  "cursorScale" : {
                                    "type" : "double",
                                    "defaultValue" : 0.0,
                                    "interp" : "linr"
                                  },
                                  "cursorOpacity" : {
                                    "type" : "double",
                                    "defaultValue" : 0.0,
                                    "interp" : "linr"
                                  }
                                },
                                "effects" : [

                                ],
                                "start" : 18962,
                                "duration" : 848,
                                "mediaStart" : 21037,
                                "mediaDuration" : 848,
                                "scalar" : 1,
                                "animationTracks" : {

                                }
                              },
                          "audio" : 
                              {
                                "id" : 94,
                                "_type" : "AMFile",
                                "src" : 26,
                                "trackNumber" : 2,
                                "attributes" : {
                                  "ident" : "",
                                  "gain" : 1.0,
                                  "mixToMono" : false
                                },
                                  "channelNumber" : "0,1",
                                "effects" : [

                                ],
                                "start" : 18962,
                                "duration" : 848,
                                "mediaStart" : 21037,
                                "mediaDuration" : 848,
                                "scalar" : 1,
                                "animationTracks" : {

                                }
                              }
,
                          "start" : 18962,
                          "duration" : 848,
                          "mediaStart" : 0,
                          "mediaDuration" : 27772,
                          "scalar" : 1,
                          "metadata" : {
                            "AutoAppliedSmartFocus" : "False",
                            "clipSpeedAttribute" : false,
                            "default-scale0" : 0.666666666666667,
                            "default-scale1" : 0.666666666666667,
                            "default-translation0" : 0.0,
                            "default-translation1" : 0.0
                          }
                        },
                        {
                          "id" : 95,
                          "_type" : "UnifiedMedia",
                          "video" : 
                              {
                                "id" : 96,
                                "_type" : "ScreenVMFile",
                                "src" : 26,
                                "trackNumber" : 0,
                                "attributes" : {
                                  "ident" : "Rec 11-10-20"
                                },
                                "parameters" : {
                                  "cursorScale" : {
                                    "type" : "double",
                                    "defaultValue" : 0.0,
                                    "interp" : "linr"
                                  },
                                  "cursorOpacity" : {
                                    "type" : "double",
                                    "defaultValue" : 0.0,
                                    "interp" : "linr"
                                  }
                                },
                                "effects" : [

                                ],
                                "start" : 19810,
                                "duration" : 2781,
                                "mediaStart" : 22125,
                                "mediaDuration" : 2781,
                                "scalar" : 1,
                                "animationTracks" : {

                                }
                              },
                          "audio" : 
                              {
                                "id" : 97,
                                "_type" : "AMFile",
                                "src" : 26,
                                "trackNumber" : 2,
                                "attributes" : {
                                  "ident" : "",
                                  "gain" : 1.0,
                                  "mixToMono" : false
                                },
                                  "channelNumber" : "0,1",
                                "effects" : [

                                ],
                                "start" : 19810,
                                "duration" : 2781,
                                "mediaStart" : 22125,
                                "mediaDuration" : 2781,
                                "scalar" : 1,
                                "animationTracks" : {

                                }
                              }
,
                          "start" : 19810,
                          "duration" : 2781,
                          "mediaStart" : 0,
                          "mediaDuration" : 27772,
                          "scalar" : 1,
                          "metadata" : {
                            "AutoAppliedSmartFocus" : "False",
                            "clipSpeedAttribute" : false,
                            "default-scale0" : 0.666666666666667,
                            "default-scale1" : 0.666666666666667,
                            "default-translation0" : 0.0,
                            "default-translation1" : 0.0
                          }
                        },
                        {
                          "id" : 98,
                          "_type" : "UnifiedMedia",
                          "video" : 
                              {
                                "id" : 99,
                                "_type" : "ScreenVMFile",
                                "src" : 26,
                                "trackNumber" : 0,
                                "attributes" : {
                                  "ident" : "Rec 11-10-20"
                                },
                                "parameters" : {
                                  "cursorScale" : {
                                    "type" : "double",
                                    "defaultValue" : 0.0,
                                    "interp" : "linr"
                                  },
                                  "cursorOpacity" : {
                                    "type" : "double",
                                    "defaultValue" : 0.0,
                                    "interp" : "linr"
                                  }
                                },
                                "effects" : [

                                ],
                                "start" : 22591,
                                "duration" : 1830,
                                "mediaStart" : 25942,
                                "mediaDuration" : 1830,
                                "scalar" : 1,
                                "animationTracks" : {

                                }
                              },
                          "audio" : 
                              {
                                "id" : 100,
                                "_type" : "AMFile",
                                "src" : 26,
                                "trackNumber" : 2,
                                "attributes" : {
                                  "ident" : "",
                                  "gain" : 1.0,
                                  "mixToMono" : false
                                },
                                  "channelNumber" : "0,1",
                                "effects" : [

                                ],
                                "start" : 22591,
                                "duration" : 1830,
                                "mediaStart" : 25942,
                                "mediaDuration" : 1830,
                                "scalar" : 1,
                                "animationTracks" : {

                                }
                              }
,
                          "start" : 22591,
                          "duration" : 1830,
                          "mediaStart" : 0,
                          "mediaDuration" : 27772,
                          "scalar" : 1,
                          "metadata" : {
                            "AutoAppliedSmartFocus" : "False",
                            "clipSpeedAttribute" : false,
                            "default-scale0" : 0.666666666666667,
                            "default-scale1" : 0.666666666666667,
                            "default-translation0" : 0.0,
                            "default-translation1" : 0.0
                          }
                        }
                    ],
                    "effects" : [

                    ],
                    "start" : 18130,
                    "duration" : 6756,
                    "mediaStart" : 17650,
                    "mediaDuration" : 6756,
                    "scalar" : 1,
                    "metadata" : {
                      "AutoAppliedSmartFocus" : "False",
                      "clipSpeedAttribute" : false
                    },
                    "animationTracks" : {
                      "visual" : [
                        {
                          "endTime" : 1589,
                          "duration" : 30,
                          "range" : [ 1559, 30]
                        }
                      ]
                    }
                  }
                ],
                "transitions" : [
                  {
                    "name" : "Fade",
                    "duration" : 30,
                    "trivial" : false,
                    "reverse" : false,
                    "useAudioPreRoll" : true,
                    "useVisualPreRoll" : true,
                    "rightMedia" : 44
                  },
                  {
                    "name" : "Fade",
                    "duration" : 30,
                    "trivial" : false,
                    "reverse" : false,
                    "useAudioPreRoll" : true,
                    "useVisualPreRoll" : true,
                    "leftMedia" : 44,
                    "rightMedia" : 45
                  },
                  {
                    "name" : "Fade",
                    "duration" : 30,
                    "trivial" : false,
                    "reverse" : false,
                    "useAudioPreRoll" : true,
                    "useVisualPreRoll" : true,
                    "rightMedia" : 67
                  },
                  {
                    "name" : "Fade",
                    "duration" : 30,
                    "trivial" : false,
                    "reverse" : false,
                    "useAudioPreRoll" : true,
                    "useVisualPreRoll" : true,
                    "leftMedia" : 67
                  }
                ]
              },
              {
                "trackIndex" : 10,
                "medias" : [
                  {
                    "id" : 101,
                    "_type" : "StitchedMedia",
                    "minMediaStart" : 0,
                    "attributes" : {
                      "ident" : "s6-lec4-method-calls-recursion-fixed",
                      "gain" : 1.0,
                      "mixToMono" : false
                    },
                    "parameters" : {
                      "volume" : 1.0,
                      "cursorOpacity" : 1.0,
                      "cursorScale" : 1.0
                    },
                    "medias" : [
                        {
                          "id" : 102,
                          "_type" : "AMFile",
                          "src" : 27,
                          "trackNumber" : 0,
                          "attributes" : {
                            "ident" : "s6-lec4-method-calls-recursion-fixed",
                            "gain" : 1.0,
                            "mixToMono" : false
                          },
                            "channelNumber" : "0,1",
                          "effects" : [

                          ],
                          "start" : 0,
                          "duration" : 6584,
                          "mediaStart" : 0,
                          "mediaDuration" : 6584,
                          "scalar" : 1,
                          "metadata" : {
                            "clipSpeedAttribute" : false
                          },
                          "animationTracks" : {

                          }
                        },
                        {
                          "id" : 103,
                          "_type" : "AMFile",
                          "src" : 27,
                          "trackNumber" : 0,
                          "attributes" : {
                            "ident" : "s6-lec4-method-calls-recursion-fixed",
                            "gain" : 1.0,
                            "mixToMono" : false
                          },
                            "channelNumber" : "0,1",
                          "effects" : [

                          ],
                          "start" : 6584,
                          "duration" : 6527,
                          "mediaStart" : 7256,
                          "mediaDuration" : 6527,
                          "scalar" : 1,
                          "metadata" : {
                            "clipSpeedAttribute" : false
                          },
                          "animationTracks" : {

                          }
                        },
                        {
                          "id" : 104,
                          "_type" : "AMFile",
                          "src" : 27,
                          "trackNumber" : 0,
                          "attributes" : {
                            "ident" : "s6-lec4-method-calls-recursion-fixed",
                            "gain" : 1.0,
                            "mixToMono" : false
                          },
                            "channelNumber" : "0,1",
                          "effects" : [

                          ],
                          "start" : 13111,
                          "duration" : 82,
                          "mediaStart" : 13807,
                          "mediaDuration" : 82,
                          "scalar" : 1,
                          "metadata" : {
                            "clipSpeedAttribute" : false
                          },
                          "animationTracks" : {

                          }
                        },
                        {
                          "id" : 105,
                          "_type" : "AMFile",
                          "src" : 27,
                          "trackNumber" : 0,
                          "attributes" : {
                            "ident" : "s6-lec4-method-calls-recursion-fixed",
                            "gain" : 1.0,
                            "mixToMono" : false
                          },
                            "channelNumber" : "0,1",
                          "effects" : [

                          ],
                          "start" : 13193,
                          "duration" : 149,
                          "mediaStart" : 13908,
                          "mediaDuration" : 149,
                          "scalar" : 1,
                          "metadata" : {
                            "clipSpeedAttribute" : false
                          },
                          "animationTracks" : {

                          }
                        },
                        {
                          "id" : 106,
                          "_type" : "AMFile",
                          "src" : 27,
                          "trackNumber" : 0,
                          "attributes" : {
                            "ident" : "s6-lec4-method-calls-recursion-fixed",
                            "gain" : 1.0,
                            "mixToMono" : false
                          },
                            "channelNumber" : "0,1",
                          "effects" : [

                          ],
                          "start" : 13342,
                          "duration" : 1886,
                          "mediaStart" : 14257,
                          "mediaDuration" : 1886,
                          "scalar" : 1,
                          "metadata" : {
                            "clipSpeedAttribute" : false
                          },
                          "animationTracks" : {

                          }
                        },
                        {
                          "id" : 107,
                          "_type" : "AMFile",
                          "src" : 27,
                          "trackNumber" : 0,
                          "attributes" : {
                            "ident" : "s6-lec4-method-calls-recursion-fixed",
                            "gain" : 1.0,
                            "mixToMono" : false
                          },
                            "channelNumber" : "0,1",
                          "effects" : [

                          ],
                          "start" : 15228,
                          "duration" : 2427,
                          "mediaStart" : 16185,
                          "mediaDuration" : 2427,
                          "scalar" : 1,
                          "metadata" : {
                            "clipSpeedAttribute" : false
                          },
                          "animationTracks" : {

                          }
                        },
                        {
                          "id" : 108,
                          "_type" : "AMFile",
                          "src" : 27,
                          "trackNumber" : 0,
                          "attributes" : {
                            "ident" : "s6-lec4-method-calls-recursion-fixed",
                            "gain" : 1.0,
                            "mixToMono" : false
                          },
                            "channelNumber" : "0,1",
                          "effects" : [

                          ],
                          "start" : 17655,
                          "duration" : 8783,
                          "mediaStart" : 18988,
                          "mediaDuration" : 8783,
                          "scalar" : 1,
                          "metadata" : {
                            "clipSpeedAttribute" : false
                          },
                          "animationTracks" : {

                          }
                        }
                    ],
                    "effects" : [

                    ],
                    "start" : 0,
                    "duration" : 16839,
                    "mediaStart" : 810,
                    "mediaDuration" : 16839,
                    "scalar" : 1,
                    "metadata" : {
                      "clipSpeedAttribute" : false
                    },
                    "animationTracks" : {

                    }
                  },
                  {
                    "id" : 109,
                    "_type" : "StitchedMedia",
                    "minMediaStart" : 0,
                    "attributes" : {
                      "ident" : "s6-lec4-method-calls-recursion-fixed",
                      "gain" : 1.0,
                      "mixToMono" : false
                    },
                    "parameters" : {
                      "volume" : {
                        "type" : "double",
                        "keyframes" : [
                          {
                            "endTime" : 0,
                            "time" : 0,
                            "value" : 1.0,
                            "duration" : 0
                          },
                          {
                            "endTime" : 19717,
                            "time" : 19717,
                            "value" : 1.0,
                            "duration" : 0
                          },
                          {
                            "endTime" : 19718,
                            "time" : 19718,
                            "value" : 0.0,
                            "duration" : 0
                          },
                          {
                            "endTime" : 19865,
                            "time" : 19865,
                            "value" : 0.0,
                            "duration" : 0
                          },
                          {
                            "endTime" : 19866,
                            "time" : 19866,
                            "value" : 1.0,
                            "duration" : 0
                          }
                        ]
                      },
                      "cursorOpacity" : 1.0,
                      "cursorScale" : 1.0
                    },
                    "medias" : [
                        {
                          "id" : 110,
                          "_type" : "AMFile",
                          "src" : 27,
                          "trackNumber" : 0,
                          "attributes" : {
                            "ident" : "s6-lec4-method-calls-recursion-fixed",
                            "gain" : 1.0,
                            "mixToMono" : false
                          },
                            "channelNumber" : "0,1",
                          "effects" : [

                          ],
                          "start" : 0,
                          "duration" : 6584,
                          "mediaStart" : 0,
                          "mediaDuration" : 6584,
                          "scalar" : 1,
                          "metadata" : {
                            "clipSpeedAttribute" : false
                          },
                          "animationTracks" : {

                          }
                        },
                        {
                          "id" : 111,
                          "_type" : "AMFile",
                          "src" : 27,
                          "trackNumber" : 0,
                          "attributes" : {
                            "ident" : "s6-lec4-method-calls-recursion-fixed",
                            "gain" : 1.0,
                            "mixToMono" : false
                          },
                            "channelNumber" : "0,1",
                          "effects" : [

                          ],
                          "start" : 6584,
                          "duration" : 6527,
                          "mediaStart" : 7256,
                          "mediaDuration" : 6527,
                          "scalar" : 1,
                          "metadata" : {
                            "clipSpeedAttribute" : false
                          },
                          "animationTracks" : {

                          }
                        },
                        {
                          "id" : 112,
                          "_type" : "AMFile",
                          "src" : 27,
                          "trackNumber" : 0,
                          "attributes" : {
                            "ident" : "s6-lec4-method-calls-recursion-fixed",
                            "gain" : 1.0,
                            "mixToMono" : false
                          },
                            "channelNumber" : "0,1",
                          "effects" : [

                          ],
                          "start" : 13111,
                          "duration" : 82,
                          "mediaStart" : 13807,
                          "mediaDuration" : 82,
                          "scalar" : 1,
                          "metadata" : {
                            "clipSpeedAttribute" : false
                          },
                          "animationTracks" : {

                          }
                        },
                        {
                          "id" : 113,
                          "_type" : "AMFile",
                          "src" : 27,
                          "trackNumber" : 0,
                          "attributes" : {
                            "ident" : "s6-lec4-method-calls-recursion-fixed",
                            "gain" : 1.0,
                            "mixToMono" : false
                          },
                            "channelNumber" : "0,1",
                          "effects" : [

                          ],
                          "start" : 13193,
                          "duration" : 149,
                          "mediaStart" : 13908,
                          "mediaDuration" : 149,
                          "scalar" : 1,
                          "metadata" : {
                            "clipSpeedAttribute" : false
                          },
                          "animationTracks" : {

                          }
                        },
                        {
                          "id" : 114,
                          "_type" : "AMFile",
                          "src" : 27,
                          "trackNumber" : 0,
                          "attributes" : {
                            "ident" : "s6-lec4-method-calls-recursion-fixed",
                            "gain" : 1.0,
                            "mixToMono" : false
                          },
                            "channelNumber" : "0,1",
                          "effects" : [

                          ],
                          "start" : 13342,
                          "duration" : 1886,
                          "mediaStart" : 14257,
                          "mediaDuration" : 1886,
                          "scalar" : 1,
                          "metadata" : {
                            "clipSpeedAttribute" : false
                          },
                          "animationTracks" : {

                          }
                        },
                        {
                          "id" : 115,
                          "_type" : "AMFile",
                          "src" : 27,
                          "trackNumber" : 0,
                          "attributes" : {
                            "ident" : "s6-lec4-method-calls-recursion-fixed",
                            "gain" : 1.0,
                            "mixToMono" : false
                          },
                            "channelNumber" : "0,1",
                          "effects" : [

                          ],
                          "start" : 15228,
                          "duration" : 2427,
                          "mediaStart" : 16185,
                          "mediaDuration" : 2427,
                          "scalar" : 1,
                          "metadata" : {
                            "clipSpeedAttribute" : false
                          },
                          "animationTracks" : {

                          }
                        },
                        {
                          "id" : 116,
                          "_type" : "AMFile",
                          "src" : 27,
                          "trackNumber" : 0,
                          "attributes" : {
                            "ident" : "s6-lec4-method-calls-recursion-fixed",
                            "gain" : 1.0,
                            "mixToMono" : false
                          },
                            "channelNumber" : "0,1",
                          "effects" : [

                          ],
                          "start" : 17655,
                          "duration" : 1136,
                          "mediaStart" : 18988,
                          "mediaDuration" : 1136,
                          "scalar" : 1,
                          "metadata" : {
                            "clipSpeedAttribute" : false
                          },
                          "animationTracks" : {

                          }
                        },
                        {
                          "id" : 117,
                          "_type" : "AMFile",
                          "src" : 27,
                          "trackNumber" : 0,
                          "attributes" : {
                            "ident" : "s6-lec4-method-calls-recursion-fixed",
                            "gain" : 1.0,
                            "mixToMono" : false
                          },
                            "channelNumber" : "0,1",
                          "effects" : [

                          ],
                          "start" : 18791,
                          "duration" : 170,
                          "mediaStart" : 20478,
                          "mediaDuration" : 170,
                          "scalar" : 1,
                          "metadata" : {
                            "clipSpeedAttribute" : false
                          },
                          "animationTracks" : {

                          }
                        },
                        {
                          "id" : 118,
                          "_type" : "AMFile",
                          "src" : 27,
                          "trackNumber" : 0,
                          "attributes" : {
                            "ident" : "s6-lec4-method-calls-recursion-fixed",
                            "gain" : 1.0,
                            "mixToMono" : false
                          },
                            "channelNumber" : "0,1",
                          "effects" : [

                          ],
                          "start" : 18961,
                          "duration" : 848,
                          "mediaStart" : 21036,
                          "mediaDuration" : 848,
                          "scalar" : 1,
                          "metadata" : {
                            "clipSpeedAttribute" : false
                          },
                          "animationTracks" : {

                          }
                        },
                        {
                          "id" : 119,
                          "_type" : "AMFile",
                          "src" : 27,
                          "trackNumber" : 0,
                          "attributes" : {
                            "ident" : "s6-lec4-method-calls-recursion-fixed",
                            "gain" : 1.0,
                            "mixToMono" : false
                          },
                            "channelNumber" : "0,1",
                          "effects" : [

                          ],
                          "start" : 19809,
                          "duration" : 2781,
                          "mediaStart" : 22124,
                          "mediaDuration" : 2781,
                          "scalar" : 1,
                          "metadata" : {
                            "clipSpeedAttribute" : false
                          },
                          "animationTracks" : {

                          }
                        },
                        {
                          "id" : 120,
                          "_type" : "AMFile",
                          "src" : 27,
                          "trackNumber" : 0,
                          "attributes" : {
                            "ident" : "s6-lec4-method-calls-recursion-fixed",
                            "gain" : 1.0,
                            "mixToMono" : false
                          },
                            "channelNumber" : "0,1",
                          "effects" : [

                          ],
                          "start" : 22590,
                          "duration" : 1830,
                          "mediaStart" : 25941,
                          "mediaDuration" : 1830,
                          "scalar" : 1,
                          "metadata" : {
                            "clipSpeedAttribute" : false
                          },
                          "animationTracks" : {

                          }
                        }
                    ],
                    "effects" : [

                    ],
                    "start" : 18130,
                    "duration" : 6756,
                    "mediaStart" : 17649,
                    "mediaDuration" : 6756,
                    "scalar" : 1,
                    "metadata" : {
                      "clipSpeedAttribute" : false
                    },
                    "animationTracks" : {

                    }
                  }
                ]
              },
              {
                "trackIndex" : 11,
                "medias" : [
                  {
                    "id" : 121,
                    "_type" : "IMFile",
                    "src" : 6,
                    "trackNumber" : 0,
                    "trimStartSum" : 0,
                    "attributes" : {
                      "ident" : "Slide2"
                    },
                    "effects" : [

                    ],
                    "start" : 6443,
                    "duration" : 766,
                    "mediaStart" : 0,
                    "mediaDuration" : 1,
                    "scalar" : 1,
                    "metadata" : {
                      "clipSpeedAttribute" : false
                    },
                    "animationTracks" : {

                    }
                  },
                  {
                    "id" : 122,
                    "_type" : "IMFile",
                    "src" : 7,
                    "trackNumber" : 0,
                    "trimStartSum" : 0,
                    "attributes" : {
                      "ident" : "Slide3"
                    },
                    "effects" : [

                    ],
                    "start" : 12361,
                    "duration" : 2057,
                    "mediaStart" : 0,
                    "mediaDuration" : 1,
                    "scalar" : 1,
                    "metadata" : {
                      "clipSpeedAttribute" : false
                    },
                    "animationTracks" : {

                    }
                  },
                  {
                    "id" : 123,
                    "_type" : "IMFile",
                    "src" : 7,
                    "trackNumber" : 0,
                    "trimStartSum" : 2099,
                    "attributes" : {
                      "ident" : "Slide3"
                    },
                    "effects" : [

                    ],
                    "start" : 14418,
                    "duration" : 1437,
                    "mediaStart" : 0,
                    "mediaDuration" : 1,
                    "scalar" : 1,
                    "metadata" : {
                      "clipSpeedAttribute" : false
                    },
                    "animationTracks" : {

                    }
                  },
                  {
                    "id" : 124,
                    "_type" : "IMFile",
                    "src" : 8,
                    "trackNumber" : 0,
                    "trimStartSum" : 0,
                    "attributes" : {
                      "ident" : "Slide4"
                    },
                    "effects" : [

                    ],
                    "start" : 15855,
                    "duration" : 361,
                    "mediaStart" : 0,
                    "mediaDuration" : 1,
                    "scalar" : 1,
                    "metadata" : {
                      "clipSpeedAttribute" : false
                    },
                    "animationTracks" : {

                    }
                  },
                  {
                    "id" : 125,
                    "_type" : "IMFile",
                    "src" : 9,
                    "trackNumber" : 0,
                    "trimStartSum" : -197,
                    "attributes" : {
                      "ident" : "Slide5"
                    },
                    "effects" : [

                    ],
                    "start" : 16216,
                    "duration" : 110,
                    "mediaStart" : 0,
                    "mediaDuration" : 1,
                    "scalar" : 1,
                    "metadata" : {
                      "clipSpeedAttribute" : false
                    },
                    "animationTracks" : {

                    }
                  },
                  {
                    "id" : 126,
                    "_type" : "IMFile",
                    "src" : 10,
                    "trackNumber" : 0,
                    "trimStartSum" : 0,
                    "attributes" : {
                      "ident" : "Slide6"
                    },
                    "effects" : [

                    ],
                    "start" : 16326,
                    "duration" : 61,
                    "mediaStart" : 0,
                    "mediaDuration" : 1,
                    "scalar" : 1,
                    "metadata" : {
                      "clipSpeedAttribute" : false
                    },
                    "animationTracks" : {

                    }
                  },
                  {
                    "id" : 127,
                    "_type" : "IMFile",
                    "src" : 11,
                    "trackNumber" : 0,
                    "trimStartSum" : 0,
                    "attributes" : {
                      "ident" : "Slide7"
                    },
                    "effects" : [

                    ],
                    "start" : 16387,
                    "duration" : 60,
                    "mediaStart" : 0,
                    "mediaDuration" : 1,
                    "scalar" : 1,
                    "metadata" : {
                      "clipSpeedAttribute" : false
                    },
                    "animationTracks" : {

                    }
                  },
                  {
                    "id" : 128,
                    "_type" : "IMFile",
                    "src" : 12,
                    "trackNumber" : 0,
                    "trimStartSum" : 0,
                    "attributes" : {
                      "ident" : "Slide8"
                    },
                    "effects" : [

                    ],
                    "start" : 16447,
                    "duration" : 63,
                    "mediaStart" : 0,
                    "mediaDuration" : 1,
                    "scalar" : 1,
                    "metadata" : {
                      "clipSpeedAttribute" : false
                    },
                    "animationTracks" : {

                    }
                  },
                  {
                    "id" : 129,
                    "_type" : "IMFile",
                    "src" : 13,
                    "trackNumber" : 0,
                    "trimStartSum" : 0,
                    "attributes" : {
                      "ident" : "Slide9"
                    },
                    "effects" : [

                    ],
                    "start" : 16510,
                    "duration" : 61,
                    "mediaStart" : 0,
                    "mediaDuration" : 1,
                    "scalar" : 1,
                    "metadata" : {
                      "clipSpeedAttribute" : false
                    },
                    "animationTracks" : {

                    }
                  },
                  {
                    "id" : 130,
                    "_type" : "IMFile",
                    "src" : 14,
                    "trackNumber" : 0,
                    "trimStartSum" : -3,
                    "attributes" : {
                      "ident" : "Slide10"
                    },
                    "effects" : [

                    ],
                    "start" : 16571,
                    "duration" : 60,
                    "mediaStart" : 0,
                    "mediaDuration" : 1,
                    "scalar" : 1,
                    "metadata" : {
                      "clipSpeedAttribute" : false
                    },
                    "animationTracks" : {

                    }
                  },
                  {
                    "id" : 131,
                    "_type" : "IMFile",
                    "src" : 15,
                    "trackNumber" : 0,
                    "trimStartSum" : 0,
                    "attributes" : {
                      "ident" : "Slide11"
                    },
                    "effects" : [

                    ],
                    "start" : 16631,
                    "duration" : 60,
                    "mediaStart" : 0,
                    "mediaDuration" : 1,
                    "scalar" : 1,
                    "metadata" : {
                      "clipSpeedAttribute" : false
                    },
                    "animationTracks" : {

                    }
                  },
                  {
                    "id" : 132,
                    "_type" : "IMFile",
                    "src" : 16,
                    "trackNumber" : 0,
                    "trimStartSum" : 0,
                    "attributes" : {
                      "ident" : "Slide12"
                    },
                    "effects" : [

                    ],
                    "start" : 16691,
                    "duration" : 61,
                    "mediaStart" : 0,
                    "mediaDuration" : 1,
                    "scalar" : 1,
                    "metadata" : {
                      "clipSpeedAttribute" : false
                    },
                    "animationTracks" : {

                    }
                  },
                  {
                    "id" : 133,
                    "_type" : "IMFile",
                    "src" : 17,
                    "trackNumber" : 0,
                    "trimStartSum" : 0,
                    "attributes" : {
                      "ident" : "Slide13"
                    },
                    "effects" : [

                    ],
                    "start" : 16752,
                    "duration" : 373,
                    "mediaStart" : 0,
                    "mediaDuration" : 1,
                    "scalar" : 1,
                    "metadata" : {
                      "clipSpeedAttribute" : false
                    },
                    "animationTracks" : {

                    }
                  },
                  {
                    "id" : 134,
                    "_type" : "IMFile",
                    "src" : 18,
                    "trackNumber" : 0,
                    "trimStartSum" : 0,
                    "attributes" : {
                      "ident" : "Slide14"
                    },
                    "effects" : [

                    ],
                    "start" : 17125,
                    "duration" : 94,
                    "mediaStart" : 0,
                    "mediaDuration" : 1,
                    "scalar" : 1,
                    "metadata" : {
                      "clipSpeedAttribute" : false
                    },
                    "animationTracks" : {

                    }
                  },
                  {
                    "id" : 135,
                    "_type" : "IMFile",
                    "src" : 19,
                    "trackNumber" : 0,
                    "trimStartSum" : 0,
                    "attributes" : {
                      "ident" : "Slide15"
                    },
                    "effects" : [

                    ],
                    "start" : 17219,
                    "duration" : 67,
                    "mediaStart" : 0,
                    "mediaDuration" : 1,
                    "scalar" : 1,
                    "metadata" : {
                      "clipSpeedAttribute" : false
                    },
                    "animationTracks" : {

                    }
                  },
                  {
                    "id" : 136,
                    "_type" : "IMFile",
                    "src" : 20,
                    "trackNumber" : 0,
                    "trimStartSum" : 0,
                    "attributes" : {
                      "ident" : "Slide16"
                    },
                    "effects" : [

                    ],
                    "start" : 17286,
                    "duration" : 60,
                    "mediaStart" : 0,
                    "mediaDuration" : 1,
                    "scalar" : 1,
                    "metadata" : {
                      "clipSpeedAttribute" : false
                    },
                    "animationTracks" : {

                    }
                  },
                  {
                    "id" : 137,
                    "_type" : "IMFile",
                    "src" : 21,
                    "trackNumber" : 0,
                    "trimStartSum" : 12,
                    "attributes" : {
                      "ident" : "Slide17"
                    },
                    "effects" : [

                    ],
                    "start" : 17346,
                    "duration" : 61,
                    "mediaStart" : 0,
                    "mediaDuration" : 1,
                    "scalar" : 1,
                    "metadata" : {
                      "clipSpeedAttribute" : false
                    },
                    "animationTracks" : {

                    }
                  },
                  {
                    "id" : 138,
                    "_type" : "IMFile",
                    "src" : 22,
                    "trackNumber" : 0,
                    "trimStartSum" : 0,
                    "attributes" : {
                      "ident" : "Slide18"
                    },
                    "effects" : [

                    ],
                    "start" : 17407,
                    "duration" : 322,
                    "mediaStart" : 0,
                    "mediaDuration" : 1,
                    "scalar" : 1,
                    "metadata" : {
                      "clipSpeedAttribute" : false
                    },
                    "animationTracks" : {

                    }
                  },
                  {
                    "id" : 139,
                    "_type" : "IMFile",
                    "src" : 23,
                    "trackNumber" : 0,
                    "trimStartSum" : 0,
                    "attributes" : {
                      "ident" : "Slide19"
                    },
                    "effects" : [

                    ],
                    "start" : 17729,
                    "duration" : 259,
                    "mediaStart" : 0,
                    "mediaDuration" : 1,
                    "scalar" : 1,
                    "metadata" : {
                      "clipSpeedAttribute" : false
                    },
                    "animationTracks" : {

                    }
                  },
                  {
                    "id" : 140,
                    "_type" : "IMFile",
                    "src" : 24,
                    "trackNumber" : 0,
                    "trimStartSum" : 0,
                    "attributes" : {
                      "ident" : "Slide20"
                    },
                    "effects" : [

                    ],
                    "start" : 17988,
                    "duration" : 142,
                    "mediaStart" : 0,
                    "mediaDuration" : 1,
                    "scalar" : 1,
                    "metadata" : {
                      "clipSpeedAttribute" : false
                    },
                    "animationTracks" : {

                    }
                  },
                  {
                    "id" : 141,
                    "_type" : "IMFile",
                    "src" : 25,
                    "trackNumber" : 0,
                    "trimStartSum" : -81,
                    "attributes" : {
                      "ident" : "Slide21"
                    },
                    "effects" : [

                    ],
                    "start" : 18446,
                    "duration" : 826,
                    "mediaStart" : 0,
                    "mediaDuration" : 1,
                    "scalar" : 1,
                    "metadata" : {
                      "clipSpeedAttribute" : false
                    },
                    "animationTracks" : {

                    }
                  },
                  {
                    "id" : 142,
                    "_type" : "IMFile",
                    "src" : 25,
                    "trackNumber" : 0,
                    "trimStartSum" : 1099,
                    "attributes" : {
                      "ident" : "Slide21"
                    },
                    "effects" : [

                    ],
                    "start" : 19272,
                    "duration" : 170,
                    "mediaStart" : 0,
                    "mediaDuration" : 1,
                    "scalar" : 1,
                    "metadata" : {
                      "clipSpeedAttribute" : false
                    },
                    "animationTracks" : {

                    }
                  },
                  {
                    "id" : 143,
                    "_type" : "IMFile",
                    "src" : 25,
                    "trackNumber" : 0,
                    "trimStartSum" : 1657,
                    "attributes" : {
                      "ident" : "Slide21"
                    },
                    "effects" : [

                    ],
                    "start" : 19442,
                    "duration" : 848,
                    "mediaStart" : 0,
                    "mediaDuration" : 1,
                    "scalar" : 1,
                    "metadata" : {
                      "clipSpeedAttribute" : false
                    },
                    "animationTracks" : {

                    }
                  },
                  {
                    "id" : 144,
                    "_type" : "IMFile",
                    "src" : 25,
                    "trackNumber" : 0,
                    "trimStartSum" : 2745,
                    "attributes" : {
                      "ident" : "Slide21"
                    },
                    "effects" : [

                    ],
                    "start" : 20290,
                    "duration" : 377,
                    "mediaStart" : 0,
                    "mediaDuration" : 1,
                    "scalar" : 1,
                    "metadata" : {
                      "clipSpeedAttribute" : false
                    },
                    "animationTracks" : {

                    }
                  }
                ],
                "transitions" : [
                  {
                    "name" : "Fade",
                    "duration" : 30,
                    "trivial" : false,
                    "reverse" : false,
                    "useAudioPreRoll" : true,
                    "useVisualPreRoll" : true,
                    "rightMedia" : 121
                  },
                  {
                    "name" : "Fade",
                    "duration" : 30,
                    "trivial" : false,
                    "reverse" : false,
                    "useAudioPreRoll" : true,
                    "useVisualPreRoll" : true,
                    "leftMedia" : 121
                  },
                  {
                    "name" : "Fade",
                    "duration" : 30,
                    "trivial" : false,
                    "reverse" : false,
                    "useAudioPreRoll" : true,
                    "useVisualPreRoll" : true,
                    "rightMedia" : 122
                  },
                  {
                    "name" : "Fade",
                    "duration" : 30,
                    "trivial" : false,
                    "reverse" : false,
                    "useAudioPreRoll" : true,
                    "useVisualPreRoll" : true,
                    "leftMedia" : 123,
                    "rightMedia" : 124
                  },
                  {
                    "name" : "Fade",
                    "duration" : 30,
                    "trivial" : false,
                    "reverse" : false,
                    "useAudioPreRoll" : true,
                    "useVisualPreRoll" : true,
                    "leftMedia" : 124,
                    "rightMedia" : 125
                  },
                  {
                    "name" : "Fade",
                    "duration" : 30,
                    "trivial" : false,
                    "reverse" : false,
                    "useAudioPreRoll" : true,
                    "useVisualPreRoll" : true,
                    "leftMedia" : 125,
                    "rightMedia" : 126
                  },
                  {
                    "name" : "Fade",
                    "duration" : 30,
                    "trivial" : false,
                    "reverse" : false,
                    "useAudioPreRoll" : true,
                    "useVisualPreRoll" : true,
                    "leftMedia" : 126,
                    "rightMedia" : 127
                  },
                  {
                    "name" : "Fade",
                    "duration" : 30,
                    "trivial" : false,
                    "reverse" : false,
                    "useAudioPreRoll" : true,
                    "useVisualPreRoll" : true,
                    "leftMedia" : 127,
                    "rightMedia" : 128
                  },
                  {
                    "name" : "Fade",
                    "duration" : 30,
                    "trivial" : false,
                    "reverse" : false,
                    "useAudioPreRoll" : true,
                    "useVisualPreRoll" : true,
                    "leftMedia" : 128,
                    "rightMedia" : 129
                  },
                  {
                    "name" : "Fade",
                    "duration" : 30,
                    "trivial" : false,
                    "reverse" : false,
                    "useAudioPreRoll" : true,
                    "useVisualPreRoll" : true,
                    "leftMedia" : 129,
                    "rightMedia" : 130
                  },
                  {
                    "name" : "Fade",
                    "duration" : 30,
                    "trivial" : false,
                    "reverse" : false,
                    "useAudioPreRoll" : true,
                    "useVisualPreRoll" : true,
                    "leftMedia" : 130,
                    "rightMedia" : 131
                  },
                  {
                    "name" : "Fade",
                    "duration" : 30,
                    "trivial" : false,
                    "reverse" : false,
                    "useAudioPreRoll" : true,
                    "useVisualPreRoll" : true,
                    "leftMedia" : 131,
                    "rightMedia" : 132
                  },
                  {
                    "name" : "Fade",
                    "duration" : 30,
                    "trivial" : false,
                    "reverse" : false,
                    "useAudioPreRoll" : true,
                    "useVisualPreRoll" : true,
                    "leftMedia" : 132,
                    "rightMedia" : 133
                  },
                  {
                    "name" : "Fade",
                    "duration" : 30,
                    "trivial" : false,
                    "reverse" : false,
                    "useAudioPreRoll" : true,
                    "useVisualPreRoll" : true,
                    "leftMedia" : 133,
                    "rightMedia" : 134
                  },
                  {
                    "name" : "Fade",
                    "duration" : 30,
                    "trivial" : false,
                    "reverse" : false,
                    "useAudioPreRoll" : true,
                    "useVisualPreRoll" : true,
                    "leftMedia" : 134,
                    "rightMedia" : 135
                  },
                  {
                    "name" : "Fade",
                    "duration" : 30,
                    "trivial" : false,
                    "reverse" : false,
                    "useAudioPreRoll" : true,
                    "useVisualPreRoll" : true,
                    "leftMedia" : 135,
                    "rightMedia" : 136
                  },
                  {
                    "name" : "Fade",
                    "duration" : 15,
                    "trivial" : false,
                    "reverse" : false,
                    "useAudioPreRoll" : true,
                    "useVisualPreRoll" : true,
                    "leftMedia" : 136,
                    "rightMedia" : 137
                  },
                  {
                    "name" : "Fade",
                    "duration" : 30,
                    "trivial" : false,
                    "reverse" : false,
                    "useAudioPreRoll" : true,
                    "useVisualPreRoll" : true,
                    "leftMedia" : 137,
                    "rightMedia" : 138
                  },
                  {
                    "name" : "Fade",
                    "duration" : 30,
                    "trivial" : false,
                    "reverse" : false,
                    "useAudioPreRoll" : true,
                    "useVisualPreRoll" : true,
                    "leftMedia" : 138,
                    "rightMedia" : 139
                  },
                  {
                    "name" : "Fade",
                    "duration" : 30,
                    "trivial" : false,
                    "reverse" : false,
                    "useAudioPreRoll" : true,
                    "useVisualPreRoll" : true,
                    "leftMedia" : 139,
                    "rightMedia" : 140
                  },
                  {
                    "name" : "Fade",
                    "duration" : 30,
                    "trivial" : false,
                    "reverse" : false,
                    "useAudioPreRoll" : true,
                    "useVisualPreRoll" : true,
                    "leftMedia" : 140
                  },
                  {
                    "name" : "Fade",
                    "duration" : 30,
                    "trivial" : false,
                    "reverse" : false,
                    "useAudioPreRoll" : true,
                    "useVisualPreRoll" : true,
                    "rightMedia" : 141
                  },
                  {
                    "name" : "Fade",
                    "duration" : 30,
                    "trivial" : false,
                    "reverse" : false,
                    "useAudioPreRoll" : true,
                    "useVisualPreRoll" : true,
                    "leftMedia" : 144
                  }
                ]
              },
              {
                "trackIndex" : 12,
                "medias" : [
                  {
                    "id" : 145,
                    "_type" : "Callout",
                    "def" : {
                      "kind" : "remix",
                      "shape" : "speech-bubble",
                      "style" : "urban",
                      "fill-color-blue" : 0.129411764705882,
                      "fill-color-green" : 0.741176470588235,
                      "fill-color-opacity" : 1.0,
                      "fill-color-red" : 0.956862745098039,
                      "height" : 102.564102564055,
                      "line-spacing" : 0.0,
                      "stroke-color-blue" : 0.384313725490196,
                      "stroke-color-green" : 0.525490196078431,
                      "stroke-color-opacity" : 1.0,
                      "stroke-color-red" : 0.96078431372549,
                      "stroke-width" : 0.0,
                      "tail-x" : 237.999999999869,
                      "tail-y" : -253.846153846132,
                      "width" : 320.512820512749,
                      "word-wrap" : 1.0,
                      "fill-style" : "solid",
                      "horizontal-alignment" : "center",
                      "resize-behavior" : "resizeText",
                      "stroke-style" : "solid",
                      "text" : "pushing:  adding an item onto the stack",
                      "vertical-alignment" : "center",
                      "font" : {
                        "color-blue" : 1.0,
                        "color-green" : 1.0,
                        "color-red" : 1.0,
                        "size" : 70.0,
                        "tracking" : 0.0,
                        "name" : "Dosis",
                        "weight" : "Semi Bold"
                      },
                      "textAttributes" : {
                        "type" : "textAttributeList",
                        "keyframes" : [
                          {
                            "endTime" : 0,
                            "time" : 0,
                            "value" : [{"name":"kerning","rangeEnd":39,"rangeStart":0,"value":0,"valueType":"double"},{"name":"fontWeight","rangeEnd":39,"rangeStart":0,"value":400,"valueType":"int"},{"name":"underline","rangeEnd":39,"rangeStart":0,"value":0,"valueType":"int"},{"name":"fgColor","rangeEnd":39,"rangeStart":0,"value":"(255,255,255,255)","valueType":"color"},{"name":"fontName","rangeEnd":39,"rangeStart":0,"value":"Dosis","valueType":"string"},{"name":"fontSize","rangeEnd":39,"rangeStart":0,"value":70,"valueType":"double"},{"name":"fontItalic","rangeEnd":39,"rangeStart":0,"value":0,"valueType":"int"},{"name":"strikethrough","rangeEnd":39,"rangeStart":0,"value":0,"valueType":"int"}],
                            "duration" : 0
                          }
                        ]
                      }
                    },
                    "attributes" : {
                      "autoRotateText" : true
                    },
                    "parameters" : {
                      "translation0" : 229.739894650943,
                      "translation1" : 253.84615384611
                    },
                    "effects" : [

                    ],
                    "start" : 13619,
                    "duration" : 150,
                    "mediaStart" : 0,
                    "mediaDuration" : 150,
                    "scalar" : 1,
                    "metadata" : {
                      "clipSpeedAttribute" : false,
                      "default-HAlign" : "center",
                      "default-LineSpace" : 0.0,
                      "default-VAlign" : "center",
                      "default-text-attributes" : null,
                      "default-translation0" : 0.0,
                      "default-translation1" : 0.0
                    },
                    "animationTracks" : {

                    }
                  },
                  {
                    "id" : 146,
                    "_type" : "Callout",
                    "def" : {
                      "kind" : "remix",
                      "shape" : "speech-bubble",
                      "style" : "urban",
                      "fill-color-blue" : {
                        "type" : "double",
                        "defaultValue" : 0.129411764705882,
                        "interp" : "linr"
                      },
                      "fill-color-green" : {
                        "type" : "double",
                        "defaultValue" : 0.741176470588235,
                        "interp" : "linr"
                      },
                      "fill-color-opacity" : {
                        "type" : "double",
                        "defaultValue" : 1.0,
                        "interp" : "linr"
                      },
                      "fill-color-red" : {
                        "type" : "double",
                        "defaultValue" : 0.956862745098039,
                        "interp" : "linr"
                      },
                      "height" : {
                        "type" : "double",
                        "defaultValue" : 102.564102564055,
                        "interp" : "linr"
                      },
                      "line-spacing" : {
                        "type" : "double",
                        "defaultValue" : 0.0,
                        "interp" : "linr"
                      },
                      "stroke-color-blue" : {
                        "type" : "double",
                        "defaultValue" : 0.384313725490196,
                        "interp" : "linr"
                      },
                      "stroke-color-green" : {
                        "type" : "double",
                        "defaultValue" : 0.525490196078431,
                        "interp" : "linr"
                      },
                      "stroke-color-opacity" : {
                        "type" : "double",
                        "defaultValue" : 1.0,
                        "interp" : "linr"
                      },
                      "stroke-color-red" : {
                        "type" : "double",
                        "defaultValue" : 0.96078431372549,
                        "interp" : "linr"
                      },
                      "stroke-width" : {
                        "type" : "double",
                        "defaultValue" : 0.0,
                        "interp" : "linr"
                      },
                      "tail-x" : {
                        "type" : "double",
                        "defaultValue" : 237.999999999869,
                        "interp" : "linr"
                      },
                      "tail-y" : {
                        "type" : "double",
                        "defaultValue" : -253.846153846132,
                        "interp" : "linr"
                      },
                      "width" : {
                        "type" : "double",
                        "defaultValue" : 320.512820512749,
                        "interp" : "linr"
                      },
                      "word-wrap" : {
                        "type" : "double",
                        "defaultValue" : 1.0,
                        "interp" : "linr"
                      },
                      "fill-style" : "solid",
                      "horizontal-alignment" : "center",
                      "resize-behavior" : "resizeText",
                      "stroke-style" : "solid",
                      "text" : "popping:  removing an item from the stack",
                      "vertical-alignment" : "center",
                      "font" : {
                        "color-blue" : {
                          "type" : "double",
                          "defaultValue" : 1.0,
                          "interp" : "linr"
                        },
                        "color-green" : {
                          "type" : "double",
                          "defaultValue" : 1.0,
                          "interp" : "linr"
                        },
                        "color-red" : {
                          "type" : "double",
                          "defaultValue" : 1.0,
                          "interp" : "linr"
                        },
                        "size" : {
                          "type" : "double",
                          "defaultValue" : 70.0,
                          "interp" : "linr"
                        },
                        "tracking" : {
                          "type" : "double",
                          "defaultValue" : 0.0,
                          "interp" : "linr"
                        },
                        "name" : "Dosis",
                        "weight" : "Semi Bold"
                      },
                      "textAttributes" : {
                        "type" : "textAttributeList",
                        "keyframes" : [
                          {
                            "endTime" : 0,
                            "time" : 0,
                            "value" : [{"name":"fgColor","rangeEnd":41,"rangeStart":0,"value":"(255,255,255,255)","valueType":"color"},{"name":"kerning","rangeEnd":41,"rangeStart":0,"value":0,"valueType":"double"},{"name":"fontName","rangeEnd":41,"rangeStart":0,"value":"Dosis","valueType":"string"},{"name":"fontSize","rangeEnd":41,"rangeStart":0,"value":70,"valueType":"double"},{"name":"fontWeight","rangeEnd":41,"rangeStart":0,"value":400,"valueType":"int"},{"name":"strikethrough","rangeEnd":41,"rangeStart":0,"value":0,"valueType":"int"},{"name":"underline","rangeEnd":41,"rangeStart":0,"value":0,"valueType":"int"},{"name":"fontItalic","rangeEnd":41,"rangeStart":0,"value":0,"valueType":"int"}],
                            "duration" : 0
                          }
                        ]
                      }
                    },
                    "attributes" : {
                      "autoRotateText" : true
                    },
                    "parameters" : {
                      "translation0" : {
                        "type" : "double",
                        "defaultValue" : 231.021945933018,
                        "interp" : "eioe"
                      },
                      "translation1" : {
                        "type" : "double",
                        "defaultValue" : 253.84615384611,
                        "interp" : "eioe"
                      }
                    },
                    "effects" : [

                    ],
                    "start" : 13769,
                    "duration" : 150,
                    "mediaStart" : 0,
                    "mediaDuration" : 150,
                    "scalar" : 1,
                    "metadata" : {
                      "clipSpeedAttribute" : false,
                      "default-HAlign" : "center",
                      "default-LineSpace" : 0.0,
                      "default-VAlign" : "center",
                      "default-text-attributes" : null,
                      "default-translation0" : 0.0,
                      "default-translation1" : 0.0
                    },
                    "animationTracks" : {

                    }
                  },
                  {
                    "id" : 147,
                    "_type" : "StitchedMedia",
                    "minMediaStart" : 0,
                    "attributes" : {
                      "ident" : "s6-lec4-method-calls-recursion-popping-fixed",
                      "gain" : 1.0,
                      "mixToMono" : false
                    },
                    "parameters" : {
                      "volume" : 1.85452162516383,
                      "cursorOpacity" : 1.0,
                      "cursorScale" : 1.0
                    },
                    "medias" : [
                        {
                          "id" : 148,
                          "_type" : "AMFile",
                          "src" : 29,
                          "trackNumber" : 0,
                          "attributes" : {
                            "ident" : "s6-lec4-method-calls-recursion-popping-fixed",
                            "gain" : 1.0,
                            "mixToMono" : false
                          },
                            "channelNumber" : "0,1",
                          "effects" : [

                          ],
                          "start" : 0,
                          "duration" : 1146,
                          "mediaStart" : 0,
                          "mediaDuration" : 1146,
                          "scalar" : 1,
                          "metadata" : {
                            "clipSpeedAttribute" : false
                          },
                          "animationTracks" : {

                          }
                        },
                        {
                          "id" : 149,
                          "_type" : "AMFile",
                          "src" : 29,
                          "trackNumber" : 0,
                          "attributes" : {
                            "ident" : "s6-lec4-method-calls-recursion-popping-fixed",
                            "gain" : 1.0,
                            "mixToMono" : false
                          },
                            "channelNumber" : "0,1",
                          "effects" : [

                          ],
                          "start" : 1146,
                          "duration" : 39,
                          "mediaStart" : 1176,
                          "mediaDuration" : 39,
                          "scalar" : 1,
                          "metadata" : {
                            "clipSpeedAttribute" : false
                          },
                          "animationTracks" : {

                          }
                        },
                        {
                          "id" : 150,
                          "_type" : "AMFile",
                          "src" : 29,
                          "trackNumber" : 0,
                          "attributes" : {
                            "ident" : "s6-lec4-method-calls-recursion-popping-fixed",
                            "gain" : 1.0,
                            "mixToMono" : false
                          },
                            "channelNumber" : "0,1",
                          "effects" : [

                          ],
                          "start" : 1185,
                          "duration" : 43,
                          "mediaStart" : 1240,
                          "mediaDuration" : 43,
                          "scalar" : 1,
                          "metadata" : {
                            "clipSpeedAttribute" : false
                          },
                          "animationTracks" : {

                          }
                        },
                        {
                          "id" : 151,
                          "_type" : "AMFile",
                          "src" : 29,
                          "trackNumber" : 0,
                          "attributes" : {
                            "ident" : "s6-lec4-method-calls-recursion-popping-fixed",
                            "gain" : 1.0,
                            "mixToMono" : false
                          },
                            "channelNumber" : "0,1",
                          "effects" : [

                          ],
                          "start" : 1228,
                          "duration" : 33,
                          "mediaStart" : 1307,
                          "mediaDuration" : 33,
                          "scalar" : 1,
                          "metadata" : {
                            "clipSpeedAttribute" : false
                          },
                          "animationTracks" : {

                          }
                        },
                        {
                          "id" : 152,
                          "_type" : "AMFile",
                          "src" : 29,
                          "trackNumber" : 0,
                          "attributes" : {
                            "ident" : "s6-lec4-method-calls-recursion-popping-fixed",
                            "gain" : 1.0,
                            "mixToMono" : false
                          },
                            "channelNumber" : "0,1",
                          "effects" : [

                          ],
                          "start" : 1261,
                          "duration" : 573,
                          "mediaStart" : 1352,
                          "mediaDuration" : 573,
                          "scalar" : 1,
                          "metadata" : {
                            "clipSpeedAttribute" : false
                          },
                          "animationTracks" : {

                          }
                        }
                    ],
                    "effects" : [

                    ],
                    "start" : 16839,
                    "duration" : 1291,
                    "mediaStart" : 543,
                    "mediaDuration" : 1291,
                    "scalar" : 1,
                    "metadata" : {
                      "clipSpeedAttribute" : false
                    },
                    "animationTracks" : {

                    }
                  }
                ],
                "transitions" : [
                  {
                    "name" : "Fade",
                    "duration" : 30,
                    "trivial" : false,
                    "reverse" : false,
                    "useAudioPreRoll" : true,
                    "useVisualPreRoll" : true,
                    "rightMedia" : 145
                  },
                  {
                    "name" : "Fade",
                    "duration" : 30,
                    "trivial" : false,
                    "reverse" : false,
                    "useAudioPreRoll" : true,
                    "useVisualPreRoll" : true,
                    "leftMedia" : 145,
                    "rightMedia" : 146
                  },
                  {
                    "name" : "Fade",
                    "duration" : 30,
                    "trivial" : false,
                    "reverse" : false,
                    "useAudioPreRoll" : true,
                    "useVisualPreRoll" : true,
                    "leftMedia" : 146
                  }
                ]
              },
              {
                "trackIndex" : 13,
                "medias" : [
                ]
              },
              {
                "trackIndex" : 14,
                "medias" : [
                ]
              },
              {
                "trackIndex" : 15,
                "medias" : [
                ]
              }
            ]
          }
        }
      ]
    },
    "trackAttributes" : [
      {
        "ident" : "",
        "audioMuted" : false,
        "videoHidden" : false,
        "magnetic" : false,
        "matte" : 0,
        "metadata" : {
          "IsLocked" : "False",
          "WinTrackHeight" : "108.923076923077",
          "trackHeight" : "40"
        }
      },
      {
        "ident" : "",
        "audioMuted" : false,
        "videoHidden" : false,
        "magnetic" : false,
        "matte" : 0,
        "metadata" : {
          "IsLocked" : "False",
          "WinTrackHeight" : "108.923076923077",
          "trackHeight" : "150"
        }
      },
      {
        "ident" : "",
        "audioMuted" : false,
        "videoHidden" : false,
        "magnetic" : false,
        "matte" : 0,
        "metadata" : {
          "IsLocked" : "False",
          "WinTrackHeight" : "108.923076923077",
          "trackHeight" : "150"
        }
      },
      {
        "ident" : "",
        "audioMuted" : false,
        "videoHidden" : false,
        "magnetic" : false,
        "matte" : 0,
        "metadata" : {
          "IsLocked" : "False",
          "WinTrackHeight" : "108.923076923077",
          "trackHeight" : "102"
        }
      },
      {
        "ident" : "",
        "audioMuted" : false,
        "videoHidden" : false,
        "magnetic" : false,
        "matte" : 0,
        "metadata" : {
          "IsLocked" : "False",
          "WinTrackHeight" : "108.923076923077",
          "trackHeight" : "54"
        }
      },
      {
        "ident" : "",
        "audioMuted" : false,
        "videoHidden" : false,
        "magnetic" : false,
        "matte" : 0,
        "metadata" : {
          "IsLocked" : "False",
          "WinTrackHeight" : "108.923076923077",
          "trackHeight" : "86"
        }
      },
      {
        "ident" : "",
        "audioMuted" : false,
        "videoHidden" : false,
        "magnetic" : false,
        "matte" : 0,
        "metadata" : {
          "IsLocked" : "False",
          "WinTrackHeight" : "108.923076923077",
          "trackHeight" : "86"
        }
      },
      {
        "ident" : "",
        "audioMuted" : false,
        "videoHidden" : false,
        "magnetic" : false,
        "matte" : 0,
        "metadata" : {
          "IsLocked" : "False",
          "WinTrackHeight" : "108.923076923077"
        }
      },
      {
        "ident" : "",
        "audioMuted" : false,
        "videoHidden" : false,
        "magnetic" : false,
        "matte" : 0,
        "metadata" : {
          "IsLocked" : "False",
          "WinTrackHeight" : "108.923076923077"
        }
      },
      {
        "ident" : "",
        "audioMuted" : false,
        "videoHidden" : false,
        "magnetic" : false,
        "matte" : 0,
        "metadata" : {
          "IsLocked" : "False",
          "WinTrackHeight" : "108.923076923077"
        }
      },
      {
        "ident" : "",
        "audioMuted" : false,
        "videoHidden" : false,
        "magnetic" : false,
        "matte" : 0,
        "metadata" : {
          "IsLocked" : "False",
          "WinTrackHeight" : "106.923076923077"
        }
      },
      {
        "ident" : "",
        "audioMuted" : false,
        "videoHidden" : false,
        "magnetic" : false,
        "matte" : 0,
        "metadata" : {
          "IsLocked" : "False",
          "WinTrackHeight" : "108.923076923077"
        }
      },
      {
        "ident" : "",
        "audioMuted" : false,
        "videoHidden" : false,
        "magnetic" : false,
        "matte" : 0,
        "metadata" : {
          "IsLocked" : "False",
          "WinTrackHeight" : "108.923076923077"
        }
      },
      {
        "ident" : "",
        "audioMuted" : false,
        "videoHidden" : false,
        "magnetic" : false,
        "matte" : 0,
        "metadata" : {
          "IsLocked" : "False",
          "WinTrackHeight" : "108.923076923077"
        }
      },
      {
        "ident" : "",
        "audioMuted" : false,
        "videoHidden" : false,
        "magnetic" : false,
        "matte" : 0,
        "metadata" : {
          "IsLocked" : "False",
          "WinTrackHeight" : "108.923076923077"
        }
      },
      {
        "ident" : "",
        "audioMuted" : false,
        "videoHidden" : false,
        "magnetic" : false,
        "matte" : 0,
        "metadata" : {
          "IsLocked" : "False",
          "WinTrackHeight" : "108.923076923077"
        }
      }
    ],
    "captionAttributes" : {
      "enabled" : true,
      "fontName" : "Arial",
      "fontSize" : 32,
      "backgroundColor" : [ 0, 0, 0, 127],
      "foregroundColor" : [ 255, 255, 255, 255],
      "lang" : "en",
      "alignment" : 0,
      "defaultFontSize" : true,
      "opacity" : 0.5,
      "backgroundEnabled" : true,
      "backgroundOnlyAroundText" : true
    },
    "backgroundColor" : [ 0, 0, 0, 255]
  },
  "metadata" : {
    "AutoSaveFile" : "",
    "CanvasZoom" : 78,
    "Date" : "2020-01-27 11:33:13 PM",
    "Fit" : 1,
    "IsAutoSave" : "0",
    "Language" : "ENU",
    "ProfileName" : "MP4 only (up to 720p)",
    "ProjectDimensionsChanged" : "0",
    "Title" : "CamtasiaTemplateWindows",
    "audioNarrationNotes" : "",
    "calloutStyle" : "All",
    "canvasDetached" : "False",
    "canvasPositionHeight" : "0",
    "canvasPositionLeft" : "0",
    "canvasPositionTop" : "0",
    "canvasPositionWidth" : "0",
    "firstMedia" : true
  },
  "audioPlaybackRate" : 44100
,
  "videoPlaybackRate" : 30

}
